<?xml version="1.0" encoding="UTF-8" standalone="no"?>
<!DOCTYPE svg PUBLIC "-//W3C//DTD SVG 1.1//EN"
 "http://www.w3.org/Graphics/SVG/1.1/DTD/svg11.dtd">
<!-- Generated by graphviz version 2.47.3 (20210619.1520)
 -->
<!-- Title: dependencies Pages: 1 -->
<svg width="574pt" height="247pt"
 viewBox="0.00 0.00 574.00 246.80" xmlns="http://www.w3.org/2000/svg" xmlns:xlink="http://www.w3.org/1999/xlink">
<g id="graph0" class="graph" transform="scale(1 1) rotate(0) translate(4 242.8)">
<title>dependencies</title>
<polygon fill="white" stroke="transparent" points="-4,4 -4,-242.8 570,-242.8 570,4 -4,4"/>
<text text-anchor="middle" x="283" y="-8.2" font-family="sans-serif" font-size="14.00">dependencies</text>
<g id="clust1" class="cluster">
<title>cluster_OfferModule</title>
<polygon fill="none" stroke="black" stroke-dasharray="1,5" points="8,-32.8 8,-230.8 558,-230.8 558,-32.8 8,-32.8"/>
</g>
<g id="clust4" class="cluster">
<title>cluster_OfferModule_exports</title>
<polygon fill="none" stroke="black" points="225,-170.8 225,-222.8 333,-222.8 333,-170.8 225,-170.8"/>
</g>
<g id="clust6" class="cluster">
<title>cluster_OfferModule_providers</title>
<polygon fill="none" stroke="black" points="278,-40.8 278,-92.8 550,-92.8 550,-40.8 278,-40.8"/>
</g>
<g id="clust3" class="cluster">
<title>cluster_OfferModule_imports</title>
<polygon fill="none" stroke="black" points="16,-40.8 16,-92.8 270,-92.8 270,-40.8 16,-40.8"/>
</g>
<!-- CacheModule -->
<g id="node1" class="node">
<title>CacheModule</title>
<polygon fill="#8dd3c7" stroke="black" points="262.03,-84.8 259.03,-88.8 238.03,-88.8 235.03,-84.8 167.97,-84.8 167.97,-48.8 262.03,-48.8 262.03,-84.8"/>
<text text-anchor="middle" x="215" y="-62.6" font-family="Times,serif" font-size="14.00">CacheModule</text>
</g>
<!-- OfferModule -->
<g id="node3" class="node">
<title>OfferModule</title>
<polygon fill="#8dd3c7" stroke="black" points="323.85,-149.8 320.85,-153.8 299.85,-153.8 296.85,-149.8 234.15,-149.8 234.15,-113.8 323.85,-113.8 323.85,-149.8"/>
<text text-anchor="middle" x="279" y="-127.6" font-family="Times,serif" font-size="14.00">OfferModule</text>
</g>
<!-- CacheModule&#45;&gt;OfferModule -->
<g id="edge1" class="edge">
<title>CacheModule&#45;&gt;OfferModule</title>
<path fill="none" stroke="black" d="M248.17,-84.91C248.17,-84.91 248.17,-103.79 248.17,-103.79"/>
<polygon fill="black" stroke="black" points="244.67,-103.79 248.17,-113.79 251.67,-103.79 244.67,-103.79"/>
</g>
<!-- TransactionModule -->
<g id="node2" class="node">
<title>TransactionModule</title>
<polygon fill="#8dd3c7" stroke="black" points="149.63,-84.8 146.63,-88.8 125.63,-88.8 122.63,-84.8 24.37,-84.8 24.37,-48.8 149.63,-48.8 149.63,-84.8"/>
<text text-anchor="middle" x="87" y="-62.6" font-family="Times,serif" font-size="14.00">TransactionModule</text>
</g>
<!-- TransactionModule&#45;&gt;OfferModule -->
<g id="edge2" class="edge">
<title>TransactionModule&#45;&gt;OfferModule</title>
<path fill="none" stroke="black" d="M87,-84.91C87,-104.14 87,-131.8 87,-131.8 87,-131.8 223.98,-131.8 223.98,-131.8"/>
<polygon fill="black" stroke="black" points="223.98,-135.3 233.98,-131.8 223.98,-128.3 223.98,-135.3"/>
</g>
<!-- OfferService  -->
<g id="node4" class="node">
<title>OfferService </title>
<polygon fill="#fb8072" stroke="black" points="324.78,-214.8 233.22,-214.8 233.22,-178.8 324.78,-178.8 324.78,-214.8"/>
<text text-anchor="middle" x="279" y="-192.6" font-family="Times,serif" font-size="14.00">OfferService </text>
</g>
<!-- OfferModule&#45;&gt;OfferService  -->
<g id="edge3" class="edge">
<title>OfferModule&#45;&gt;OfferService </title>
<path fill="none" stroke="black" stroke-dasharray="5,2" d="M279,-149.91C279,-149.91 279,-168.79 279,-168.79"/>
<polygon fill="black" stroke="black" points="275.5,-168.79 279,-178.79 282.5,-168.79 275.5,-168.79"/>
</g>
<!-- OfferService -->
<g id="node5" class="node">
<title>OfferService</title>
<ellipse fill="#fdb462" stroke="black" cx="481" cy="-66.8" rx="60.79" ry="18"/>
<text text-anchor="middle" x="481" y="-62.6" font-family="Times,serif" font-size="14.00">OfferService</text>
</g>
<!-- OfferService&#45;&gt;OfferModule -->
<g id="edge4" class="edge">
<title>OfferService&#45;&gt;OfferModule</title>
<path fill="none" stroke="black" d="M481,-84.91C481,-104.14 481,-131.8 481,-131.8 481,-131.8 334.08,-131.8 334.08,-131.8"/>
<polygon fill="black" stroke="black" points="334.08,-128.3 324.08,-131.8 334.08,-135.3 334.08,-128.3"/>
</g>
<!-- UserService -->
<g id="node6" class="node">
<title>UserService</title>
<ellipse fill="#fdb462" stroke="black" cx="344" cy="-66.8" rx="58.44" ry="18"/>
<text text-anchor="middle" x="344" y="-62.6" font-family="Times,serif" font-size="14.00">UserService</text>
</g>
<!-- UserService&#45;&gt;OfferModule -->
<g id="edge5" class="edge">
<title>UserService&#45;&gt;OfferModule</title>
<path fill="none" stroke="black" d="M304.85,-80.27C304.85,-80.27 304.85,-103.66 304.85,-103.66"/>
<polygon fill="black" stroke="black" points="301.35,-103.66 304.85,-113.66 308.35,-103.66 301.35,-103.66"/>
</g>
</g>
</svg>
