<?xml version="1.0" encoding="UTF-8" standalone="no"?>
<!DOCTYPE svg PUBLIC "-//W3C//DTD SVG 1.1//EN"
 "http://www.w3.org/Graphics/SVG/1.1/DTD/svg11.dtd">
<!-- Generated by graphviz version 2.47.3 (20210619.1520)
 -->
<!-- Title: dependencies Pages: 1 -->
<svg width="574pt" height="247pt"
 viewBox="0.00 0.00 574.00 246.80" xmlns="http://www.w3.org/2000/svg" xmlns:xlink="http://www.w3.org/1999/xlink">
<g id="graph0" class="graph" transform="scale(1 1) rotate(0) translate(4 242.8)">
<title>dependencies</title>
<polygon fill="white" stroke="transparent" points="-4,4 -4,-242.8 570,-242.8 570,4 -4,4"/>
<text text-anchor="middle" x="283" y="-8.2" font-family="sans-serif" font-size="14.00">dependencies</text>
<g id="clust1" class="cluster">
<title>cluster_OfferModule</title>
<polygon fill="none" stroke="black" stroke-dasharray="1,5" points="8,-32.8 8,-230.8 558,-230.8 558,-32.8 8,-32.8"/>
</g>
<g id="clust3" class="cluster">
<title>cluster_OfferModule_imports</title>
<polygon fill="none" stroke="black" points="296,-40.8 296,-92.8 550,-92.8 550,-40.8 296,-40.8"/>
</g>
<g id="clust4" class="cluster">
<title>cluster_OfferModule_exports</title>
<polygon fill="none" stroke="black" points="239,-170.8 239,-222.8 347,-222.8 347,-170.8 239,-170.8"/>
</g>
<g id="clust6" class="cluster">
<title>cluster_OfferModule_providers</title>
<polygon fill="none" stroke="black" points="16,-40.8 16,-92.8 288,-92.8 288,-40.8 16,-40.8"/>
</g>
<!-- CacheModule -->
<g id="node1" class="node">
<title>CacheModule</title>
<polygon fill="#8dd3c7" stroke="black" points="542.03,-84.8 539.03,-88.8 518.03,-88.8 515.03,-84.8 447.97,-84.8 447.97,-48.8 542.03,-48.8 542.03,-84.8"/>
<text text-anchor="middle" x="495" y="-62.6" font-family="Times,serif" font-size="14.00">CacheModule</text>
</g>
<!-- OfferModule -->
<g id="node3" class="node">
<title>OfferModule</title>
<polygon fill="#8dd3c7" stroke="black" points="337.85,-149.8 334.85,-153.8 313.85,-153.8 310.85,-149.8 248.15,-149.8 248.15,-113.8 337.85,-113.8 337.85,-149.8"/>
<text text-anchor="middle" x="293" y="-127.6" font-family="Times,serif" font-size="14.00">OfferModule</text>
</g>
<!-- CacheModule&#45;&gt;OfferModule -->
<g id="edge1" class="edge">
<title>CacheModule&#45;&gt;OfferModule</title>
<path fill="none" stroke="black" d="M495,-84.91C495,-104.14 495,-131.8 495,-131.8 495,-131.8 348.08,-131.8 348.08,-131.8"/>
<polygon fill="black" stroke="black" points="348.08,-128.3 338.08,-131.8 348.08,-135.3 348.08,-128.3"/>
</g>
<!-- TransactionModule -->
<g id="node2" class="node">
<title>TransactionModule</title>
<polygon fill="#8dd3c7" stroke="black" points="429.63,-84.8 426.63,-88.8 405.63,-88.8 402.63,-84.8 304.37,-84.8 304.37,-48.8 429.63,-48.8 429.63,-84.8"/>
<text text-anchor="middle" x="367" y="-62.6" font-family="Times,serif" font-size="14.00">TransactionModule</text>
</g>
<!-- TransactionModule&#45;&gt;OfferModule -->
<g id="edge2" class="edge">
<title>TransactionModule&#45;&gt;OfferModule</title>
<path fill="none" stroke="black" d="M321.06,-84.91C321.06,-84.91 321.06,-103.79 321.06,-103.79"/>
<polygon fill="black" stroke="black" points="317.56,-103.79 321.06,-113.79 324.56,-103.79 317.56,-103.79"/>
</g>
<!-- OfferService  -->
<g id="node4" class="node">
<title>OfferService </title>
<polygon fill="#fb8072" stroke="black" points="338.78,-214.8 247.22,-214.8 247.22,-178.8 338.78,-178.8 338.78,-214.8"/>
<text text-anchor="middle" x="293" y="-192.6" font-family="Times,serif" font-size="14.00">OfferService </text>
</g>
<!-- OfferModule&#45;&gt;OfferService  -->
<g id="edge3" class="edge">
<title>OfferModule&#45;&gt;OfferService </title>
<path fill="none" stroke="black" stroke-dasharray="5,2" d="M293,-149.91C293,-149.91 293,-168.79 293,-168.79"/>
<polygon fill="black" stroke="black" points="289.5,-168.79 293,-178.79 296.5,-168.79 289.5,-168.79"/>
</g>
<!-- OfferService -->
<g id="node5" class="node">
<title>OfferService</title>
<ellipse fill="#fdb462" stroke="black" cx="219" cy="-66.8" rx="60.79" ry="18"/>
<text text-anchor="middle" x="219" y="-62.6" font-family="Times,serif" font-size="14.00">OfferService</text>
</g>
<!-- OfferService&#45;&gt;OfferModule -->
<g id="edge4" class="edge">
<title>OfferService&#45;&gt;OfferModule</title>
<path fill="none" stroke="black" d="M263.98,-79.03C263.98,-79.03 263.98,-103.48 263.98,-103.48"/>
<polygon fill="black" stroke="black" points="260.48,-103.48 263.98,-113.48 267.48,-103.48 260.48,-103.48"/>
</g>
<!-- UserService -->
<g id="node6" class="node">
<title>UserService</title>
<ellipse fill="#fdb462" stroke="black" cx="82" cy="-66.8" rx="58.44" ry="18"/>
<text text-anchor="middle" x="82" y="-62.6" font-family="Times,serif" font-size="14.00">UserService</text>
</g>
<!-- UserService&#45;&gt;OfferModule -->
<g id="edge5" class="edge">
<title>UserService&#45;&gt;OfferModule</title>
<path fill="none" stroke="black" d="M82,-84.91C82,-104.14 82,-131.8 82,-131.8 82,-131.8 237.99,-131.8 237.99,-131.8"/>
<polygon fill="black" stroke="black" points="237.99,-135.3 247.99,-131.8 237.99,-128.3 237.99,-135.3"/>
</g>
</g>
</svg>
