<?xml version="1.0" encoding="UTF-8" standalone="no"?>
<!DOCTYPE svg PUBLIC "-//W3C//DTD SVG 1.1//EN"
 "http://www.w3.org/Graphics/SVG/1.1/DTD/svg11.dtd">
<!-- Generated by graphviz version 2.47.3 (20210619.1520)
 -->
<!-- Title: dependencies Pages: 1 -->
<svg width="726pt" height="247pt"
 viewBox="0.00 0.00 726.00 246.80" xmlns="http://www.w3.org/2000/svg" xmlns:xlink="http://www.w3.org/1999/xlink">
<g id="graph0" class="graph" transform="scale(1 1) rotate(0) translate(4 242.8)">
<title>dependencies</title>
<polygon fill="white" stroke="transparent" points="-4,4 -4,-242.8 722,-242.8 722,4 -4,4"/>
<text text-anchor="middle" x="359" y="-8.2" font-family="sans-serif" font-size="14.00">dependencies</text>
<g id="clust1" class="cluster">
<title>cluster_OfferModule</title>
<polygon fill="none" stroke="black" stroke-dasharray="1,5" points="8,-32.8 8,-230.8 710,-230.8 710,-32.8 8,-32.8"/>
</g>
<g id="clust6" class="cluster">
<title>cluster_OfferModule_providers</title>
<polygon fill="none" stroke="black" points="278,-40.8 278,-92.8 702,-92.8 702,-40.8 278,-40.8"/>
</g>
<g id="clust4" class="cluster">
<title>cluster_OfferModule_exports</title>
<polygon fill="none" stroke="black" points="290,-170.8 290,-222.8 398,-222.8 398,-170.8 290,-170.8"/>
</g>
<g id="clust3" class="cluster">
<title>cluster_OfferModule_imports</title>
<polygon fill="none" stroke="black" points="16,-40.8 16,-92.8 270,-92.8 270,-40.8 16,-40.8"/>
</g>
<!-- CacheModule -->
<g id="node1" class="node">
<title>CacheModule</title>
<polygon fill="#8dd3c7" stroke="black" points="262.03,-84.8 259.03,-88.8 238.03,-88.8 235.03,-84.8 167.97,-84.8 167.97,-48.8 262.03,-48.8 262.03,-84.8"/>
<text text-anchor="middle" x="215" y="-62.6" font-family="Times,serif" font-size="14.00">CacheModule</text>
</g>
<!-- OfferModule -->
<g id="node3" class="node">
<title>OfferModule</title>
<polygon fill="#8dd3c7" stroke="black" points="388.85,-149.8 385.85,-153.8 364.85,-153.8 361.85,-149.8 299.15,-149.8 299.15,-113.8 388.85,-113.8 388.85,-149.8"/>
<text text-anchor="middle" x="344" y="-127.6" font-family="Times,serif" font-size="14.00">OfferModule</text>
</g>
<!-- CacheModule&#45;&gt;OfferModule -->
<g id="edge1" class="edge">
<title>CacheModule&#45;&gt;OfferModule</title>
<path fill="none" stroke="black" d="M215,-84.82C215,-102.17 215,-125.8 215,-125.8 215,-125.8 288.88,-125.8 288.88,-125.8"/>
<polygon fill="black" stroke="black" points="288.88,-129.3 298.88,-125.8 288.88,-122.3 288.88,-129.3"/>
</g>
<!-- TransactionModule -->
<g id="node2" class="node">
<title>TransactionModule</title>
<polygon fill="#8dd3c7" stroke="black" points="149.63,-84.8 146.63,-88.8 125.63,-88.8 122.63,-84.8 24.37,-84.8 24.37,-48.8 149.63,-48.8 149.63,-84.8"/>
<text text-anchor="middle" x="87" y="-62.6" font-family="Times,serif" font-size="14.00">TransactionModule</text>
</g>
<!-- TransactionModule&#45;&gt;OfferModule -->
<g id="edge2" class="edge">
<title>TransactionModule&#45;&gt;OfferModule</title>
<path fill="none" stroke="black" d="M87,-85.08C87,-106.12 87,-137.8 87,-137.8 87,-137.8 288.94,-137.8 288.94,-137.8"/>
<polygon fill="black" stroke="black" points="288.94,-141.3 298.94,-137.8 288.94,-134.3 288.94,-141.3"/>
</g>
<!-- OfferService  -->
<g id="node4" class="node">
<title>OfferService </title>
<polygon fill="#fb8072" stroke="black" points="389.78,-214.8 298.22,-214.8 298.22,-178.8 389.78,-178.8 389.78,-214.8"/>
<text text-anchor="middle" x="344" y="-192.6" font-family="Times,serif" font-size="14.00">OfferService </text>
</g>
<!-- OfferModule&#45;&gt;OfferService  -->
<g id="edge3" class="edge">
<title>OfferModule&#45;&gt;OfferService </title>
<path fill="none" stroke="black" stroke-dasharray="5,2" d="M344,-149.91C344,-149.91 344,-168.79 344,-168.79"/>
<polygon fill="black" stroke="black" points="340.5,-168.79 344,-178.79 347.5,-168.79 340.5,-168.79"/>
</g>
<!-- OfferService -->
<g id="node5" class="node">
<title>OfferService</title>
<ellipse fill="#fdb462" stroke="black" cx="633" cy="-66.8" rx="60.79" ry="18"/>
<text text-anchor="middle" x="633" y="-62.6" font-family="Times,serif" font-size="14.00">OfferService</text>
</g>
<!-- OfferService&#45;&gt;OfferModule -->
<g id="edge4" class="edge">
<title>OfferService&#45;&gt;OfferModule</title>
<path fill="none" stroke="black" d="M633,-85.08C633,-106.12 633,-137.8 633,-137.8 633,-137.8 399.16,-137.8 399.16,-137.8"/>
<polygon fill="black" stroke="black" points="399.16,-134.3 389.16,-137.8 399.16,-141.3 399.16,-134.3"/>
</g>
<!-- PrismaService -->
<g id="node6" class="node">
<title>PrismaService</title>
<ellipse fill="#fdb462" stroke="black" cx="487" cy="-66.8" rx="66.63" ry="18"/>
<text text-anchor="middle" x="487" y="-62.6" font-family="Times,serif" font-size="14.00">PrismaService</text>
</g>
<!-- PrismaService&#45;&gt;OfferModule -->
<g id="edge5" class="edge">
<title>PrismaService&#45;&gt;OfferModule</title>
<path fill="none" stroke="black" d="M487,-84.82C487,-102.17 487,-125.8 487,-125.8 487,-125.8 398.85,-125.8 398.85,-125.8"/>
<polygon fill="black" stroke="black" points="398.85,-122.3 388.85,-125.8 398.85,-129.3 398.85,-122.3"/>
</g>
<!-- UserService -->
<g id="node7" class="node">
<title>UserService</title>
<ellipse fill="#fdb462" stroke="black" cx="344" cy="-66.8" rx="58.44" ry="18"/>
<text text-anchor="middle" x="344" y="-62.6" font-family="Times,serif" font-size="14.00">UserService</text>
</g>
<!-- UserService&#45;&gt;OfferModule -->
<g id="edge6" class="edge">
<title>UserService&#45;&gt;OfferModule</title>
<path fill="none" stroke="black" d="M344,-84.91C344,-84.91 344,-103.79 344,-103.79"/>
<polygon fill="black" stroke="black" points="340.5,-103.79 344,-113.79 347.5,-103.79 340.5,-103.79"/>
</g>
</g>
</svg>
