<?xml version="1.0" encoding="UTF-8" standalone="no"?>
<!DOCTYPE svg PUBLIC "-//W3C//DTD SVG 1.1//EN"
 "http://www.w3.org/Graphics/SVG/1.1/DTD/svg11.dtd">
<!-- Generated by graphviz version 2.47.3 (20210619.1520)
 -->
<!-- Title: dependencies Pages: 1 -->
<svg width="274pt" height="247pt"
 viewBox="0.00 0.00 274.00 246.80" xmlns="http://www.w3.org/2000/svg" xmlns:xlink="http://www.w3.org/1999/xlink">
<g id="graph0" class="graph" transform="scale(1 1) rotate(0) translate(4 242.8)">
<title>dependencies</title>
<polygon fill="white" stroke="transparent" points="-4,4 -4,-242.8 270,-242.8 270,4 -4,4"/>
<text text-anchor="middle" x="133" y="-8.2" font-family="sans-serif" font-size="14.00">dependencies</text>
<g id="clust1" class="cluster">
<title>cluster_AppTestModule</title>
<polygon fill="none" stroke="black" stroke-dasharray="1,5" points="8,-32.8 8,-230.8 258,-230.8 258,-32.8 8,-32.8"/>
</g>
<g id="clust4" class="cluster">
<title>cluster_AppTestModule_exports</title>
<polygon fill="none" stroke="black" points="16,-170.8 16,-222.8 250,-222.8 250,-170.8 16,-170.8"/>
</g>
<g id="clust3" class="cluster">
<title>cluster_AppTestModule_imports</title>
<polygon fill="none" stroke="black" points="20,-40.8 20,-92.8 246,-92.8 246,-40.8 20,-40.8"/>
</g>
<!-- CacheModule -->
<g id="node1" class="node">
<title>CacheModule</title>
<polygon fill="#8dd3c7" stroke="black" points="238.03,-84.8 235.03,-88.8 214.03,-88.8 211.03,-84.8 143.97,-84.8 143.97,-48.8 238.03,-48.8 238.03,-84.8"/>
<text text-anchor="middle" x="191" y="-62.6" font-family="Times,serif" font-size="14.00">CacheModule</text>
</g>
<!-- AppTestModule -->
<g id="node3" class="node">
<title>AppTestModule</title>
<polygon fill="#8dd3c7" stroke="black" points="131.76,-149.8 128.76,-153.8 107.76,-153.8 104.76,-149.8 24.24,-149.8 24.24,-113.8 131.76,-113.8 131.76,-149.8"/>
<text text-anchor="middle" x="78" y="-127.6" font-family="Times,serif" font-size="14.00">AppTestModule</text>
</g>
<!-- CacheModule&#45;&gt;AppTestModule -->
<g id="edge1" class="edge">
<title>CacheModule&#45;&gt;AppTestModule</title>
<path fill="none" stroke="black" d="M206.84,-84.82C206.84,-102.17 206.84,-125.8 206.84,-125.8 206.84,-125.8 141.89,-125.8 141.89,-125.8"/>
<polygon fill="black" stroke="black" points="141.89,-122.3 131.89,-125.8 141.89,-129.3 141.89,-122.3"/>
</g>
<!-- ConfigModule -->
<g id="node2" class="node">
<title>ConfigModule</title>
<polygon fill="#8dd3c7" stroke="black" points="126.44,-84.8 123.44,-88.8 102.44,-88.8 99.44,-84.8 27.56,-84.8 27.56,-48.8 126.44,-48.8 126.44,-84.8"/>
<text text-anchor="middle" x="77" y="-62.6" font-family="Times,serif" font-size="14.00">ConfigModule</text>
</g>
<!-- ConfigModule&#45;&gt;AppTestModule -->
<g id="edge2" class="edge">
<title>ConfigModule&#45;&gt;AppTestModule</title>
<path fill="none" stroke="black" d="M77,-84.91C77,-84.91 77,-103.79 77,-103.79"/>
<polygon fill="black" stroke="black" points="73.5,-103.79 77,-113.79 80.5,-103.79 73.5,-103.79"/>
</g>
<!-- CacheModule  -->
<g id="node4" class="node">
<title>CacheModule </title>
<polygon fill="#fb8072" stroke="black" points="242.03,-214.8 143.97,-214.8 143.97,-178.8 242.03,-178.8 242.03,-214.8"/>
<text text-anchor="middle" x="193" y="-192.6" font-family="Times,serif" font-size="14.00">CacheModule </text>
</g>
<!-- AppTestModule&#45;&gt;CacheModule  -->
<g id="edge3" class="edge">
<title>AppTestModule&#45;&gt;CacheModule </title>
<path fill="none" stroke="black" stroke-dasharray="5,2" d="M131.83,-137.8C154.36,-137.8 175.41,-137.8 175.41,-137.8 175.41,-137.8 175.41,-168.78 175.41,-168.78"/>
<polygon fill="black" stroke="black" points="171.91,-168.78 175.41,-178.78 178.91,-168.78 171.91,-168.78"/>
</g>
<!-- ConfigModule  -->
<g id="node5" class="node">
<title>ConfigModule </title>
<polygon fill="#fb8072" stroke="black" points="125.94,-214.8 24.06,-214.8 24.06,-178.8 125.94,-178.8 125.94,-214.8"/>
<text text-anchor="middle" x="75" y="-192.6" font-family="Times,serif" font-size="14.00">ConfigModule </text>
</g>
<!-- AppTestModule&#45;&gt;ConfigModule  -->
<g id="edge4" class="edge">
<title>AppTestModule&#45;&gt;ConfigModule </title>
<path fill="none" stroke="black" stroke-dasharray="5,2" d="M75.04,-149.91C75.04,-149.91 75.04,-168.79 75.04,-168.79"/>
<polygon fill="black" stroke="black" points="71.54,-168.79 75.04,-178.79 78.54,-168.79 71.54,-168.79"/>
</g>
</g>
</svg>
