<?xml version="1.0" encoding="UTF-8" standalone="no"?>
<!DOCTYPE svg PUBLIC "-//W3C//DTD SVG 1.1//EN"
 "http://www.w3.org/Graphics/SVG/1.1/DTD/svg11.dtd">
<!-- Generated by graphviz version 2.47.3 (20210619.1520)
 -->
<!-- Title: dependencies Pages: 1 -->
<svg width="717pt" height="247pt"
 viewBox="0.00 0.00 717.00 246.80" xmlns="http://www.w3.org/2000/svg" xmlns:xlink="http://www.w3.org/1999/xlink">
<g id="graph0" class="graph" transform="scale(1 1) rotate(0) translate(4 242.8)">
<title>dependencies</title>
<polygon fill="white" stroke="transparent" points="-4,4 -4,-242.8 713,-242.8 713,4 -4,4"/>
<text text-anchor="middle" x="354.5" y="-8.2" font-family="sans-serif" font-size="14.00">dependencies</text>
<g id="clust1" class="cluster">
<title>cluster_CartModule</title>
<polygon fill="none" stroke="black" stroke-dasharray="1,5" points="8,-32.8 8,-230.8 701,-230.8 701,-32.8 8,-32.8"/>
</g>
<g id="clust3" class="cluster">
<title>cluster_CartModule_imports</title>
<polygon fill="none" stroke="black" points="439,-40.8 439,-92.8 693,-92.8 693,-40.8 439,-40.8"/>
</g>
<g id="clust4" class="cluster">
<title>cluster_CartModule_exports</title>
<polygon fill="none" stroke="black" points="315,-170.8 315,-222.8 417,-222.8 417,-170.8 315,-170.8"/>
</g>
<g id="clust6" class="cluster">
<title>cluster_CartModule_providers</title>
<polygon fill="none" stroke="black" points="16,-40.8 16,-92.8 431,-92.8 431,-40.8 16,-40.8"/>
</g>
<!-- CacheModule -->
<g id="node1" class="node">
<title>CacheModule</title>
<polygon fill="#8dd3c7" stroke="black" points="685.03,-84.8 682.03,-88.8 661.03,-88.8 658.03,-84.8 590.97,-84.8 590.97,-48.8 685.03,-48.8 685.03,-84.8"/>
<text text-anchor="middle" x="638" y="-62.6" font-family="Times,serif" font-size="14.00">CacheModule</text>
</g>
<!-- CartModule -->
<g id="node3" class="node">
<title>CartModule</title>
<polygon fill="#8dd3c7" stroke="black" points="407.65,-149.8 404.65,-153.8 383.65,-153.8 380.65,-149.8 324.35,-149.8 324.35,-113.8 407.65,-113.8 407.65,-149.8"/>
<text text-anchor="middle" x="366" y="-127.6" font-family="Times,serif" font-size="14.00">CartModule</text>
</g>
<!-- CacheModule&#45;&gt;CartModule -->
<g id="edge1" class="edge">
<title>CacheModule&#45;&gt;CartModule</title>
<path fill="none" stroke="black" d="M638,-85.08C638,-106.12 638,-137.8 638,-137.8 638,-137.8 417.9,-137.8 417.9,-137.8"/>
<polygon fill="black" stroke="black" points="417.9,-134.3 407.9,-137.8 417.9,-141.3 417.9,-134.3"/>
</g>
<!-- TransactionModule -->
<g id="node2" class="node">
<title>TransactionModule</title>
<polygon fill="#8dd3c7" stroke="black" points="572.63,-84.8 569.63,-88.8 548.63,-88.8 545.63,-84.8 447.37,-84.8 447.37,-48.8 572.63,-48.8 572.63,-84.8"/>
<text text-anchor="middle" x="510" y="-62.6" font-family="Times,serif" font-size="14.00">TransactionModule</text>
</g>
<!-- TransactionModule&#45;&gt;CartModule -->
<g id="edge2" class="edge">
<title>TransactionModule&#45;&gt;CartModule</title>
<path fill="none" stroke="black" d="M510,-84.82C510,-102.17 510,-125.8 510,-125.8 510,-125.8 418.04,-125.8 418.04,-125.8"/>
<polygon fill="black" stroke="black" points="418.04,-122.3 408.04,-125.8 418.04,-129.3 418.04,-122.3"/>
</g>
<!-- CartService  -->
<g id="node4" class="node">
<title>CartService </title>
<polygon fill="#fb8072" stroke="black" points="408.58,-214.8 323.42,-214.8 323.42,-178.8 408.58,-178.8 408.58,-214.8"/>
<text text-anchor="middle" x="366" y="-192.6" font-family="Times,serif" font-size="14.00">CartService </text>
</g>
<!-- CartModule&#45;&gt;CartService  -->
<g id="edge3" class="edge">
<title>CartModule&#45;&gt;CartService </title>
<path fill="none" stroke="black" stroke-dasharray="5,2" d="M366,-149.91C366,-149.91 366,-168.79 366,-168.79"/>
<polygon fill="black" stroke="black" points="362.5,-168.79 366,-178.79 369.5,-168.79 362.5,-168.79"/>
</g>
<!-- CartService -->
<g id="node5" class="node">
<title>CartService</title>
<ellipse fill="#fdb462" stroke="black" cx="366" cy="-66.8" rx="56.73" ry="18"/>
<text text-anchor="middle" x="366" y="-62.6" font-family="Times,serif" font-size="14.00">CartService</text>
</g>
<!-- CartService&#45;&gt;CartModule -->
<g id="edge4" class="edge">
<title>CartService&#45;&gt;CartModule</title>
<path fill="none" stroke="black" d="M366,-84.91C366,-84.91 366,-103.79 366,-103.79"/>
<polygon fill="black" stroke="black" points="362.5,-103.79 366,-113.79 369.5,-103.79 362.5,-103.79"/>
</g>
<!-- PrismaService -->
<g id="node6" class="node">
<title>PrismaService</title>
<ellipse fill="#fdb462" stroke="black" cx="225" cy="-66.8" rx="66.63" ry="18"/>
<text text-anchor="middle" x="225" y="-62.6" font-family="Times,serif" font-size="14.00">PrismaService</text>
</g>
<!-- PrismaService&#45;&gt;CartModule -->
<g id="edge5" class="edge">
<title>PrismaService&#45;&gt;CartModule</title>
<path fill="none" stroke="black" d="M225,-84.82C225,-102.17 225,-125.8 225,-125.8 225,-125.8 314.08,-125.8 314.08,-125.8"/>
<polygon fill="black" stroke="black" points="314.08,-129.3 324.08,-125.8 314.08,-122.3 314.08,-129.3"/>
</g>
<!-- UserService -->
<g id="node7" class="node">
<title>UserService</title>
<ellipse fill="#fdb462" stroke="black" cx="82" cy="-66.8" rx="58.44" ry="18"/>
<text text-anchor="middle" x="82" y="-62.6" font-family="Times,serif" font-size="14.00">UserService</text>
</g>
<!-- UserService&#45;&gt;CartModule -->
<g id="edge6" class="edge">
<title>UserService&#45;&gt;CartModule</title>
<path fill="none" stroke="black" d="M82,-85.08C82,-106.12 82,-137.8 82,-137.8 82,-137.8 314.09,-137.8 314.09,-137.8"/>
<polygon fill="black" stroke="black" points="314.09,-141.3 324.09,-137.8 314.09,-134.3 314.09,-141.3"/>
</g>
</g>
</svg>
