<?xml version="1.0" encoding="UTF-8" standalone="no"?>
<!DOCTYPE svg PUBLIC "-//W3C//DTD SVG 1.1//EN"
 "http://www.w3.org/Graphics/SVG/1.1/DTD/svg11.dtd">
<!-- Generated by graphviz version 2.47.3 (20210619.1520)
 -->
<!-- Title: dependencies Pages: 1 -->
<svg width="172pt" height="247pt"
 viewBox="0.00 0.00 172.00 246.80" xmlns="http://www.w3.org/2000/svg" xmlns:xlink="http://www.w3.org/1999/xlink">
<g id="graph0" class="graph" transform="scale(1 1) rotate(0) translate(4 242.8)">
<title>dependencies</title>
<polygon fill="white" stroke="transparent" points="-4,4 -4,-242.8 168,-242.8 168,4 -4,4"/>
<text text-anchor="middle" x="82" y="-8.2" font-family="sans-serif" font-size="14.00">dependencies</text>
<g id="clust1" class="cluster">
<title>cluster_UserModule</title>
<polygon fill="none" stroke="black" stroke-dasharray="1,5" points="8,-32.8 8,-230.8 156,-230.8 156,-32.8 8,-32.8"/>
</g>
<g id="clust6" class="cluster">
<title>cluster_UserModule_providers</title>
<polygon fill="none" stroke="black" points="16,-40.8 16,-92.8 148,-92.8 148,-40.8 16,-40.8"/>
</g>
<g id="clust4" class="cluster">
<title>cluster_UserModule_exports</title>
<polygon fill="none" stroke="black" points="30,-170.8 30,-222.8 134,-222.8 134,-170.8 30,-170.8"/>
</g>
<!-- UserService  -->
<g id="node1" class="node">
<title>UserService </title>
<polygon fill="#fb8072" stroke="black" points="125.9,-214.8 38.1,-214.8 38.1,-178.8 125.9,-178.8 125.9,-214.8"/>
<text text-anchor="middle" x="82" y="-192.6" font-family="Times,serif" font-size="14.00">UserService </text>
</g>
<!-- UserModule -->
<g id="node2" class="node">
<title>UserModule</title>
<polygon fill="#8dd3c7" stroke="black" points="124.98,-149.8 121.98,-153.8 100.98,-153.8 97.98,-149.8 39.02,-149.8 39.02,-113.8 124.98,-113.8 124.98,-149.8"/>
<text text-anchor="middle" x="82" y="-127.6" font-family="Times,serif" font-size="14.00">UserModule</text>
</g>
<!-- UserModule&#45;&gt;UserService  -->
<g id="edge1" class="edge">
<title>UserModule&#45;&gt;UserService </title>
<path fill="none" stroke="black" stroke-dasharray="5,2" d="M82,-149.91C82,-149.91 82,-168.79 82,-168.79"/>
<polygon fill="black" stroke="black" points="78.5,-168.79 82,-178.79 85.5,-168.79 78.5,-168.79"/>
</g>
<!-- UserService -->
<g id="node3" class="node">
<title>UserService</title>
<ellipse fill="#fdb462" stroke="black" cx="82" cy="-66.8" rx="58.44" ry="18"/>
<text text-anchor="middle" x="82" y="-62.6" font-family="Times,serif" font-size="14.00">UserService</text>
</g>
<!-- UserService&#45;&gt;UserModule -->
<g id="edge2" class="edge">
<title>UserService&#45;&gt;UserModule</title>
<path fill="none" stroke="black" d="M82,-84.91C82,-84.91 82,-103.79 82,-103.79"/>
<polygon fill="black" stroke="black" points="78.5,-103.79 82,-113.79 85.5,-103.79 78.5,-103.79"/>
</g>
</g>
</svg>
