<?xml version="1.0" encoding="UTF-8" standalone="no"?>
<!DOCTYPE svg PUBLIC "-//W3C//DTD SVG 1.1//EN"
 "http://www.w3.org/Graphics/SVG/1.1/DTD/svg11.dtd">
<!-- Generated by graphviz version 2.47.3 (20210619.1520)
 -->
<!-- Title: dependencies Pages: 1 -->
<svg width="436pt" height="247pt"
 viewBox="0.00 0.00 436.00 246.80" xmlns="http://www.w3.org/2000/svg" xmlns:xlink="http://www.w3.org/1999/xlink">
<g id="graph0" class="graph" transform="scale(1 1) rotate(0) translate(4 242.8)">
<title>dependencies</title>
<polygon fill="white" stroke="transparent" points="-4,4 -4,-242.8 432,-242.8 432,4 -4,4"/>
<text text-anchor="middle" x="214" y="-8.2" font-family="sans-serif" font-size="14.00">dependencies</text>
<g id="clust1" class="cluster">
<title>cluster_TagModule</title>
<polygon fill="none" stroke="black" stroke-dasharray="1,5" points="8,-32.8 8,-230.8 420,-230.8 420,-32.8 8,-32.8"/>
</g>
<g id="clust6" class="cluster">
<title>cluster_TagModule_providers</title>
<polygon fill="none" stroke="black" points="134,-40.8 134,-92.8 412,-92.8 412,-40.8 134,-40.8"/>
</g>
<g id="clust4" class="cluster">
<title>cluster_TagModule_exports</title>
<polygon fill="none" stroke="black" points="147,-170.8 147,-222.8 247,-222.8 247,-170.8 147,-170.8"/>
</g>
<g id="clust3" class="cluster">
<title>cluster_TagModule_imports</title>
<polygon fill="none" stroke="black" points="16,-40.8 16,-92.8 126,-92.8 126,-40.8 16,-40.8"/>
</g>
<!-- CacheModule -->
<g id="node1" class="node">
<title>CacheModule</title>
<polygon fill="#8dd3c7" stroke="black" points="118.03,-84.8 115.03,-88.8 94.03,-88.8 91.03,-84.8 23.97,-84.8 23.97,-48.8 118.03,-48.8 118.03,-84.8"/>
<text text-anchor="middle" x="71" y="-62.6" font-family="Times,serif" font-size="14.00">CacheModule</text>
</g>
<!-- TagModule -->
<g id="node2" class="node">
<title>TagModule</title>
<polygon fill="#8dd3c7" stroke="black" points="237.82,-149.8 234.82,-153.8 213.82,-153.8 210.82,-149.8 156.18,-149.8 156.18,-113.8 237.82,-113.8 237.82,-149.8"/>
<text text-anchor="middle" x="197" y="-127.6" font-family="Times,serif" font-size="14.00">TagModule</text>
</g>
<!-- CacheModule&#45;&gt;TagModule -->
<g id="edge1" class="edge">
<title>CacheModule&#45;&gt;TagModule</title>
<path fill="none" stroke="black" d="M71,-84.91C71,-104.14 71,-131.8 71,-131.8 71,-131.8 146.09,-131.8 146.09,-131.8"/>
<polygon fill="black" stroke="black" points="146.09,-135.3 156.09,-131.8 146.09,-128.3 146.09,-135.3"/>
</g>
<!-- TagService  -->
<g id="node3" class="node">
<title>TagService </title>
<polygon fill="#fb8072" stroke="black" points="238.75,-214.8 155.25,-214.8 155.25,-178.8 238.75,-178.8 238.75,-214.8"/>
<text text-anchor="middle" x="197" y="-192.6" font-family="Times,serif" font-size="14.00">TagService </text>
</g>
<!-- TagModule&#45;&gt;TagService  -->
<g id="edge2" class="edge">
<title>TagModule&#45;&gt;TagService </title>
<path fill="none" stroke="black" stroke-dasharray="5,2" d="M197,-149.91C197,-149.91 197,-168.79 197,-168.79"/>
<polygon fill="black" stroke="black" points="193.5,-168.79 197,-178.79 200.5,-168.79 193.5,-168.79"/>
</g>
<!-- PrismaService -->
<g id="node4" class="node">
<title>PrismaService</title>
<ellipse fill="#fdb462" stroke="black" cx="337" cy="-66.8" rx="66.63" ry="18"/>
<text text-anchor="middle" x="337" y="-62.6" font-family="Times,serif" font-size="14.00">PrismaService</text>
</g>
<!-- PrismaService&#45;&gt;TagModule -->
<g id="edge3" class="edge">
<title>PrismaService&#45;&gt;TagModule</title>
<path fill="none" stroke="black" d="M337,-84.91C337,-104.14 337,-131.8 337,-131.8 337,-131.8 247.87,-131.8 247.87,-131.8"/>
<polygon fill="black" stroke="black" points="247.87,-128.3 237.87,-131.8 247.87,-135.3 247.87,-128.3"/>
</g>
<!-- TagService -->
<g id="node5" class="node">
<title>TagService</title>
<ellipse fill="#fdb462" stroke="black" cx="197" cy="-66.8" rx="55.01" ry="18"/>
<text text-anchor="middle" x="197" y="-62.6" font-family="Times,serif" font-size="14.00">TagService</text>
</g>
<!-- TagService&#45;&gt;TagModule -->
<g id="edge4" class="edge">
<title>TagService&#45;&gt;TagModule</title>
<path fill="none" stroke="black" d="M197,-84.91C197,-84.91 197,-103.79 197,-103.79"/>
<polygon fill="black" stroke="black" points="193.5,-103.79 197,-113.79 200.5,-103.79 193.5,-103.79"/>
</g>
</g>
</svg>
