<?xml version="1.0" encoding="UTF-8" standalone="no"?>
<!DOCTYPE svg PUBLIC "-//W3C//DTD SVG 1.1//EN"
 "http://www.w3.org/Graphics/SVG/1.1/DTD/svg11.dtd">
<!-- Generated by graphviz version 2.47.3 (20210619.1520)
 -->
<!-- Title: dependencies Pages: 1 -->
<svg width="284pt" height="247pt"
 viewBox="0.00 0.00 284.00 246.80" xmlns="http://www.w3.org/2000/svg" xmlns:xlink="http://www.w3.org/1999/xlink">
<g id="graph0" class="graph" transform="scale(1 1) rotate(0) translate(4 242.8)">
<title>dependencies</title>
<polygon fill="white" stroke="transparent" points="-4,4 -4,-242.8 280,-242.8 280,4 -4,4"/>
<text text-anchor="middle" x="138" y="-8.2" font-family="sans-serif" font-size="14.00">dependencies</text>
<g id="clust1" class="cluster">
<title>cluster_TagModule</title>
<polygon fill="none" stroke="black" stroke-dasharray="1,5" points="8,-32.8 8,-230.8 268,-230.8 268,-32.8 8,-32.8"/>
</g>
<g id="clust4" class="cluster">
<title>cluster_TagModule_exports</title>
<polygon fill="none" stroke="black" points="84,-170.8 84,-222.8 184,-222.8 184,-170.8 84,-170.8"/>
</g>
<g id="clust6" class="cluster">
<title>cluster_TagModule_providers</title>
<polygon fill="none" stroke="black" points="134,-40.8 134,-92.8 260,-92.8 260,-40.8 134,-40.8"/>
</g>
<g id="clust3" class="cluster">
<title>cluster_TagModule_imports</title>
<polygon fill="none" stroke="black" points="16,-40.8 16,-92.8 126,-92.8 126,-40.8 16,-40.8"/>
</g>
<!-- CacheModule -->
<g id="node1" class="node">
<title>CacheModule</title>
<polygon fill="#8dd3c7" stroke="black" points="118.03,-84.8 115.03,-88.8 94.03,-88.8 91.03,-84.8 23.97,-84.8 23.97,-48.8 118.03,-48.8 118.03,-84.8"/>
<text text-anchor="middle" x="71" y="-62.6" font-family="Times,serif" font-size="14.00">CacheModule</text>
</g>
<!-- TagModule -->
<g id="node2" class="node">
<title>TagModule</title>
<polygon fill="#8dd3c7" stroke="black" points="174.82,-149.8 171.82,-153.8 150.82,-153.8 147.82,-149.8 93.18,-149.8 93.18,-113.8 174.82,-113.8 174.82,-149.8"/>
<text text-anchor="middle" x="134" y="-127.6" font-family="Times,serif" font-size="14.00">TagModule</text>
</g>
<!-- CacheModule&#45;&gt;TagModule -->
<g id="edge1" class="edge">
<title>CacheModule&#45;&gt;TagModule</title>
<path fill="none" stroke="black" d="M105.8,-84.91C105.8,-84.91 105.8,-103.79 105.8,-103.79"/>
<polygon fill="black" stroke="black" points="102.3,-103.79 105.8,-113.79 109.3,-103.79 102.3,-103.79"/>
</g>
<!-- TagService  -->
<g id="node3" class="node">
<title>TagService </title>
<polygon fill="#fb8072" stroke="black" points="175.75,-214.8 92.25,-214.8 92.25,-178.8 175.75,-178.8 175.75,-214.8"/>
<text text-anchor="middle" x="134" y="-192.6" font-family="Times,serif" font-size="14.00">TagService </text>
</g>
<!-- TagModule&#45;&gt;TagService  -->
<g id="edge2" class="edge">
<title>TagModule&#45;&gt;TagService </title>
<path fill="none" stroke="black" stroke-dasharray="5,2" d="M134,-149.91C134,-149.91 134,-168.79 134,-168.79"/>
<polygon fill="black" stroke="black" points="130.5,-168.79 134,-178.79 137.5,-168.79 130.5,-168.79"/>
</g>
<!-- TagService -->
<g id="node4" class="node">
<title>TagService</title>
<ellipse fill="#fdb462" stroke="black" cx="197" cy="-66.8" rx="55.01" ry="18"/>
<text text-anchor="middle" x="197" y="-62.6" font-family="Times,serif" font-size="14.00">TagService</text>
</g>
<!-- TagService&#45;&gt;TagModule -->
<g id="edge3" class="edge">
<title>TagService&#45;&gt;TagModule</title>
<path fill="none" stroke="black" d="M158.33,-79.64C158.33,-79.64 158.33,-103.32 158.33,-103.32"/>
<polygon fill="black" stroke="black" points="154.83,-103.32 158.33,-113.32 161.83,-103.32 154.83,-103.32"/>
</g>
</g>
</svg>
