<?xml version="1.0" encoding="UTF-8" standalone="no"?>
<!DOCTYPE svg PUBLIC "-//W3C//DTD SVG 1.1//EN"
 "http://www.w3.org/Graphics/SVG/1.1/DTD/svg11.dtd">
<!-- Generated by graphviz version 2.47.3 (20210619.1520)
 -->
<!-- Title: dependencies Pages: 1 -->
<svg width="657pt" height="247pt"
 viewBox="0.00 0.00 657.00 246.80" xmlns="http://www.w3.org/2000/svg" xmlns:xlink="http://www.w3.org/1999/xlink">
<g id="graph0" class="graph" transform="scale(1 1) rotate(0) translate(4 242.8)">
<title>dependencies</title>
<polygon fill="white" stroke="transparent" points="-4,4 -4,-242.8 653,-242.8 653,4 -4,4"/>
<text text-anchor="middle" x="324.5" y="-8.2" font-family="sans-serif" font-size="14.00">dependencies</text>
<g id="clust1" class="cluster">
<title>cluster_NotificationModule</title>
<polygon fill="none" stroke="black" stroke-dasharray="1,5" points="8,-32.8 8,-230.8 641,-230.8 641,-32.8 8,-32.8"/>
</g>
<g id="clust3" class="cluster">
<title>cluster_NotificationModule_imports</title>
<polygon fill="none" stroke="black" points="214,-40.8 214,-92.8 633,-92.8 633,-40.8 214,-40.8"/>
</g>
<g id="clust6" class="cluster">
<title>cluster_NotificationModule_providers</title>
<polygon fill="none" stroke="black" points="16,-40.8 16,-92.8 206,-92.8 206,-40.8 16,-40.8"/>
</g>
<g id="clust4" class="cluster">
<title>cluster_NotificationModule_exports</title>
<polygon fill="none" stroke="black" points="291,-170.8 291,-222.8 437,-222.8 437,-170.8 291,-170.8"/>
</g>
<!-- AWSModule -->
<g id="node1" class="node">
<title>AWSModule</title>
<polygon fill="#8dd3c7" stroke="black" points="625.15,-84.8 622.15,-88.8 601.15,-88.8 598.15,-84.8 534.85,-84.8 534.85,-48.8 625.15,-48.8 625.15,-84.8"/>
<text text-anchor="middle" x="580" y="-62.6" font-family="Times,serif" font-size="14.00">AWSModule</text>
</g>
<!-- NotificationModule -->
<g id="node5" class="node">
<title>NotificationModule</title>
<polygon fill="#8dd3c7" stroke="black" points="427.7,-149.8 424.7,-153.8 403.7,-153.8 400.7,-149.8 300.3,-149.8 300.3,-113.8 427.7,-113.8 427.7,-149.8"/>
<text text-anchor="middle" x="364" y="-127.6" font-family="Times,serif" font-size="14.00">NotificationModule</text>
</g>
<!-- AWSModule&#45;&gt;NotificationModule -->
<g id="edge1" class="edge">
<title>AWSModule&#45;&gt;NotificationModule</title>
<path fill="none" stroke="black" d="M580,-84.91C580,-104.14 580,-131.8 580,-131.8 580,-131.8 437.64,-131.8 437.64,-131.8"/>
<polygon fill="black" stroke="black" points="437.64,-128.3 427.64,-131.8 437.64,-135.3 437.64,-128.3"/>
</g>
<!-- AuthModule -->
<g id="node2" class="node">
<title>AuthModule</title>
<polygon fill="#8dd3c7" stroke="black" points="516.55,-84.8 513.55,-88.8 492.55,-88.8 489.55,-84.8 429.45,-84.8 429.45,-48.8 516.55,-48.8 516.55,-84.8"/>
<text text-anchor="middle" x="473" y="-62.6" font-family="Times,serif" font-size="14.00">AuthModule</text>
</g>
<!-- AuthModule&#45;&gt;NotificationModule -->
<g id="edge2" class="edge">
<title>AuthModule&#45;&gt;NotificationModule</title>
<path fill="none" stroke="black" d="M429.26,-66.8C423.44,-66.8 419.43,-66.8 419.43,-66.8 419.43,-66.8 419.43,-103.69 419.43,-103.69"/>
<polygon fill="black" stroke="black" points="415.93,-103.69 419.43,-113.69 422.93,-103.69 415.93,-103.69"/>
</g>
<!-- CacheModule -->
<g id="node3" class="node">
<title>CacheModule</title>
<polygon fill="#8dd3c7" stroke="black" points="411.03,-84.8 408.03,-88.8 387.03,-88.8 384.03,-84.8 316.97,-84.8 316.97,-48.8 411.03,-48.8 411.03,-84.8"/>
<text text-anchor="middle" x="364" y="-62.6" font-family="Times,serif" font-size="14.00">CacheModule</text>
</g>
<!-- CacheModule&#45;&gt;NotificationModule -->
<g id="edge3" class="edge">
<title>CacheModule&#45;&gt;NotificationModule</title>
<path fill="none" stroke="black" d="M364,-84.91C364,-84.91 364,-103.79 364,-103.79"/>
<polygon fill="black" stroke="black" points="360.5,-103.79 364,-113.79 367.5,-103.79 360.5,-103.79"/>
</g>
<!-- DbModule -->
<g id="node4" class="node">
<title>DbModule</title>
<polygon fill="#8dd3c7" stroke="black" points="298.16,-84.8 295.16,-88.8 274.16,-88.8 271.16,-84.8 221.84,-84.8 221.84,-48.8 298.16,-48.8 298.16,-84.8"/>
<text text-anchor="middle" x="260" y="-62.6" font-family="Times,serif" font-size="14.00">DbModule</text>
</g>
<!-- DbModule&#45;&gt;NotificationModule -->
<g id="edge4" class="edge">
<title>DbModule&#45;&gt;NotificationModule</title>
<path fill="none" stroke="black" d="M298.27,-66.8C304.29,-66.8 308.57,-66.8 308.57,-66.8 308.57,-66.8 308.57,-103.69 308.57,-103.69"/>
<polygon fill="black" stroke="black" points="305.07,-103.69 308.57,-113.69 312.07,-103.69 305.07,-103.69"/>
</g>
<!-- NotificationService  -->
<g id="node6" class="node">
<title>NotificationService </title>
<polygon fill="#fb8072" stroke="black" points="428.63,-214.8 299.37,-214.8 299.37,-178.8 428.63,-178.8 428.63,-214.8"/>
<text text-anchor="middle" x="364" y="-192.6" font-family="Times,serif" font-size="14.00">NotificationService </text>
</g>
<!-- NotificationModule&#45;&gt;NotificationService  -->
<g id="edge5" class="edge">
<title>NotificationModule&#45;&gt;NotificationService </title>
<path fill="none" stroke="black" stroke-dasharray="5,2" d="M364,-149.91C364,-149.91 364,-168.79 364,-168.79"/>
<polygon fill="black" stroke="black" points="360.5,-168.79 364,-178.79 367.5,-168.79 360.5,-168.79"/>
</g>
<!-- NotificationService -->
<g id="node7" class="node">
<title>NotificationService</title>
<ellipse fill="#fdb462" stroke="black" cx="111" cy="-66.8" rx="86.81" ry="18"/>
<text text-anchor="middle" x="111" y="-62.6" font-family="Times,serif" font-size="14.00">NotificationService</text>
</g>
<!-- NotificationService&#45;&gt;NotificationModule -->
<g id="edge6" class="edge">
<title>NotificationService&#45;&gt;NotificationModule</title>
<path fill="none" stroke="black" d="M111,-84.91C111,-104.14 111,-131.8 111,-131.8 111,-131.8 290.16,-131.8 290.16,-131.8"/>
<polygon fill="black" stroke="black" points="290.16,-135.3 300.16,-131.8 290.16,-128.3 290.16,-135.3"/>
</g>
</g>
</svg>
