<?xml version="1.0" encoding="UTF-8" standalone="no"?>
<!DOCTYPE svg PUBLIC "-//W3C//DTD SVG 1.1//EN"
 "http://www.w3.org/Graphics/SVG/1.1/DTD/svg11.dtd">
<!-- Generated by graphviz version 2.47.3 (20210619.1520)
 -->
<!-- Title: dependencies Pages: 1 -->
<svg width="324pt" height="247pt"
 viewBox="0.00 0.00 324.00 246.80" xmlns="http://www.w3.org/2000/svg" xmlns:xlink="http://www.w3.org/1999/xlink">
<g id="graph0" class="graph" transform="scale(1 1) rotate(0) translate(4 242.8)">
<title>dependencies</title>
<polygon fill="white" stroke="transparent" points="-4,4 -4,-242.8 320,-242.8 320,4 -4,4"/>
<text text-anchor="middle" x="158" y="-8.2" font-family="sans-serif" font-size="14.00">dependencies</text>
<g id="clust1" class="cluster">
<title>cluster_CategoryModule</title>
<polygon fill="none" stroke="black" stroke-dasharray="1,5" points="8,-32.8 8,-230.8 308,-230.8 308,-32.8 8,-32.8"/>
</g>
<g id="clust4" class="cluster">
<title>cluster_CategoryModule_exports</title>
<polygon fill="none" stroke="black" points="103,-170.8 103,-222.8 231,-222.8 231,-170.8 103,-170.8"/>
</g>
<g id="clust3" class="cluster">
<title>cluster_CategoryModule_imports</title>
<polygon fill="none" stroke="black" points="190,-40.8 190,-92.8 300,-92.8 300,-40.8 190,-40.8"/>
</g>
<g id="clust6" class="cluster">
<title>cluster_CategoryModule_providers</title>
<polygon fill="none" stroke="black" points="16,-40.8 16,-92.8 182,-92.8 182,-40.8 16,-40.8"/>
</g>
<!-- CacheModule -->
<g id="node1" class="node">
<title>CacheModule</title>
<polygon fill="#8dd3c7" stroke="black" points="292.03,-84.8 289.03,-88.8 268.03,-88.8 265.03,-84.8 197.97,-84.8 197.97,-48.8 292.03,-48.8 292.03,-84.8"/>
<text text-anchor="middle" x="245" y="-62.6" font-family="Times,serif" font-size="14.00">CacheModule</text>
</g>
<!-- CategoryModule -->
<g id="node2" class="node">
<title>CategoryModule</title>
<polygon fill="#8dd3c7" stroke="black" points="222.37,-149.8 219.37,-153.8 198.37,-153.8 195.37,-149.8 111.63,-149.8 111.63,-113.8 222.37,-113.8 222.37,-149.8"/>
<text text-anchor="middle" x="167" y="-127.6" font-family="Times,serif" font-size="14.00">CategoryModule</text>
</g>
<!-- CacheModule&#45;&gt;CategoryModule -->
<g id="edge1" class="edge">
<title>CacheModule&#45;&gt;CategoryModule</title>
<path fill="none" stroke="black" d="M210.08,-84.91C210.08,-84.91 210.08,-103.79 210.08,-103.79"/>
<polygon fill="black" stroke="black" points="206.58,-103.79 210.08,-113.79 213.58,-103.79 206.58,-103.79"/>
</g>
<!-- CategoryService  -->
<g id="node3" class="node">
<title>CategoryService </title>
<polygon fill="#fb8072" stroke="black" points="223.29,-214.8 110.71,-214.8 110.71,-178.8 223.29,-178.8 223.29,-214.8"/>
<text text-anchor="middle" x="167" y="-192.6" font-family="Times,serif" font-size="14.00">CategoryService </text>
</g>
<!-- CategoryModule&#45;&gt;CategoryService  -->
<g id="edge2" class="edge">
<title>CategoryModule&#45;&gt;CategoryService </title>
<path fill="none" stroke="black" stroke-dasharray="5,2" d="M167,-149.91C167,-149.91 167,-168.79 167,-168.79"/>
<polygon fill="black" stroke="black" points="163.5,-168.79 167,-178.79 170.5,-168.79 163.5,-168.79"/>
</g>
<!-- CategoryService -->
<g id="node4" class="node">
<title>CategoryService</title>
<ellipse fill="#fdb462" stroke="black" cx="99" cy="-66.8" rx="75.28" ry="18"/>
<text text-anchor="middle" x="99" y="-62.6" font-family="Times,serif" font-size="14.00">CategoryService</text>
</g>
<!-- CategoryService&#45;&gt;CategoryModule -->
<g id="edge3" class="edge">
<title>CategoryService&#45;&gt;CategoryModule</title>
<path fill="none" stroke="black" d="M142.98,-81.55C142.98,-81.55 142.98,-103.39 142.98,-103.39"/>
<polygon fill="black" stroke="black" points="139.48,-103.39 142.98,-113.39 146.48,-103.39 139.48,-103.39"/>
</g>
</g>
</svg>
