<?xml version="1.0" encoding="UTF-8" standalone="no"?>
<!DOCTYPE svg PUBLIC "-//W3C//DTD SVG 1.1//EN"
 "http://www.w3.org/Graphics/SVG/1.1/DTD/svg11.dtd">
<!-- Generated by graphviz version 2.47.3 (20210619.1520)
 -->
<!-- Title: dependencies Pages: 1 -->
<svg width="1028pt" height="247pt"
 viewBox="0.00 0.00 1028.00 246.80" xmlns="http://www.w3.org/2000/svg" xmlns:xlink="http://www.w3.org/1999/xlink">
<g id="graph0" class="graph" transform="scale(1 1) rotate(0) translate(4 242.8)">
<title>dependencies</title>
<polygon fill="white" stroke="transparent" points="-4,4 -4,-242.8 1024,-242.8 1024,4 -4,4"/>
<text text-anchor="middle" x="510" y="-8.2" font-family="sans-serif" font-size="14.00">dependencies</text>
<g id="clust1" class="cluster">
<title>cluster_AuthModule</title>
<polygon fill="none" stroke="black" stroke-dasharray="1,5" points="8,-32.8 8,-230.8 1012,-230.8 1012,-32.8 8,-32.8"/>
</g>
<g id="clust6" class="cluster">
<title>cluster_AuthModule_providers</title>
<polygon fill="none" stroke="black" points="238,-40.8 238,-92.8 1004,-92.8 1004,-40.8 238,-40.8"/>
</g>
<g id="clust3" class="cluster">
<title>cluster_AuthModule_imports</title>
<polygon fill="none" stroke="black" points="16,-40.8 16,-92.8 230,-92.8 230,-40.8 16,-40.8"/>
</g>
<g id="clust4" class="cluster">
<title>cluster_AuthModule_exports</title>
<polygon fill="none" stroke="black" points="398,-170.8 398,-222.8 504,-222.8 504,-170.8 398,-170.8"/>
</g>
<!-- CacheModule -->
<g id="node1" class="node">
<title>CacheModule</title>
<polygon fill="#8dd3c7" stroke="black" points="222.03,-84.8 219.03,-88.8 198.03,-88.8 195.03,-84.8 127.97,-84.8 127.97,-48.8 222.03,-48.8 222.03,-84.8"/>
<text text-anchor="middle" x="175" y="-62.6" font-family="Times,serif" font-size="14.00">CacheModule</text>
</g>
<!-- AuthModule -->
<g id="node3" class="node">
<title>AuthModule</title>
<polygon fill="#8dd3c7" stroke="black" points="494.55,-149.8 491.55,-153.8 470.55,-153.8 467.55,-149.8 407.45,-149.8 407.45,-113.8 494.55,-113.8 494.55,-149.8"/>
<text text-anchor="middle" x="451" y="-127.6" font-family="Times,serif" font-size="14.00">AuthModule</text>
</g>
<!-- CacheModule&#45;&gt;AuthModule -->
<g id="edge1" class="edge">
<title>CacheModule&#45;&gt;AuthModule</title>
<path fill="none" stroke="black" d="M175,-84.91C175,-104.14 175,-131.8 175,-131.8 175,-131.8 397.27,-131.8 397.27,-131.8"/>
<polygon fill="black" stroke="black" points="397.27,-135.3 407.27,-131.8 397.27,-128.3 397.27,-135.3"/>
</g>
<!-- UserModule -->
<g id="node2" class="node">
<title>UserModule</title>
<polygon fill="#8dd3c7" stroke="black" points="109.98,-84.8 106.98,-88.8 85.98,-88.8 82.98,-84.8 24.02,-84.8 24.02,-48.8 109.98,-48.8 109.98,-84.8"/>
<text text-anchor="middle" x="67" y="-62.6" font-family="Times,serif" font-size="14.00">UserModule</text>
</g>
<!-- UserModule&#45;&gt;AuthModule -->
<g id="edge2" class="edge">
<title>UserModule&#45;&gt;AuthModule</title>
<path fill="none" stroke="black" d="M67,-85.09C67,-107.01 67,-140.8 67,-140.8 67,-140.8 397.32,-140.8 397.32,-140.8"/>
<polygon fill="black" stroke="black" points="397.32,-144.3 407.32,-140.8 397.32,-137.3 397.32,-144.3"/>
</g>
<!-- AuthService  -->
<g id="node4" class="node">
<title>AuthService </title>
<polygon fill="#fb8072" stroke="black" points="495.98,-214.8 406.02,-214.8 406.02,-178.8 495.98,-178.8 495.98,-214.8"/>
<text text-anchor="middle" x="451" y="-192.6" font-family="Times,serif" font-size="14.00">AuthService </text>
</g>
<!-- AuthModule&#45;&gt;AuthService  -->
<g id="edge3" class="edge">
<title>AuthModule&#45;&gt;AuthService </title>
<path fill="none" stroke="black" stroke-dasharray="5,2" d="M451,-149.91C451,-149.91 451,-168.79 451,-168.79"/>
<polygon fill="black" stroke="black" points="447.5,-168.79 451,-178.79 454.5,-168.79 447.5,-168.79"/>
</g>
<!-- AuthService -->
<g id="node5" class="node">
<title>AuthService</title>
<ellipse fill="#fdb462" stroke="black" cx="937" cy="-66.8" rx="59.11" ry="18"/>
<text text-anchor="middle" x="937" y="-62.6" font-family="Times,serif" font-size="14.00">AuthService</text>
</g>
<!-- AuthService&#45;&gt;AuthModule -->
<g id="edge4" class="edge">
<title>AuthService&#45;&gt;AuthModule</title>
<path fill="none" stroke="black" d="M937,-85.09C937,-107.01 937,-140.8 937,-140.8 937,-140.8 504.56,-140.8 504.56,-140.8"/>
<polygon fill="black" stroke="black" points="504.56,-137.3 494.56,-140.8 504.56,-144.3 504.56,-137.3"/>
</g>
<!-- GoogleStrategy -->
<g id="node6" class="node">
<title>GoogleStrategy</title>
<ellipse fill="#fdb462" stroke="black" cx="788" cy="-66.8" rx="71.79" ry="18"/>
<text text-anchor="middle" x="788" y="-62.6" font-family="Times,serif" font-size="14.00">GoogleStrategy</text>
</g>
<!-- GoogleStrategy&#45;&gt;AuthModule -->
<g id="edge5" class="edge">
<title>GoogleStrategy&#45;&gt;AuthModule</title>
<path fill="none" stroke="black" d="M788,-84.91C788,-104.14 788,-131.8 788,-131.8 788,-131.8 504.71,-131.8 504.71,-131.8"/>
<polygon fill="black" stroke="black" points="504.71,-128.3 494.71,-131.8 504.71,-135.3 504.71,-128.3"/>
</g>
<!-- JwtRefreshStrategy -->
<g id="node7" class="node">
<title>JwtRefreshStrategy</title>
<ellipse fill="#fdb462" stroke="black" cx="612" cy="-66.8" rx="86.81" ry="18"/>
<text text-anchor="middle" x="612" y="-62.6" font-family="Times,serif" font-size="14.00">JwtRefreshStrategy</text>
</g>
<!-- JwtRefreshStrategy&#45;&gt;AuthModule -->
<g id="edge6" class="edge">
<title>JwtRefreshStrategy&#45;&gt;AuthModule</title>
<path fill="none" stroke="black" d="M612,-84.83C612,-101.2 612,-122.8 612,-122.8 612,-122.8 504.57,-122.8 504.57,-122.8"/>
<polygon fill="black" stroke="black" points="504.57,-119.3 494.57,-122.8 504.57,-126.3 504.57,-119.3"/>
</g>
<!-- JwtStrategy -->
<g id="node8" class="node">
<title>JwtStrategy</title>
<ellipse fill="#fdb462" stroke="black" cx="451" cy="-66.8" rx="56.76" ry="18"/>
<text text-anchor="middle" x="451" y="-62.6" font-family="Times,serif" font-size="14.00">JwtStrategy</text>
</g>
<!-- JwtStrategy&#45;&gt;AuthModule -->
<g id="edge7" class="edge">
<title>JwtStrategy&#45;&gt;AuthModule</title>
<path fill="none" stroke="black" d="M451,-84.91C451,-84.91 451,-103.79 451,-103.79"/>
<polygon fill="black" stroke="black" points="447.5,-103.79 451,-113.79 454.5,-103.79 447.5,-103.79"/>
</g>
<!-- LocalStrategy -->
<g id="node9" class="node">
<title>LocalStrategy</title>
<ellipse fill="#fdb462" stroke="black" cx="311" cy="-66.8" rx="65.41" ry="18"/>
<text text-anchor="middle" x="311" y="-62.6" font-family="Times,serif" font-size="14.00">LocalStrategy</text>
</g>
<!-- LocalStrategy&#45;&gt;AuthModule -->
<g id="edge8" class="edge">
<title>LocalStrategy&#45;&gt;AuthModule</title>
<path fill="none" stroke="black" d="M311,-84.83C311,-101.2 311,-122.8 311,-122.8 311,-122.8 397.09,-122.8 397.09,-122.8"/>
<polygon fill="black" stroke="black" points="397.09,-126.3 407.09,-122.8 397.09,-119.3 397.09,-126.3"/>
</g>
</g>
</svg>
