<?xml version="1.0" encoding="UTF-8" standalone="no"?>
<!DOCTYPE svg PUBLIC "-//W3C//DTD SVG 1.1//EN"
 "http://www.w3.org/Graphics/SVG/1.1/DTD/svg11.dtd">
<!-- Generated by graphviz version 2.47.3 (20210619.1520)
 -->
<!-- Title: dependencies Pages: 1 -->
<svg width="1674pt" height="247pt"
 viewBox="0.00 0.00 1674.00 246.80" xmlns="http://www.w3.org/2000/svg" xmlns:xlink="http://www.w3.org/1999/xlink">
<g id="graph0" class="graph" transform="scale(1 1) rotate(0) translate(4 242.8)">
<title>dependencies</title>
<polygon fill="white" stroke="transparent" points="-4,4 -4,-242.8 1670,-242.8 1670,4 -4,4"/>
<text text-anchor="middle" x="833" y="-8.2" font-family="sans-serif" font-size="14.00">dependencies</text>
<g id="clust1" class="cluster">
<title>cluster_AuthModule</title>
<polygon fill="none" stroke="black" stroke-dasharray="1,5" points="8,-32.8 8,-230.8 1658,-230.8 1658,-32.8 8,-32.8"/>
</g>
<g id="clust3" class="cluster">
<title>cluster_AuthModule_imports</title>
<polygon fill="none" stroke="black" points="1211,-40.8 1211,-92.8 1650,-92.8 1650,-40.8 1211,-40.8"/>
</g>
<g id="clust6" class="cluster">
<title>cluster_AuthModule_providers</title>
<polygon fill="none" stroke="black" points="16,-40.8 16,-92.8 1203,-92.8 1203,-40.8 16,-40.8"/>
</g>
<g id="clust4" class="cluster">
<title>cluster_AuthModule_exports</title>
<polygon fill="none" stroke="black" points="871,-170.8 871,-222.8 977,-222.8 977,-170.8 871,-170.8"/>
</g>
<!-- AWSModule -->
<g id="node1" class="node">
<title>AWSModule</title>
<polygon fill="#8dd3c7" stroke="black" points="1642.15,-84.8 1639.15,-88.8 1618.15,-88.8 1615.15,-84.8 1551.85,-84.8 1551.85,-48.8 1642.15,-48.8 1642.15,-84.8"/>
<text text-anchor="middle" x="1597" y="-62.6" font-family="Times,serif" font-size="14.00">AWSModule</text>
</g>
<!-- AuthModule -->
<g id="node5" class="node">
<title>AuthModule</title>
<polygon fill="#8dd3c7" stroke="black" points="967.55,-149.8 964.55,-153.8 943.55,-153.8 940.55,-149.8 880.45,-149.8 880.45,-113.8 967.55,-113.8 967.55,-149.8"/>
<text text-anchor="middle" x="924" y="-127.6" font-family="Times,serif" font-size="14.00">AuthModule</text>
</g>
<!-- AWSModule&#45;&gt;AuthModule -->
<g id="edge1" class="edge">
<title>AWSModule&#45;&gt;AuthModule</title>
<path fill="none" stroke="black" d="M1597,-85.05C1597,-107.82 1597,-143.8 1597,-143.8 1597,-143.8 977.64,-143.8 977.64,-143.8"/>
<polygon fill="black" stroke="black" points="977.64,-140.3 967.64,-143.8 977.64,-147.3 977.64,-140.3"/>
</g>
<!-- CacheModule -->
<g id="node2" class="node">
<title>CacheModule</title>
<polygon fill="#8dd3c7" stroke="black" points="1533.03,-84.8 1530.03,-88.8 1509.03,-88.8 1506.03,-84.8 1438.97,-84.8 1438.97,-48.8 1533.03,-48.8 1533.03,-84.8"/>
<text text-anchor="middle" x="1486" y="-62.6" font-family="Times,serif" font-size="14.00">CacheModule</text>
</g>
<!-- CacheModule&#45;&gt;AuthModule -->
<g id="edge2" class="edge">
<title>CacheModule&#45;&gt;AuthModule</title>
<path fill="none" stroke="black" d="M1486,-85.08C1486,-106.12 1486,-137.8 1486,-137.8 1486,-137.8 977.63,-137.8 977.63,-137.8"/>
<polygon fill="black" stroke="black" points="977.63,-134.3 967.63,-137.8 977.63,-141.3 977.63,-134.3"/>
</g>
<!-- ConfigModule -->
<g id="node3" class="node">
<title>ConfigModule</title>
<polygon fill="#8dd3c7" stroke="black" points="1421.44,-84.8 1418.44,-88.8 1397.44,-88.8 1394.44,-84.8 1322.56,-84.8 1322.56,-48.8 1421.44,-48.8 1421.44,-84.8"/>
<text text-anchor="middle" x="1372" y="-62.6" font-family="Times,serif" font-size="14.00">ConfigModule</text>
</g>
<!-- ConfigModule&#45;&gt;AuthModule -->
<g id="edge3" class="edge">
<title>ConfigModule&#45;&gt;AuthModule</title>
<path fill="none" stroke="black" d="M1372,-84.91C1372,-104.14 1372,-131.8 1372,-131.8 1372,-131.8 977.77,-131.8 977.77,-131.8"/>
<polygon fill="black" stroke="black" points="977.77,-128.3 967.77,-131.8 977.77,-135.3 977.77,-128.3"/>
</g>
<!-- UserModule -->
<g id="node4" class="node">
<title>UserModule</title>
<polygon fill="#8dd3c7" stroke="black" points="1304.98,-84.8 1301.98,-88.8 1280.98,-88.8 1277.98,-84.8 1219.02,-84.8 1219.02,-48.8 1304.98,-48.8 1304.98,-84.8"/>
<text text-anchor="middle" x="1262" y="-62.6" font-family="Times,serif" font-size="14.00">UserModule</text>
</g>
<!-- UserModule&#45;&gt;AuthModule -->
<g id="edge4" class="edge">
<title>UserModule&#45;&gt;AuthModule</title>
<path fill="none" stroke="black" d="M1262,-84.82C1262,-102.17 1262,-125.8 1262,-125.8 1262,-125.8 977.84,-125.8 977.84,-125.8"/>
<polygon fill="black" stroke="black" points="977.84,-122.3 967.84,-125.8 977.84,-129.3 977.84,-122.3"/>
</g>
<!-- AuthService  -->
<g id="node6" class="node">
<title>AuthService </title>
<polygon fill="#fb8072" stroke="black" points="968.98,-214.8 879.02,-214.8 879.02,-178.8 968.98,-178.8 968.98,-214.8"/>
<text text-anchor="middle" x="924" y="-192.6" font-family="Times,serif" font-size="14.00">AuthService </text>
</g>
<!-- AuthModule&#45;&gt;AuthService  -->
<g id="edge5" class="edge">
<title>AuthModule&#45;&gt;AuthService </title>
<path fill="none" stroke="black" stroke-dasharray="5,2" d="M924,-149.91C924,-149.91 924,-168.79 924,-168.79"/>
<polygon fill="black" stroke="black" points="920.5,-168.79 924,-178.79 927.5,-168.79 920.5,-168.79"/>
</g>
<!-- AWSService -->
<g id="node7" class="node">
<title>AWSService</title>
<ellipse fill="#fdb462" stroke="black" cx="1134" cy="-66.8" rx="61.39" ry="18"/>
<text text-anchor="middle" x="1134" y="-62.6" font-family="Times,serif" font-size="14.00">AWSService</text>
</g>
<!-- AWSService&#45;&gt;AuthModule -->
<g id="edge6" class="edge">
<title>AWSService&#45;&gt;AuthModule</title>
<path fill="none" stroke="black" d="M1134,-85.04C1134,-100.37 1134,-119.8 1134,-119.8 1134,-119.8 977.77,-119.8 977.77,-119.8"/>
<polygon fill="black" stroke="black" points="977.77,-116.3 967.77,-119.8 977.77,-123.3 977.77,-116.3"/>
</g>
<!-- AuthService -->
<g id="node8" class="node">
<title>AuthService</title>
<ellipse fill="#fdb462" stroke="black" cx="995" cy="-66.8" rx="59.11" ry="18"/>
<text text-anchor="middle" x="995" y="-62.6" font-family="Times,serif" font-size="14.00">AuthService</text>
</g>
<!-- AuthService&#45;&gt;AuthModule -->
<g id="edge7" class="edge">
<title>AuthService&#45;&gt;AuthModule</title>
<path fill="none" stroke="black" d="M951.73,-79.33C951.73,-79.33 951.73,-103.65 951.73,-103.65"/>
<polygon fill="black" stroke="black" points="948.23,-103.65 951.73,-113.65 955.23,-103.65 948.23,-103.65"/>
</g>
<!-- CacheService -->
<g id="node9" class="node">
<title>CacheService</title>
<ellipse fill="#fdb462" stroke="black" cx="854" cy="-66.8" rx="64.24" ry="18"/>
<text text-anchor="middle" x="854" y="-62.6" font-family="Times,serif" font-size="14.00">CacheService</text>
</g>
<!-- CacheService&#45;&gt;AuthModule -->
<g id="edge8" class="edge">
<title>CacheService&#45;&gt;AuthModule</title>
<path fill="none" stroke="black" d="M899.17,-79.64C899.17,-79.64 899.17,-103.32 899.17,-103.32"/>
<polygon fill="black" stroke="black" points="895.67,-103.32 899.17,-113.32 902.67,-103.32 895.67,-103.32"/>
</g>
<!-- GoogleStrategy -->
<g id="node10" class="node">
<title>GoogleStrategy</title>
<ellipse fill="#fdb462" stroke="black" cx="700" cy="-66.8" rx="71.79" ry="18"/>
<text text-anchor="middle" x="700" y="-62.6" font-family="Times,serif" font-size="14.00">GoogleStrategy</text>
</g>
<!-- GoogleStrategy&#45;&gt;AuthModule -->
<g id="edge9" class="edge">
<title>GoogleStrategy&#45;&gt;AuthModule</title>
<path fill="none" stroke="black" d="M700,-85.04C700,-100.37 700,-119.8 700,-119.8 700,-119.8 870.28,-119.8 870.28,-119.8"/>
<polygon fill="black" stroke="black" points="870.28,-123.3 880.28,-119.8 870.28,-116.3 870.28,-123.3"/>
</g>
<!-- JwtRefreshStrategy -->
<g id="node11" class="node">
<title>JwtRefreshStrategy</title>
<ellipse fill="#fdb462" stroke="black" cx="524" cy="-66.8" rx="86.81" ry="18"/>
<text text-anchor="middle" x="524" y="-62.6" font-family="Times,serif" font-size="14.00">JwtRefreshStrategy</text>
</g>
<!-- JwtRefreshStrategy&#45;&gt;AuthModule -->
<g id="edge10" class="edge">
<title>JwtRefreshStrategy&#45;&gt;AuthModule</title>
<path fill="none" stroke="black" d="M524,-84.82C524,-102.17 524,-125.8 524,-125.8 524,-125.8 870.43,-125.8 870.43,-125.8"/>
<polygon fill="black" stroke="black" points="870.43,-129.3 880.43,-125.8 870.43,-122.3 870.43,-129.3"/>
</g>
<!-- JwtStrategy -->
<g id="node12" class="node">
<title>JwtStrategy</title>
<ellipse fill="#fdb462" stroke="black" cx="363" cy="-66.8" rx="56.76" ry="18"/>
<text text-anchor="middle" x="363" y="-62.6" font-family="Times,serif" font-size="14.00">JwtStrategy</text>
</g>
<!-- JwtStrategy&#45;&gt;AuthModule -->
<g id="edge11" class="edge">
<title>JwtStrategy&#45;&gt;AuthModule</title>
<path fill="none" stroke="black" d="M363,-84.91C363,-104.14 363,-131.8 363,-131.8 363,-131.8 870.45,-131.8 870.45,-131.8"/>
<polygon fill="black" stroke="black" points="870.45,-135.3 880.45,-131.8 870.45,-128.3 870.45,-135.3"/>
</g>
<!-- LocalStrategy -->
<g id="node13" class="node">
<title>LocalStrategy</title>
<ellipse fill="#fdb462" stroke="black" cx="223" cy="-66.8" rx="65.41" ry="18"/>
<text text-anchor="middle" x="223" y="-62.6" font-family="Times,serif" font-size="14.00">LocalStrategy</text>
</g>
<!-- LocalStrategy&#45;&gt;AuthModule -->
<g id="edge12" class="edge">
<title>LocalStrategy&#45;&gt;AuthModule</title>
<path fill="none" stroke="black" d="M223,-85.08C223,-106.12 223,-137.8 223,-137.8 223,-137.8 870.41,-137.8 870.41,-137.8"/>
<polygon fill="black" stroke="black" points="870.41,-141.3 880.41,-137.8 870.41,-134.3 870.41,-141.3"/>
</g>
<!-- UserService -->
<g id="node14" class="node">
<title>UserService</title>
<ellipse fill="#fdb462" stroke="black" cx="82" cy="-66.8" rx="58.44" ry="18"/>
<text text-anchor="middle" x="82" y="-62.6" font-family="Times,serif" font-size="14.00">UserService</text>
</g>
<!-- UserService&#45;&gt;AuthModule -->
<g id="edge13" class="edge">
<title>UserService&#45;&gt;AuthModule</title>
<path fill="none" stroke="black" d="M82,-85.05C82,-107.82 82,-143.8 82,-143.8 82,-143.8 870.21,-143.8 870.21,-143.8"/>
<polygon fill="black" stroke="black" points="870.21,-147.3 880.21,-143.8 870.21,-140.3 870.21,-147.3"/>
</g>
</g>
</svg>
