<?xml version="1.0" standalone="no"?>
<!DOCTYPE svg PUBLIC "-//W3C//DTD SVG 20010904//EN"
 "http://www.w3.org/TR/2001/REC-SVG-20010904/DTD/svg10.dtd">
<svg version="1.0" xmlns="http://www.w3.org/2000/svg"
 width="700.000000pt" height="700.000000pt" viewBox="0 0 700.000000 700.000000"
 preserveAspectRatio="xMidYMid meet">
<metadata>
Created by potrace 1.11, written by Peter Selinger 2001-2013
</metadata>
<g transform="translate(0.000000,700.000000) scale(0.100000,-0.100000)"
fill="#000000" stroke="none">
<path d="M0 3500 l0 -3500 3500 0 3500 0 0 3500 0 3500 -3500 0 -3500 0 0
-3500z m6970 5 l0 -3465 -3470 0 -3470 0 0 3465 0 3465 3470 0 3470 0 0 -3465z"/>
<path d="M1310 5118 c-24 -13 -58 -40 -74 -61 l-31 -39 -3 -1487 -2 -1487 29
-46 c80 -126 276 -117 340 14 21 44 21 48 21 789 0 409 5 785 10 834 51 486
388 907 839 1049 140 44 249 59 406 54 133 -5 294 -32 334 -58 12 -7 2 -22
-46 -73 -169 -181 -295 -450 -349 -742 -23 -126 -27 -536 -6 -655 65 -365 197
-628 428 -850 146 -140 289 -232 489 -313 448 -183 917 -185 1360 -5 307 125
687 389 725 503 41 125 -38 252 -165 263 -74 6 -109 -9 -195 -83 -336 -293
-788 -455 -1153 -415 -529 58 -901 324 -1042 744 -92 273 -93 651 -3 926 52
160 149 313 270 425 62 57 72 63 91 53 12 -6 76 -66 143 -134 66 -68 133 -128
148 -134 44 -16 123 -12 166 10 79 40 122 132 101 217 -14 55 -39 91 -128 184
l-64 67 78 20 c380 102 788 49 1065 -139 215 -146 369 -384 453 -699 14 -52
25 -103 25 -112 0 -17 -53 -18 -972 -18 -926 0 -975 -1 -1013 -19 -79 -36
-115 -95 -115 -185 0 -68 41 -135 102 -168 l43 -23 1116 0 1116 0 48 30 c95
59 112 138 80 363 -106 743 -542 1247 -1195 1381 -208 43 -392 51 -585 26
-201 -27 -367 -72 -535 -145 l-86 -38 -89 43 c-363 173 -776 201 -1170 78
-116 -36 -326 -141 -429 -214 -49 -35 -136 -108 -193 -163 l-103 -98 0 201 c0
179 -2 206 -19 239 -52 100 -164 139 -261 90z"/>
</g>
</svg>
