<?xml version="1.0" encoding="UTF-8" standalone="no"?>
<!DOCTYPE svg PUBLIC "-//W3C//DTD SVG 1.1//EN"
 "http://www.w3.org/Graphics/SVG/1.1/DTD/svg11.dtd">
<!-- Generated by graphviz version 2.47.3 (20210619.1520)
 -->
<!-- Title: dependencies Pages: 1 -->
<svg width="296pt" height="247pt"
 viewBox="0.00 0.00 296.00 246.80" xmlns="http://www.w3.org/2000/svg" xmlns:xlink="http://www.w3.org/1999/xlink">
<g id="graph0" class="graph" transform="scale(1 1) rotate(0) translate(4 242.8)">
<title>dependencies</title>
<polygon fill="white" stroke="transparent" points="-4,4 -4,-242.8 292,-242.8 292,4 -4,4"/>
<text text-anchor="middle" x="144" y="-8.2" font-family="sans-serif" font-size="14.00">dependencies</text>
<g id="clust1" class="cluster">
<title>cluster_FormModule</title>
<polygon fill="none" stroke="black" stroke-dasharray="1,5" points="8,-32.8 8,-230.8 280,-230.8 280,-32.8 8,-32.8"/>
</g>
<g id="clust3" class="cluster">
<title>cluster_FormModule_imports</title>
<polygon fill="none" stroke="black" points="162,-40.8 162,-92.8 272,-92.8 272,-40.8 162,-40.8"/>
</g>
<g id="clust4" class="cluster">
<title>cluster_FormModule_exports</title>
<polygon fill="none" stroke="black" points="97,-170.8 97,-222.8 205,-222.8 205,-170.8 97,-170.8"/>
</g>
<g id="clust6" class="cluster">
<title>cluster_FormModule_providers</title>
<polygon fill="none" stroke="black" points="16,-40.8 16,-92.8 154,-92.8 154,-40.8 16,-40.8"/>
</g>
<!-- CacheModule -->
<g id="node1" class="node">
<title>CacheModule</title>
<polygon fill="#8dd3c7" stroke="black" points="264.03,-84.8 261.03,-88.8 240.03,-88.8 237.03,-84.8 169.97,-84.8 169.97,-48.8 264.03,-48.8 264.03,-84.8"/>
<text text-anchor="middle" x="217" y="-62.6" font-family="Times,serif" font-size="14.00">CacheModule</text>
</g>
<!-- FormModule -->
<g id="node2" class="node">
<title>FormModule</title>
<polygon fill="#8dd3c7" stroke="black" points="195.88,-149.8 192.88,-153.8 171.88,-153.8 168.88,-149.8 106.12,-149.8 106.12,-113.8 195.88,-113.8 195.88,-149.8"/>
<text text-anchor="middle" x="151" y="-127.6" font-family="Times,serif" font-size="14.00">FormModule</text>
</g>
<!-- CacheModule&#45;&gt;FormModule -->
<g id="edge1" class="edge">
<title>CacheModule&#45;&gt;FormModule</title>
<path fill="none" stroke="black" d="M182.84,-84.91C182.84,-84.91 182.84,-103.79 182.84,-103.79"/>
<polygon fill="black" stroke="black" points="179.34,-103.79 182.84,-113.79 186.34,-103.79 179.34,-103.79"/>
</g>
<!-- FormService  -->
<g id="node3" class="node">
<title>FormService </title>
<polygon fill="#fb8072" stroke="black" points="196.81,-214.8 105.19,-214.8 105.19,-178.8 196.81,-178.8 196.81,-214.8"/>
<text text-anchor="middle" x="151" y="-192.6" font-family="Times,serif" font-size="14.00">FormService </text>
</g>
<!-- FormModule&#45;&gt;FormService  -->
<g id="edge2" class="edge">
<title>FormModule&#45;&gt;FormService </title>
<path fill="none" stroke="black" stroke-dasharray="5,2" d="M151,-149.91C151,-149.91 151,-168.79 151,-168.79"/>
<polygon fill="black" stroke="black" points="147.5,-168.79 151,-178.79 154.5,-168.79 147.5,-168.79"/>
</g>
<!-- FormService -->
<g id="node4" class="node">
<title>FormService</title>
<ellipse fill="#fdb462" stroke="black" cx="85" cy="-66.8" rx="60.83" ry="18"/>
<text text-anchor="middle" x="85" y="-62.6" font-family="Times,serif" font-size="14.00">FormService</text>
</g>
<!-- FormService&#45;&gt;FormModule -->
<g id="edge3" class="edge">
<title>FormService&#45;&gt;FormModule</title>
<path fill="none" stroke="black" d="M125.99,-80.27C125.99,-80.27 125.99,-103.66 125.99,-103.66"/>
<polygon fill="black" stroke="black" points="122.49,-103.66 125.99,-113.66 129.49,-103.66 122.49,-103.66"/>
</g>
</g>
</svg>
