<?xml version="1.0" encoding="UTF-8" standalone="no"?>
<!DOCTYPE svg PUBLIC "-//W3C//DTD SVG 1.1//EN"
 "http://www.w3.org/Graphics/SVG/1.1/DTD/svg11.dtd">
<!-- Generated by graphviz version 2.47.3 (20210619.1520)
 -->
<!-- Title: dependencies Pages: 1 -->
<svg width="448pt" height="247pt"
 viewBox="0.00 0.00 448.00 246.80" xmlns="http://www.w3.org/2000/svg" xmlns:xlink="http://www.w3.org/1999/xlink">
<g id="graph0" class="graph" transform="scale(1 1) rotate(0) translate(4 242.8)">
<title>dependencies</title>
<polygon fill="white" stroke="transparent" points="-4,4 -4,-242.8 444,-242.8 444,4 -4,4"/>
<text text-anchor="middle" x="220" y="-8.2" font-family="sans-serif" font-size="14.00">dependencies</text>
<g id="clust1" class="cluster">
<title>cluster_FormModule</title>
<polygon fill="none" stroke="black" stroke-dasharray="1,5" points="8,-32.8 8,-230.8 432,-230.8 432,-32.8 8,-32.8"/>
</g>
<g id="clust4" class="cluster">
<title>cluster_FormModule_exports</title>
<polygon fill="none" stroke="black" points="155,-170.8 155,-222.8 263,-222.8 263,-170.8 155,-170.8"/>
</g>
<g id="clust6" class="cluster">
<title>cluster_FormModule_providers</title>
<polygon fill="none" stroke="black" points="134,-40.8 134,-92.8 424,-92.8 424,-40.8 134,-40.8"/>
</g>
<g id="clust3" class="cluster">
<title>cluster_FormModule_imports</title>
<polygon fill="none" stroke="black" points="16,-40.8 16,-92.8 126,-92.8 126,-40.8 16,-40.8"/>
</g>
<!-- CacheModule -->
<g id="node1" class="node">
<title>CacheModule</title>
<polygon fill="#8dd3c7" stroke="black" points="118.03,-84.8 115.03,-88.8 94.03,-88.8 91.03,-84.8 23.97,-84.8 23.97,-48.8 118.03,-48.8 118.03,-84.8"/>
<text text-anchor="middle" x="71" y="-62.6" font-family="Times,serif" font-size="14.00">CacheModule</text>
</g>
<!-- FormModule -->
<g id="node2" class="node">
<title>FormModule</title>
<polygon fill="#8dd3c7" stroke="black" points="253.88,-149.8 250.88,-153.8 229.88,-153.8 226.88,-149.8 164.12,-149.8 164.12,-113.8 253.88,-113.8 253.88,-149.8"/>
<text text-anchor="middle" x="209" y="-127.6" font-family="Times,serif" font-size="14.00">FormModule</text>
</g>
<!-- CacheModule&#45;&gt;FormModule -->
<g id="edge1" class="edge">
<title>CacheModule&#45;&gt;FormModule</title>
<path fill="none" stroke="black" d="M71,-84.91C71,-104.14 71,-131.8 71,-131.8 71,-131.8 153.81,-131.8 153.81,-131.8"/>
<polygon fill="black" stroke="black" points="153.81,-135.3 163.81,-131.8 153.81,-128.3 153.81,-135.3"/>
</g>
<!-- FormService  -->
<g id="node3" class="node">
<title>FormService </title>
<polygon fill="#fb8072" stroke="black" points="254.81,-214.8 163.19,-214.8 163.19,-178.8 254.81,-178.8 254.81,-214.8"/>
<text text-anchor="middle" x="209" y="-192.6" font-family="Times,serif" font-size="14.00">FormService </text>
</g>
<!-- FormModule&#45;&gt;FormService  -->
<g id="edge2" class="edge">
<title>FormModule&#45;&gt;FormService </title>
<path fill="none" stroke="black" stroke-dasharray="5,2" d="M209,-149.91C209,-149.91 209,-168.79 209,-168.79"/>
<polygon fill="black" stroke="black" points="205.5,-168.79 209,-178.79 212.5,-168.79 205.5,-168.79"/>
</g>
<!-- FormService -->
<g id="node4" class="node">
<title>FormService</title>
<ellipse fill="#fdb462" stroke="black" cx="355" cy="-66.8" rx="60.83" ry="18"/>
<text text-anchor="middle" x="355" y="-62.6" font-family="Times,serif" font-size="14.00">FormService</text>
</g>
<!-- FormService&#45;&gt;FormModule -->
<g id="edge3" class="edge">
<title>FormService&#45;&gt;FormModule</title>
<path fill="none" stroke="black" d="M355,-84.91C355,-104.14 355,-131.8 355,-131.8 355,-131.8 264,-131.8 264,-131.8"/>
<polygon fill="black" stroke="black" points="264,-128.3 254,-131.8 264,-135.3 264,-128.3"/>
</g>
<!-- PrismaService -->
<g id="node5" class="node">
<title>PrismaService</title>
<ellipse fill="#fdb462" stroke="black" cx="209" cy="-66.8" rx="66.63" ry="18"/>
<text text-anchor="middle" x="209" y="-62.6" font-family="Times,serif" font-size="14.00">PrismaService</text>
</g>
<!-- PrismaService&#45;&gt;FormModule -->
<g id="edge4" class="edge">
<title>PrismaService&#45;&gt;FormModule</title>
<path fill="none" stroke="black" d="M209,-84.91C209,-84.91 209,-103.79 209,-103.79"/>
<polygon fill="black" stroke="black" points="205.5,-103.79 209,-113.79 212.5,-103.79 205.5,-103.79"/>
</g>
</g>
</svg>
