<svg width="200" height="526" xmlns="http://www.w3.org/2000/svg"><defs><radialGradient cx="117.376%" cy="71.514%" fx="117.376%" fy="71.514%" r="115.843%" gradientTransform="matrix(1 0 0 .57692 0 .303)" id="a"><stop stop-color="#D96700" stop-opacity=".6" offset="0%"/><stop stop-color="#CD6101" stop-opacity=".53" offset="16%"/><stop stop-color="#AC5302" stop-opacity=".36" offset="47%"/><stop stop-color="#783B04" stop-opacity=".08" offset="89%"/><stop stop-color="#693405" stop-opacity="0" offset="100%"/></radialGradient></defs><g fill="none" fill-rule="evenodd"><path d="M26.528 482.119c-4.123 2.903-3.566 10.792 1.245 17.62 4.81 6.828 12.053 10.01 16.176 7.106 4.123-2.903 3.566-10.792-1.245-17.62-4.81-6.828-12.053-10.01-16.176-7.106z" fill="#C9C9FF"/><path d="M5.26 528.552c3.182 1.406 5.966 1.274 7.887-.07l30.797-21.635c-1.94 1.359-4.728 1.507-7.888.072-6.305-2.812-11.8-10.658-12.265-17.517-.226-3.42.824-5.946 2.726-7.277L-4.27 503.75c-1.94 1.359-2.963 3.864-2.743 7.275.43 6.829 5.95 14.712 12.272 17.526z" fill="#8D8DFF"/><path d="M24.898 494.327a17.453 17.453 0 0 1-1.107-4.925c-.226-3.42.824-5.946 2.726-7.277L-4.27 503.75c-1.94 1.359-2.963 3.864-2.743 7.275.13 1.698.505 3.36 1.114 4.935l30.797-21.634z" fill="#5971EA"/><g transform="rotate(59 -20.033 156.789)"><ellipse fill="#FFD036" cx="17.407" cy="17.283" rx="17.407" ry="17.283"/><path d="M26.753 2.704c5.665 4.91 5.403 14.081-.937 20.636-6.34 6.554-16.906 8.003-22.744 2.465a12.019 12.019 0 0 1-1.96-2.465c2.624 7.094 9.583 11.675 17.186 11.316 7.604-.359 14.093-5.575 16.029-12.885 1.935-7.31-1.131-15.02-7.574-19.046v-.021z" fill="#FFC20C"/><path d="M13.874 10.508c-1.842 2.078-4.638 2.626-6.244 1.222-1.607-1.403-1.415-4.226.427-6.305C9.9 3.347 12.695 2.8 14.301 4.203c1.607 1.403 1.415 4.226-.427 6.305z" fill="#F9E4AA"/></g><path fill="#1C9FE6" d="M153.511 395.685l-21.62 21.74 8.632 10.408 13.44-1.49z"/><path fill="#4FC9FF" d="M131.89 417.425l8.633 10.408 12.988-32.148z"/><g transform="rotate(-4 3104.277 -2519.662)"><ellipse fill="#80BAF5" cx="7.994" cy="7.937" rx="7.994" ry="7.937"/><path d="M12.287 1.242c2.601 2.255 2.481 6.467-.43 9.477-2.912 3.01-7.765 3.676-10.446 1.132a5.52 5.52 0 0 1-.9-1.132c1.205 3.258 4.4 5.362 7.893 5.197 3.492-.164 6.472-2.56 7.36-5.917a7.922 7.922 0 0 0-3.477-8.747v-.01z" fill="#61A8F1"/><path d="M6.372 4.826c-.846.954-2.13 1.206-2.868.561-.738-.644-.65-1.94.196-2.895.846-.955 2.13-1.206 2.868-.562.738.645.65 1.941-.196 2.896z" fill="#A6D2FE"/></g><g><path d="M179.327 4.638l-5.655 9.411c1.049-2.15.836-4.715-.557-6.705a21.335 21.335 0 0 0-16.323-9.808c-2.387-.304-4.733.686-6.142 2.59l5.655-9.411c1.404-1.912 3.754-2.903 6.142-2.59a21.375 21.375 0 0 1 16.34 9.817c1.384 1.992 1.59 4.55.54 6.696z" fill="#DD6E0A"/><path d="M192.41 12.294l-5.777 9.613c-2.141 3.565-6.612 5.73-12.886 5.662-12.637-.143-27.882-9.303-33.99-20.423-3.07-5.593-3.26-10.627-1.088-14.243l5.776-9.612c-2.172 3.615-2 8.64 1.087 14.242 6.11 11.12 21.354 20.28 33.974 20.413 6.274.068 10.745-2.097 12.903-5.652z" fill="#EA7F13"/><path d="M22.951 20.807V7.86l-11.21 2.265 3.056 17.167c1.397-3.47 4.497-5.934 8.154-6.484z" fill="url(#a)" transform="rotate(31 132.59 259.403)"/><path d="M190.882-1.966c6.168 11.025.962 19.803-11.618 19.564-12.58-.239-27.81-9.39-33.977-20.415-6.167-11.025-.938-19.88 11.602-19.574 12.54.305 27.826 9.4 33.993 20.425zm-33.687-.632a21.048 21.048 0 0 0 16.234 9.755c5.993.121 8.49-4.072 5.596-9.312-3.56-5.64-9.6-9.27-16.251-9.765-6.003-.104-8.483 4.099-5.596 9.312l.017.01z" fill="#FFAA4D" fill-rule="nonzero"/></g><g><path fill="#FFB0C1" d="M42.976 272.909l13.575-.886 5.967-12.295-13.575.885z"/><path fill="#FF879B" d="M43.258 273.033L70.65 313.58l13.357-.827-27.392-40.546z"/><path fill="#FFC7D3" d="M56.863 271.95l27.391 40.545 5.77-12.074-27.39-40.546z"/></g><g><path fill="#1FB1FF" d="M13.213 96.981L7.43 77.73 21.09 62.862 26.867 82.1z"/><path fill="#008AD1" d="M13.08 96.863l-57.808-13.404-5.904-19.274L7.176 77.59z"/><path fill="#73D4FF" d="M7.477 77.689l-57.808-13.404 13.755-14.735 57.808 13.404z"/></g></g></svg>