<svg width="223" height="507" xmlns="http://www.w3.org/2000/svg"><defs><linearGradient x1="-79.075%" y1="43.058%" x2="133.433%" y2="82.469%" id="a"><stop stop-color="#B4132E" offset="0%"/><stop stop-color="#C8324B" offset="30.88%"/><stop stop-color="#F76D84" stop-opacity="0" offset="100%"/></linearGradient></defs><g fill="none" fill-rule="evenodd"><g transform="scale(-1 1) rotate(59 -186.065 -78.262)"><ellipse fill="#FFD036" cx="7.042" cy="6.991" rx="7.042" ry="6.991"/><path d="M10.822 1.094c2.292 1.986 2.186 5.696-.379 8.347-2.564 2.652-6.838 3.238-9.2.998a4.862 4.862 0 0 1-.794-.998c1.062 2.87 3.877 4.724 6.953 4.578 3.076-.145 5.701-2.255 6.484-5.212a6.978 6.978 0 0 0-3.064-7.704v-.01z" fill="#FFC20C"/><path d="M5.612 4.25c-.745.841-1.876 1.063-2.526.495-.65-.568-.572-1.71.173-2.55.746-.841 1.877-1.063 2.526-.495.65.568.573 1.71-.173 2.55z" fill="#F9E4AA"/></g><g transform="scale(-1 1) rotate(59 -370.983 134.942)"><ellipse fill="#CAE3FF" cx="11.936" cy="11.851" rx="11.936" ry="11.851"/><path d="M18.345 1.854c3.884 3.367 3.705 9.656-.642 14.15-4.348 4.494-11.593 5.488-15.597 1.691a8.241 8.241 0 0 1-1.344-1.69c1.8 4.864 6.572 8.006 11.786 7.76 5.213-.247 9.663-3.824 10.99-8.836 1.327-5.012-.775-10.3-5.193-13.06v-.015z" fill="#9ECAFC"/><path d="M10.713 9.092c-1.263 1.426-3.18 1.801-4.282.839-1.101-.963-.97-2.898.293-4.324 1.264-1.425 3.18-1.8 4.282-.838 1.101.962.97 2.898-.293 4.323z" fill="#C5E1FF"/></g><path fill="#5971EA" d="M66.676 229.67l36.095 27.668-10.321 16.974-19.86.45z"/><path fill="#8D8DFF" d="M103.287 257.478l-10.321 16.974-25.774-44.642z"/><path d="M90.424 33.756c1.908-4.316-2.342-10.377-9.493-13.535-7.151-3.16-14.495-2.22-16.403 2.096-1.908 4.317 2.342 10.377 9.493 13.536 7.15 3.159 14.494 2.22 16.403-2.097z" fill="#7FEAC1"/><path d="M85.103-13.747c-3.23.406-5.4 1.854-6.293 3.859l-14.278 32.2c.901-2.024 3.066-3.487 6.293-3.858 6.414-.784 14.604 2.862 18.284 8.14 1.83 2.635 2.204 5.168 1.32 7.152l14.275-32.19c.901-2.026.514-4.528-1.307-7.158-3.637-5.271-11.865-8.935-18.294-8.145z" fill="#4DDBA7"/><path d="M85.846 23.176a16.335 16.335 0 0 1 3.263 3.418c1.83 2.635 2.204 5.168 1.32 7.152l14.275-32.19c.901-2.026.514-4.528-1.307-7.158a16.272 16.272 0 0 0-3.272-3.423L85.846 23.176z" fill="#3BD093"/><g transform="scale(1 -1) rotate(-70 -79.717 -52.329)"><ellipse fill="#FAA166" cx="14.094" cy="13.994" rx="14.094" ry="13.994"/><path d="M21.662 2.19c4.586 3.975 4.375 11.401-.759 16.708-5.133 5.307-13.688 6.48-18.416 1.996A9.731 9.731 0 0 1 .9 18.898c2.125 5.744 7.76 9.454 13.916 9.163 6.157-.29 11.411-4.515 12.978-10.433 1.567-5.918-.916-12.162-6.132-15.421v-.018z" fill="#F0833B"/><path d="M11.234 8.508c-1.492 1.683-3.756 2.126-5.056.99-1.3-1.137-1.146-3.422.346-5.105 1.492-1.683 3.755-2.127 5.056-.99 1.3 1.136 1.145 3.422-.346 5.105z" fill="#FFCAA7"/></g><g><path d="M194.237 6.599l2.865 9.37c-.444-2.09.298-4.265 1.94-5.69a19.15 19.15 0 0 1 16.3-4.983c2.138.25 3.96 1.612 4.77 3.565l-2.865-9.37c-.804-1.957-2.629-3.321-4.77-3.565A19.185 19.185 0 0 0 196.16.915c-1.634 1.427-2.369 3.6-1.923 5.684z" fill="#F76D84"/><path d="M181.782 10.3l2.928 9.58c1.086 3.553 4.49 6.396 9.94 7.694 10.973 2.61 26.15-2.03 33.838-10.345 3.864-4.182 5.114-8.504 4.013-12.107l-2.929-9.58c1.101 3.603-.132 7.92-4.013 12.107-7.688 8.315-22.865 12.955-33.822 10.34-5.448-1.297-8.853-4.141-9.955-7.688z" fill="#FF879B"/><path d="M20.813 18.593V7.072L10.316 9.087l2.861 15.275c1.308-3.087 4.211-5.28 7.636-5.77z" fill="url(#a)" transform="scale(-1 1) rotate(17 -50.969 -764.451)"/><path d="M185.687-1.44c-7.7 8.279-5.055 17.108 5.908 19.681C202.56 20.814 217.72 16.18 225.42 7.9c7.7-8.28 5.052-17.18-5.89-19.687-10.944-2.506-26.142 2.067-33.843 10.346zm29.357 6.898a18.582 18.582 0 0 1-16.162 4.941c-5.224-1.219-6.496-5.439-2.868-9.382a18.617 18.617 0 0 1 16.178-4.947c5.23 1.236 6.485 5.461 2.869 9.383l-.017.005z" fill="#FFC7D3" fill-rule="nonzero"/></g><g><path fill="#ADFBF9" d="M185.514 482.295l17.609-9.042 1.156-19.853-17.61 9.041z"/><path fill="#73DAD6" d="M185.324 482.447l59.644 38.67 17.47-8.807-59.645-38.67z"/><path fill="#8BEAE7" d="M202.886 473.595l59.643 38.671.94-19.541-59.643-38.671z"/></g><g><path fill="#FDDEFF" d="M192.063 241.16l-1.898 9.78-3.06-8.009 1.9-9.779z"/><path fill="#F2B1F6" d="M239.214 216.602l7.497 6.48-54.648 18.079-3.059-8.009z"/><path fill="#FCCDFF" d="M246.711 223.082l-1.9 9.771-54.646 18.086 1.898-9.778z"/></g></g></svg>
