<?xml version="1.0" encoding="UTF-8" standalone="no"?>
<!DOCTYPE svg PUBLIC "-//W3C//DTD SVG 1.1//EN"
 "http://www.w3.org/Graphics/SVG/1.1/DTD/svg11.dtd">
<!-- Generated by graphviz version 2.47.3 (20210619.1520)
 -->
<!-- Title: dependencies Pages: 1 -->
<svg width="174pt" height="247pt"
 viewBox="0.00 0.00 174.00 246.80" xmlns="http://www.w3.org/2000/svg" xmlns:xlink="http://www.w3.org/1999/xlink">
<g id="graph0" class="graph" transform="scale(1 1) rotate(0) translate(4 242.8)">
<title>dependencies</title>
<polygon fill="white" stroke="transparent" points="-4,4 -4,-242.8 170,-242.8 170,4 -4,4"/>
<text text-anchor="middle" x="83" y="-8.2" font-family="sans-serif" font-size="14.00">dependencies</text>
<g id="clust1" class="cluster">
<title>cluster_CoreModule</title>
<polygon fill="none" stroke="black" stroke-dasharray="1,5" points="8,-32.8 8,-230.8 158,-230.8 158,-32.8 8,-32.8"/>
</g>
<g id="clust6" class="cluster">
<title>cluster_CoreModule_providers</title>
<polygon fill="none" stroke="black" points="16,-40.8 16,-92.8 150,-92.8 150,-40.8 16,-40.8"/>
</g>
<g id="clust4" class="cluster">
<title>cluster_CoreModule_exports</title>
<polygon fill="none" stroke="black" points="31,-170.8 31,-222.8 135,-222.8 135,-170.8 31,-170.8"/>
</g>
<!-- CoreService  -->
<g id="node1" class="node">
<title>CoreService </title>
<polygon fill="#fb8072" stroke="black" points="127.19,-214.8 38.81,-214.8 38.81,-178.8 127.19,-178.8 127.19,-214.8"/>
<text text-anchor="middle" x="83" y="-192.6" font-family="Times,serif" font-size="14.00">CoreService </text>
</g>
<!-- CoreModule -->
<g id="node2" class="node">
<title>CoreModule</title>
<polygon fill="#8dd3c7" stroke="black" points="126.26,-149.8 123.26,-153.8 102.26,-153.8 99.26,-149.8 39.74,-149.8 39.74,-113.8 126.26,-113.8 126.26,-149.8"/>
<text text-anchor="middle" x="83" y="-127.6" font-family="Times,serif" font-size="14.00">CoreModule</text>
</g>
<!-- CoreModule&#45;&gt;CoreService  -->
<g id="edge1" class="edge">
<title>CoreModule&#45;&gt;CoreService </title>
<path fill="none" stroke="black" stroke-dasharray="5,2" d="M83,-149.91C83,-149.91 83,-168.79 83,-168.79"/>
<polygon fill="black" stroke="black" points="79.5,-168.79 83,-178.79 86.5,-168.79 79.5,-168.79"/>
</g>
<!-- CoreService -->
<g id="node3" class="node">
<title>CoreService</title>
<ellipse fill="#fdb462" stroke="black" cx="83" cy="-66.8" rx="58.53" ry="18"/>
<text text-anchor="middle" x="83" y="-62.6" font-family="Times,serif" font-size="14.00">CoreService</text>
</g>
<!-- CoreService&#45;&gt;CoreModule -->
<g id="edge2" class="edge">
<title>CoreService&#45;&gt;CoreModule</title>
<path fill="none" stroke="black" d="M83,-84.91C83,-84.91 83,-103.79 83,-103.79"/>
<polygon fill="black" stroke="black" points="79.5,-103.79 83,-113.79 86.5,-103.79 79.5,-103.79"/>
</g>
</g>
</svg>
