<?xml version="1.0" encoding="UTF-8" standalone="no"?>
<!DOCTYPE svg PUBLIC "-//W3C//DTD SVG 1.1//EN"
 "http://www.w3.org/Graphics/SVG/1.1/DTD/svg11.dtd">
<!-- Generated by graphviz version 2.47.3 (20210619.1520)
 -->
<!-- Title: dependencies Pages: 1 -->
<svg width="318pt" height="247pt"
 viewBox="0.00 0.00 318.00 246.80" xmlns="http://www.w3.org/2000/svg" xmlns:xlink="http://www.w3.org/1999/xlink">
<g id="graph0" class="graph" transform="scale(1 1) rotate(0) translate(4 242.8)">
<title>dependencies</title>
<polygon fill="white" stroke="transparent" points="-4,4 -4,-242.8 314,-242.8 314,4 -4,4"/>
<text text-anchor="middle" x="155" y="-8.2" font-family="sans-serif" font-size="14.00">dependencies</text>
<g id="clust1" class="cluster">
<title>cluster_AddressModule</title>
<polygon fill="none" stroke="black" stroke-dasharray="1,5" points="8,-32.8 8,-230.8 302,-230.8 302,-32.8 8,-32.8"/>
</g>
<g id="clust3" class="cluster">
<title>cluster_AddressModule_imports</title>
<polygon fill="none" stroke="black" points="184,-40.8 184,-92.8 294,-92.8 294,-40.8 184,-40.8"/>
</g>
<g id="clust4" class="cluster">
<title>cluster_AddressModule_exports</title>
<polygon fill="none" stroke="black" points="102,-170.8 102,-222.8 226,-222.8 226,-170.8 102,-170.8"/>
</g>
<g id="clust6" class="cluster">
<title>cluster_AddressModule_providers</title>
<polygon fill="none" stroke="black" points="16,-40.8 16,-92.8 176,-92.8 176,-40.8 16,-40.8"/>
</g>
<!-- CacheModule -->
<g id="node1" class="node">
<title>CacheModule</title>
<polygon fill="#8dd3c7" stroke="black" points="286.03,-84.8 283.03,-88.8 262.03,-88.8 259.03,-84.8 191.97,-84.8 191.97,-48.8 286.03,-48.8 286.03,-84.8"/>
<text text-anchor="middle" x="239" y="-62.6" font-family="Times,serif" font-size="14.00">CacheModule</text>
</g>
<!-- AddressModule -->
<g id="node2" class="node">
<title>AddressModule</title>
<polygon fill="#8dd3c7" stroke="black" points="216.92,-149.8 213.92,-153.8 192.92,-153.8 189.92,-149.8 111.08,-149.8 111.08,-113.8 216.92,-113.8 216.92,-149.8"/>
<text text-anchor="middle" x="164" y="-127.6" font-family="Times,serif" font-size="14.00">AddressModule</text>
</g>
<!-- CacheModule&#45;&gt;AddressModule -->
<g id="edge1" class="edge">
<title>CacheModule&#45;&gt;AddressModule</title>
<path fill="none" stroke="black" d="M204.22,-84.91C204.22,-84.91 204.22,-103.79 204.22,-103.79"/>
<polygon fill="black" stroke="black" points="200.72,-103.79 204.22,-113.79 207.72,-103.79 200.72,-103.79"/>
</g>
<!-- AddressService  -->
<g id="node3" class="node">
<title>AddressService </title>
<polygon fill="#fb8072" stroke="black" points="217.85,-214.8 110.15,-214.8 110.15,-178.8 217.85,-178.8 217.85,-214.8"/>
<text text-anchor="middle" x="164" y="-192.6" font-family="Times,serif" font-size="14.00">AddressService </text>
</g>
<!-- AddressModule&#45;&gt;AddressService  -->
<g id="edge2" class="edge">
<title>AddressModule&#45;&gt;AddressService </title>
<path fill="none" stroke="black" stroke-dasharray="5,2" d="M164,-149.91C164,-149.91 164,-168.79 164,-168.79"/>
<polygon fill="black" stroke="black" points="160.5,-168.79 164,-178.79 167.5,-168.79 160.5,-168.79"/>
</g>
<!-- AddressService -->
<g id="node4" class="node">
<title>AddressService</title>
<ellipse fill="#fdb462" stroke="black" cx="96" cy="-66.8" rx="71.77" ry="18"/>
<text text-anchor="middle" x="96" y="-62.6" font-family="Times,serif" font-size="14.00">AddressService</text>
</g>
<!-- AddressService&#45;&gt;AddressModule -->
<g id="edge3" class="edge">
<title>AddressService&#45;&gt;AddressModule</title>
<path fill="none" stroke="black" d="M139.46,-81.23C139.46,-81.23 139.46,-103.69 139.46,-103.69"/>
<polygon fill="black" stroke="black" points="135.96,-103.69 139.46,-113.69 142.96,-103.69 135.96,-103.69"/>
</g>
</g>
</svg>
