<?xml version="1.0" encoding="UTF-8" standalone="no"?>
<!DOCTYPE svg PUBLIC "-//W3C//DTD SVG 1.1//EN"
 "http://www.w3.org/Graphics/SVG/1.1/DTD/svg11.dtd">
<!-- Generated by graphviz version 2.47.3 (20210619.1520)
 -->
<!-- Title: dependencies Pages: 1 -->
<svg width="387pt" height="247pt"
 viewBox="0.00 0.00 387.00 246.80" xmlns="http://www.w3.org/2000/svg" xmlns:xlink="http://www.w3.org/1999/xlink">
<g id="graph0" class="graph" transform="scale(1 1) rotate(0) translate(4 242.8)">
<title>dependencies</title>
<polygon fill="white" stroke="transparent" points="-4,4 -4,-242.8 383,-242.8 383,4 -4,4"/>
<text text-anchor="middle" x="189.5" y="-8.2" font-family="sans-serif" font-size="14.00">dependencies</text>
<g id="clust1" class="cluster">
<title>cluster_UtilsModule</title>
<polygon fill="none" stroke="black" stroke-dasharray="1,5" points="8,-32.8 8,-230.8 371,-230.8 371,-32.8 8,-32.8"/>
</g>
<g id="clust4" class="cluster">
<title>cluster_UtilsModule_exports</title>
<polygon fill="none" stroke="black" points="114,-170.8 114,-222.8 218,-222.8 218,-170.8 114,-170.8"/>
</g>
<g id="clust6" class="cluster">
<title>cluster_UtilsModule_providers</title>
<polygon fill="none" stroke="black" points="229,-40.8 229,-92.8 363,-92.8 363,-40.8 229,-40.8"/>
</g>
<g id="clust3" class="cluster">
<title>cluster_UtilsModule_imports</title>
<polygon fill="none" stroke="black" points="16,-40.8 16,-92.8 221,-92.8 221,-40.8 16,-40.8"/>
</g>
<!-- CacheModule -->
<g id="node1" class="node">
<title>CacheModule</title>
<polygon fill="#8dd3c7" stroke="black" points="213.03,-84.8 210.03,-88.8 189.03,-88.8 186.03,-84.8 118.97,-84.8 118.97,-48.8 213.03,-48.8 213.03,-84.8"/>
<text text-anchor="middle" x="166" y="-62.6" font-family="Times,serif" font-size="14.00">CacheModule</text>
</g>
<!-- UtilsModule -->
<g id="node3" class="node">
<title>UtilsModule</title>
<polygon fill="#8dd3c7" stroke="black" points="209.27,-149.8 206.27,-153.8 185.27,-153.8 182.27,-149.8 122.73,-149.8 122.73,-113.8 209.27,-113.8 209.27,-149.8"/>
<text text-anchor="middle" x="166" y="-127.6" font-family="Times,serif" font-size="14.00">UtilsModule</text>
</g>
<!-- CacheModule&#45;&gt;UtilsModule -->
<g id="edge1" class="edge">
<title>CacheModule&#45;&gt;UtilsModule</title>
<path fill="none" stroke="black" d="M166,-84.91C166,-84.91 166,-103.79 166,-103.79"/>
<polygon fill="black" stroke="black" points="162.5,-103.79 166,-113.79 169.5,-103.79 162.5,-103.79"/>
</g>
<!-- DbModule -->
<g id="node2" class="node">
<title>DbModule</title>
<polygon fill="#8dd3c7" stroke="black" points="100.16,-84.8 97.16,-88.8 76.16,-88.8 73.16,-84.8 23.84,-84.8 23.84,-48.8 100.16,-48.8 100.16,-84.8"/>
<text text-anchor="middle" x="62" y="-62.6" font-family="Times,serif" font-size="14.00">DbModule</text>
</g>
<!-- DbModule&#45;&gt;UtilsModule -->
<g id="edge2" class="edge">
<title>DbModule&#45;&gt;UtilsModule</title>
<path fill="none" stroke="black" d="M62,-84.91C62,-104.14 62,-131.8 62,-131.8 62,-131.8 112.5,-131.8 112.5,-131.8"/>
<polygon fill="black" stroke="black" points="112.5,-135.3 122.5,-131.8 112.5,-128.3 112.5,-135.3"/>
</g>
<!-- UtilsService  -->
<g id="node4" class="node">
<title>UtilsService </title>
<polygon fill="#fb8072" stroke="black" points="210.2,-214.8 121.8,-214.8 121.8,-178.8 210.2,-178.8 210.2,-214.8"/>
<text text-anchor="middle" x="166" y="-192.6" font-family="Times,serif" font-size="14.00">UtilsService </text>
</g>
<!-- UtilsModule&#45;&gt;UtilsService  -->
<g id="edge3" class="edge">
<title>UtilsModule&#45;&gt;UtilsService </title>
<path fill="none" stroke="black" stroke-dasharray="5,2" d="M166,-149.91C166,-149.91 166,-168.79 166,-168.79"/>
<polygon fill="black" stroke="black" points="162.5,-168.79 166,-178.79 169.5,-168.79 162.5,-168.79"/>
</g>
<!-- UtilsService -->
<g id="node5" class="node">
<title>UtilsService</title>
<ellipse fill="#fdb462" stroke="black" cx="296" cy="-66.8" rx="58.54" ry="18"/>
<text text-anchor="middle" x="296" y="-62.6" font-family="Times,serif" font-size="14.00">UtilsService</text>
</g>
<!-- UtilsService&#45;&gt;UtilsModule -->
<g id="edge4" class="edge">
<title>UtilsService&#45;&gt;UtilsModule</title>
<path fill="none" stroke="black" d="M296,-84.91C296,-104.14 296,-131.8 296,-131.8 296,-131.8 219.29,-131.8 219.29,-131.8"/>
<polygon fill="black" stroke="black" points="219.29,-128.3 209.29,-131.8 219.29,-135.3 219.29,-128.3"/>
</g>
</g>
</svg>
