<?xml version="1.0" encoding="UTF-8" standalone="no"?>
<!DOCTYPE svg PUBLIC "-//W3C//DTD SVG 1.1//EN"
 "http://www.w3.org/Graphics/SVG/1.1/DTD/svg11.dtd">
<!-- Generated by graphviz version 2.47.3 (20210619.1520)
 -->
<!-- Title: dependencies Pages: 1 -->
<svg width="387pt" height="247pt"
 viewBox="0.00 0.00 387.00 246.80" xmlns="http://www.w3.org/2000/svg" xmlns:xlink="http://www.w3.org/1999/xlink">
<g id="graph0" class="graph" transform="scale(1 1) rotate(0) translate(4 242.8)">
<title>dependencies</title>
<polygon fill="white" stroke="transparent" points="-4,4 -4,-242.8 383,-242.8 383,4 -4,4"/>
<text text-anchor="middle" x="189.5" y="-8.2" font-family="sans-serif" font-size="14.00">dependencies</text>
<g id="clust1" class="cluster">
<title>cluster_UtilsModule</title>
<polygon fill="none" stroke="black" stroke-dasharray="1,5" points="8,-32.8 8,-230.8 371,-230.8 371,-32.8 8,-32.8"/>
</g>
<g id="clust3" class="cluster">
<title>cluster_UtilsModule_imports</title>
<polygon fill="none" stroke="black" points="158,-40.8 158,-92.8 363,-92.8 363,-40.8 158,-40.8"/>
</g>
<g id="clust4" class="cluster">
<title>cluster_UtilsModule_exports</title>
<polygon fill="none" stroke="black" points="152,-170.8 152,-222.8 256,-222.8 256,-170.8 152,-170.8"/>
</g>
<g id="clust6" class="cluster">
<title>cluster_UtilsModule_providers</title>
<polygon fill="none" stroke="black" points="16,-40.8 16,-92.8 150,-92.8 150,-40.8 16,-40.8"/>
</g>
<!-- CacheModule -->
<g id="node1" class="node">
<title>CacheModule</title>
<polygon fill="#8dd3c7" stroke="black" points="355.03,-84.8 352.03,-88.8 331.03,-88.8 328.03,-84.8 260.97,-84.8 260.97,-48.8 355.03,-48.8 355.03,-84.8"/>
<text text-anchor="middle" x="308" y="-62.6" font-family="Times,serif" font-size="14.00">CacheModule</text>
</g>
<!-- UtilsModule -->
<g id="node3" class="node">
<title>UtilsModule</title>
<polygon fill="#8dd3c7" stroke="black" points="247.27,-149.8 244.27,-153.8 223.27,-153.8 220.27,-149.8 160.73,-149.8 160.73,-113.8 247.27,-113.8 247.27,-149.8"/>
<text text-anchor="middle" x="204" y="-127.6" font-family="Times,serif" font-size="14.00">UtilsModule</text>
</g>
<!-- CacheModule&#45;&gt;UtilsModule -->
<g id="edge1" class="edge">
<title>CacheModule&#45;&gt;UtilsModule</title>
<path fill="none" stroke="black" d="M308,-84.91C308,-104.14 308,-131.8 308,-131.8 308,-131.8 257.5,-131.8 257.5,-131.8"/>
<polygon fill="black" stroke="black" points="257.5,-128.3 247.5,-131.8 257.5,-135.3 257.5,-128.3"/>
</g>
<!-- DbModule -->
<g id="node2" class="node">
<title>DbModule</title>
<polygon fill="#8dd3c7" stroke="black" points="242.16,-84.8 239.16,-88.8 218.16,-88.8 215.16,-84.8 165.84,-84.8 165.84,-48.8 242.16,-48.8 242.16,-84.8"/>
<text text-anchor="middle" x="204" y="-62.6" font-family="Times,serif" font-size="14.00">DbModule</text>
</g>
<!-- DbModule&#45;&gt;UtilsModule -->
<g id="edge2" class="edge">
<title>DbModule&#45;&gt;UtilsModule</title>
<path fill="none" stroke="black" d="M204,-84.91C204,-84.91 204,-103.79 204,-103.79"/>
<polygon fill="black" stroke="black" points="200.5,-103.79 204,-113.79 207.5,-103.79 200.5,-103.79"/>
</g>
<!-- UtilsService  -->
<g id="node4" class="node">
<title>UtilsService </title>
<polygon fill="#fb8072" stroke="black" points="248.2,-214.8 159.8,-214.8 159.8,-178.8 248.2,-178.8 248.2,-214.8"/>
<text text-anchor="middle" x="204" y="-192.6" font-family="Times,serif" font-size="14.00">UtilsService </text>
</g>
<!-- UtilsModule&#45;&gt;UtilsService  -->
<g id="edge3" class="edge">
<title>UtilsModule&#45;&gt;UtilsService </title>
<path fill="none" stroke="black" stroke-dasharray="5,2" d="M204,-149.91C204,-149.91 204,-168.79 204,-168.79"/>
<polygon fill="black" stroke="black" points="200.5,-168.79 204,-178.79 207.5,-168.79 200.5,-168.79"/>
</g>
<!-- UtilsService -->
<g id="node5" class="node">
<title>UtilsService</title>
<ellipse fill="#fdb462" stroke="black" cx="83" cy="-66.8" rx="58.54" ry="18"/>
<text text-anchor="middle" x="83" y="-62.6" font-family="Times,serif" font-size="14.00">UtilsService</text>
</g>
<!-- UtilsService&#45;&gt;UtilsModule -->
<g id="edge4" class="edge">
<title>UtilsService&#45;&gt;UtilsModule</title>
<path fill="none" stroke="black" d="M83,-84.91C83,-104.14 83,-131.8 83,-131.8 83,-131.8 150.66,-131.8 150.66,-131.8"/>
<polygon fill="black" stroke="black" points="150.66,-135.3 160.66,-131.8 150.66,-128.3 150.66,-135.3"/>
</g>
</g>
</svg>
