<?xml version="1.0" encoding="UTF-8" standalone="no"?>
<!DOCTYPE svg PUBLIC "-//W3C//DTD SVG 1.1//EN"
 "http://www.w3.org/Graphics/SVG/1.1/DTD/svg11.dtd">
<!-- Generated by graphviz version 2.47.3 (20210619.1520)
 -->
<!-- Title: dependencies Pages: 1 -->
<svg width="514pt" height="247pt"
 viewBox="0.00 0.00 514.00 246.80" xmlns="http://www.w3.org/2000/svg" xmlns:xlink="http://www.w3.org/1999/xlink">
<g id="graph0" class="graph" transform="scale(1 1) rotate(0) translate(4 242.8)">
<title>dependencies</title>
<polygon fill="white" stroke="transparent" points="-4,4 -4,-242.8 510,-242.8 510,4 -4,4"/>
<text text-anchor="middle" x="253" y="-8.2" font-family="sans-serif" font-size="14.00">dependencies</text>
<g id="clust1" class="cluster">
<title>cluster_OrderModule</title>
<polygon fill="none" stroke="black" stroke-dasharray="1,5" points="8,-32.8 8,-230.8 498,-230.8 498,-32.8 8,-32.8"/>
</g>
<g id="clust3" class="cluster">
<title>cluster_OrderModule_imports</title>
<polygon fill="none" stroke="black" points="166,-40.8 166,-92.8 490,-92.8 490,-40.8 166,-40.8"/>
</g>
<g id="clust4" class="cluster">
<title>cluster_OrderModule_exports</title>
<polygon fill="none" stroke="black" points="220,-170.8 220,-222.8 330,-222.8 330,-170.8 220,-170.8"/>
</g>
<g id="clust6" class="cluster">
<title>cluster_OrderModule_providers</title>
<polygon fill="none" stroke="black" points="16,-40.8 16,-92.8 158,-92.8 158,-40.8 16,-40.8"/>
</g>
<!-- AWSModule -->
<g id="node1" class="node">
<title>AWSModule</title>
<polygon fill="#8dd3c7" stroke="black" points="482.15,-84.8 479.15,-88.8 458.15,-88.8 455.15,-84.8 391.85,-84.8 391.85,-48.8 482.15,-48.8 482.15,-84.8"/>
<text text-anchor="middle" x="437" y="-62.6" font-family="Times,serif" font-size="14.00">AWSModule</text>
</g>
<!-- OrderModule -->
<g id="node4" class="node">
<title>OrderModule</title>
<polygon fill="#8dd3c7" stroke="black" points="321.19,-149.8 318.19,-153.8 297.19,-153.8 294.19,-149.8 228.81,-149.8 228.81,-113.8 321.19,-113.8 321.19,-149.8"/>
<text text-anchor="middle" x="275" y="-127.6" font-family="Times,serif" font-size="14.00">OrderModule</text>
</g>
<!-- AWSModule&#45;&gt;OrderModule -->
<g id="edge1" class="edge">
<title>AWSModule&#45;&gt;OrderModule</title>
<path fill="none" stroke="black" d="M437,-84.91C437,-104.14 437,-131.8 437,-131.8 437,-131.8 331.42,-131.8 331.42,-131.8"/>
<polygon fill="black" stroke="black" points="331.42,-128.3 321.42,-131.8 331.42,-135.3 331.42,-128.3"/>
</g>
<!-- AuthModule -->
<g id="node2" class="node">
<title>AuthModule</title>
<polygon fill="#8dd3c7" stroke="black" points="373.55,-84.8 370.55,-88.8 349.55,-88.8 346.55,-84.8 286.45,-84.8 286.45,-48.8 373.55,-48.8 373.55,-84.8"/>
<text text-anchor="middle" x="330" y="-62.6" font-family="Times,serif" font-size="14.00">AuthModule</text>
</g>
<!-- AuthModule&#45;&gt;OrderModule -->
<g id="edge2" class="edge">
<title>AuthModule&#45;&gt;OrderModule</title>
<path fill="none" stroke="black" d="M303.66,-84.91C303.66,-84.91 303.66,-103.79 303.66,-103.79"/>
<polygon fill="black" stroke="black" points="300.16,-103.79 303.66,-113.79 307.16,-103.79 300.16,-103.79"/>
</g>
<!-- CacheModule -->
<g id="node3" class="node">
<title>CacheModule</title>
<polygon fill="#8dd3c7" stroke="black" points="268.03,-84.8 265.03,-88.8 244.03,-88.8 241.03,-84.8 173.97,-84.8 173.97,-48.8 268.03,-48.8 268.03,-84.8"/>
<text text-anchor="middle" x="221" y="-62.6" font-family="Times,serif" font-size="14.00">CacheModule</text>
</g>
<!-- CacheModule&#45;&gt;OrderModule -->
<g id="edge3" class="edge">
<title>CacheModule&#45;&gt;OrderModule</title>
<path fill="none" stroke="black" d="M248.58,-84.91C248.58,-84.91 248.58,-103.79 248.58,-103.79"/>
<polygon fill="black" stroke="black" points="245.08,-103.79 248.58,-113.79 252.08,-103.79 245.08,-103.79"/>
</g>
<!-- OrderService  -->
<g id="node5" class="node">
<title>OrderService </title>
<polygon fill="#fb8072" stroke="black" points="322.12,-214.8 227.88,-214.8 227.88,-178.8 322.12,-178.8 322.12,-214.8"/>
<text text-anchor="middle" x="275" y="-192.6" font-family="Times,serif" font-size="14.00">OrderService </text>
</g>
<!-- OrderModule&#45;&gt;OrderService  -->
<g id="edge4" class="edge">
<title>OrderModule&#45;&gt;OrderService </title>
<path fill="none" stroke="black" stroke-dasharray="5,2" d="M275,-149.91C275,-149.91 275,-168.79 275,-168.79"/>
<polygon fill="black" stroke="black" points="271.5,-168.79 275,-178.79 278.5,-168.79 271.5,-168.79"/>
</g>
<!-- OrderService -->
<g id="node6" class="node">
<title>OrderService</title>
<ellipse fill="#fdb462" stroke="black" cx="87" cy="-66.8" rx="62.52" ry="18"/>
<text text-anchor="middle" x="87" y="-62.6" font-family="Times,serif" font-size="14.00">OrderService</text>
</g>
<!-- OrderService&#45;&gt;OrderModule -->
<g id="edge5" class="edge">
<title>OrderService&#45;&gt;OrderModule</title>
<path fill="none" stroke="black" d="M87,-84.91C87,-104.14 87,-131.8 87,-131.8 87,-131.8 218.53,-131.8 218.53,-131.8"/>
<polygon fill="black" stroke="black" points="218.53,-135.3 228.53,-131.8 218.53,-128.3 218.53,-135.3"/>
</g>
</g>
</svg>
