<?xml version="1.0" encoding="UTF-8" standalone="no"?>
<!DOCTYPE svg PUBLIC "-//W3C//DTD SVG 1.1//EN"
 "http://www.w3.org/Graphics/SVG/1.1/DTD/svg11.dtd">
<!-- Generated by graphviz version 2.47.3 (20210619.1520)
 -->
<!-- Title: dependencies Pages: 1 -->
<svg width="451pt" height="247pt"
 viewBox="0.00 0.00 451.00 246.80" xmlns="http://www.w3.org/2000/svg" xmlns:xlink="http://www.w3.org/1999/xlink">
<g id="graph0" class="graph" transform="scale(1 1) rotate(0) translate(4 242.8)">
<title>dependencies</title>
<polygon fill="white" stroke="transparent" points="-4,4 -4,-242.8 447,-242.8 447,4 -4,4"/>
<text text-anchor="middle" x="221.5" y="-8.2" font-family="sans-serif" font-size="14.00">dependencies</text>
<g id="clust1" class="cluster">
<title>cluster_OrderModule</title>
<polygon fill="none" stroke="black" stroke-dasharray="1,5" points="8,-32.8 8,-230.8 435,-230.8 435,-32.8 8,-32.8"/>
</g>
<g id="clust6" class="cluster">
<title>cluster_OrderModule_providers</title>
<polygon fill="none" stroke="black" points="134,-40.8 134,-92.8 427,-92.8 427,-40.8 134,-40.8"/>
</g>
<g id="clust4" class="cluster">
<title>cluster_OrderModule_exports</title>
<polygon fill="none" stroke="black" points="154,-170.8 154,-222.8 264,-222.8 264,-170.8 154,-170.8"/>
</g>
<g id="clust3" class="cluster">
<title>cluster_OrderModule_imports</title>
<polygon fill="none" stroke="black" points="16,-40.8 16,-92.8 126,-92.8 126,-40.8 16,-40.8"/>
</g>
<!-- CacheModule -->
<g id="node1" class="node">
<title>CacheModule</title>
<polygon fill="#8dd3c7" stroke="black" points="118.03,-84.8 115.03,-88.8 94.03,-88.8 91.03,-84.8 23.97,-84.8 23.97,-48.8 118.03,-48.8 118.03,-84.8"/>
<text text-anchor="middle" x="71" y="-62.6" font-family="Times,serif" font-size="14.00">CacheModule</text>
</g>
<!-- OrderModule -->
<g id="node2" class="node">
<title>OrderModule</title>
<polygon fill="#8dd3c7" stroke="black" points="255.19,-149.8 252.19,-153.8 231.19,-153.8 228.19,-149.8 162.81,-149.8 162.81,-113.8 255.19,-113.8 255.19,-149.8"/>
<text text-anchor="middle" x="209" y="-127.6" font-family="Times,serif" font-size="14.00">OrderModule</text>
</g>
<!-- CacheModule&#45;&gt;OrderModule -->
<g id="edge1" class="edge">
<title>CacheModule&#45;&gt;OrderModule</title>
<path fill="none" stroke="black" d="M71,-84.91C71,-104.14 71,-131.8 71,-131.8 71,-131.8 152.66,-131.8 152.66,-131.8"/>
<polygon fill="black" stroke="black" points="152.66,-135.3 162.66,-131.8 152.66,-128.3 152.66,-135.3"/>
</g>
<!-- OrderService  -->
<g id="node3" class="node">
<title>OrderService </title>
<polygon fill="#fb8072" stroke="black" points="256.12,-214.8 161.88,-214.8 161.88,-178.8 256.12,-178.8 256.12,-214.8"/>
<text text-anchor="middle" x="209" y="-192.6" font-family="Times,serif" font-size="14.00">OrderService </text>
</g>
<!-- OrderModule&#45;&gt;OrderService  -->
<g id="edge2" class="edge">
<title>OrderModule&#45;&gt;OrderService </title>
<path fill="none" stroke="black" stroke-dasharray="5,2" d="M209,-149.91C209,-149.91 209,-168.79 209,-168.79"/>
<polygon fill="black" stroke="black" points="205.5,-168.79 209,-178.79 212.5,-168.79 205.5,-168.79"/>
</g>
<!-- OrderService -->
<g id="node4" class="node">
<title>OrderService</title>
<ellipse fill="#fdb462" stroke="black" cx="356" cy="-66.8" rx="62.52" ry="18"/>
<text text-anchor="middle" x="356" y="-62.6" font-family="Times,serif" font-size="14.00">OrderService</text>
</g>
<!-- OrderService&#45;&gt;OrderModule -->
<g id="edge3" class="edge">
<title>OrderService&#45;&gt;OrderModule</title>
<path fill="none" stroke="black" d="M356,-84.91C356,-104.14 356,-131.8 356,-131.8 356,-131.8 265.11,-131.8 265.11,-131.8"/>
<polygon fill="black" stroke="black" points="265.11,-128.3 255.11,-131.8 265.11,-135.3 265.11,-128.3"/>
</g>
<!-- PrismaService -->
<g id="node5" class="node">
<title>PrismaService</title>
<ellipse fill="#fdb462" stroke="black" cx="209" cy="-66.8" rx="66.63" ry="18"/>
<text text-anchor="middle" x="209" y="-62.6" font-family="Times,serif" font-size="14.00">PrismaService</text>
</g>
<!-- PrismaService&#45;&gt;OrderModule -->
<g id="edge4" class="edge">
<title>PrismaService&#45;&gt;OrderModule</title>
<path fill="none" stroke="black" d="M209,-84.91C209,-84.91 209,-103.79 209,-103.79"/>
<polygon fill="black" stroke="black" points="205.5,-103.79 209,-113.79 212.5,-103.79 205.5,-103.79"/>
</g>
</g>
</svg>
