<?xml version="1.0" encoding="UTF-8" standalone="no"?>
<!DOCTYPE svg PUBLIC "-//W3C//DTD SVG 1.1//EN"
 "http://www.w3.org/Graphics/SVG/1.1/DTD/svg11.dtd">
<!-- Generated by graphviz version 2.47.3 (20210619.1520)
 -->
<!-- Title: dependencies Pages: 1 -->
<svg width="514pt" height="247pt"
 viewBox="0.00 0.00 514.00 246.80" xmlns="http://www.w3.org/2000/svg" xmlns:xlink="http://www.w3.org/1999/xlink">
<g id="graph0" class="graph" transform="scale(1 1) rotate(0) translate(4 242.8)">
<title>dependencies</title>
<polygon fill="white" stroke="transparent" points="-4,4 -4,-242.8 510,-242.8 510,4 -4,4"/>
<text text-anchor="middle" x="253" y="-8.2" font-family="sans-serif" font-size="14.00">dependencies</text>
<g id="clust1" class="cluster">
<title>cluster_OrderModule</title>
<polygon fill="none" stroke="black" stroke-dasharray="1,5" points="8,-32.8 8,-230.8 498,-230.8 498,-32.8 8,-32.8"/>
</g>
<g id="clust6" class="cluster">
<title>cluster_OrderModule_providers</title>
<polygon fill="none" stroke="black" points="348,-40.8 348,-92.8 490,-92.8 490,-40.8 348,-40.8"/>
</g>
<g id="clust4" class="cluster">
<title>cluster_OrderModule_exports</title>
<polygon fill="none" stroke="black" points="178,-170.8 178,-222.8 288,-222.8 288,-170.8 178,-170.8"/>
</g>
<g id="clust3" class="cluster">
<title>cluster_OrderModule_imports</title>
<polygon fill="none" stroke="black" points="16,-40.8 16,-92.8 340,-92.8 340,-40.8 16,-40.8"/>
</g>
<!-- AWSModule -->
<g id="node1" class="node">
<title>AWSModule</title>
<polygon fill="#8dd3c7" stroke="black" points="332.15,-84.8 329.15,-88.8 308.15,-88.8 305.15,-84.8 241.85,-84.8 241.85,-48.8 332.15,-48.8 332.15,-84.8"/>
<text text-anchor="middle" x="287" y="-62.6" font-family="Times,serif" font-size="14.00">AWSModule</text>
</g>
<!-- OrderModule -->
<g id="node4" class="node">
<title>OrderModule</title>
<polygon fill="#8dd3c7" stroke="black" points="279.19,-149.8 276.19,-153.8 255.19,-153.8 252.19,-149.8 186.81,-149.8 186.81,-113.8 279.19,-113.8 279.19,-149.8"/>
<text text-anchor="middle" x="233" y="-127.6" font-family="Times,serif" font-size="14.00">OrderModule</text>
</g>
<!-- AWSModule&#45;&gt;OrderModule -->
<g id="edge1" class="edge">
<title>AWSModule&#45;&gt;OrderModule</title>
<path fill="none" stroke="black" d="M260.38,-84.91C260.38,-84.91 260.38,-103.79 260.38,-103.79"/>
<polygon fill="black" stroke="black" points="256.88,-103.79 260.38,-113.79 263.88,-103.79 256.88,-103.79"/>
</g>
<!-- AuthModule -->
<g id="node2" class="node">
<title>AuthModule</title>
<polygon fill="#8dd3c7" stroke="black" points="223.55,-84.8 220.55,-88.8 199.55,-88.8 196.55,-84.8 136.45,-84.8 136.45,-48.8 223.55,-48.8 223.55,-84.8"/>
<text text-anchor="middle" x="180" y="-62.6" font-family="Times,serif" font-size="14.00">AuthModule</text>
</g>
<!-- AuthModule&#45;&gt;OrderModule -->
<g id="edge2" class="edge">
<title>AuthModule&#45;&gt;OrderModule</title>
<path fill="none" stroke="black" d="M205.34,-84.91C205.34,-84.91 205.34,-103.79 205.34,-103.79"/>
<polygon fill="black" stroke="black" points="201.84,-103.79 205.34,-113.79 208.84,-103.79 201.84,-103.79"/>
</g>
<!-- CacheModule -->
<g id="node3" class="node">
<title>CacheModule</title>
<polygon fill="#8dd3c7" stroke="black" points="118.03,-84.8 115.03,-88.8 94.03,-88.8 91.03,-84.8 23.97,-84.8 23.97,-48.8 118.03,-48.8 118.03,-84.8"/>
<text text-anchor="middle" x="71" y="-62.6" font-family="Times,serif" font-size="14.00">CacheModule</text>
</g>
<!-- CacheModule&#45;&gt;OrderModule -->
<g id="edge3" class="edge">
<title>CacheModule&#45;&gt;OrderModule</title>
<path fill="none" stroke="black" d="M71,-84.91C71,-104.14 71,-131.8 71,-131.8 71,-131.8 176.58,-131.8 176.58,-131.8"/>
<polygon fill="black" stroke="black" points="176.58,-135.3 186.58,-131.8 176.58,-128.3 176.58,-135.3"/>
</g>
<!-- OrderService  -->
<g id="node5" class="node">
<title>OrderService </title>
<polygon fill="#fb8072" stroke="black" points="280.12,-214.8 185.88,-214.8 185.88,-178.8 280.12,-178.8 280.12,-214.8"/>
<text text-anchor="middle" x="233" y="-192.6" font-family="Times,serif" font-size="14.00">OrderService </text>
</g>
<!-- OrderModule&#45;&gt;OrderService  -->
<g id="edge4" class="edge">
<title>OrderModule&#45;&gt;OrderService </title>
<path fill="none" stroke="black" stroke-dasharray="5,2" d="M233,-149.91C233,-149.91 233,-168.79 233,-168.79"/>
<polygon fill="black" stroke="black" points="229.5,-168.79 233,-178.79 236.5,-168.79 229.5,-168.79"/>
</g>
<!-- OrderService -->
<g id="node6" class="node">
<title>OrderService</title>
<ellipse fill="#fdb462" stroke="black" cx="419" cy="-66.8" rx="62.52" ry="18"/>
<text text-anchor="middle" x="419" y="-62.6" font-family="Times,serif" font-size="14.00">OrderService</text>
</g>
<!-- OrderService&#45;&gt;OrderModule -->
<g id="edge5" class="edge">
<title>OrderService&#45;&gt;OrderModule</title>
<path fill="none" stroke="black" d="M419,-84.91C419,-104.14 419,-131.8 419,-131.8 419,-131.8 289.46,-131.8 289.46,-131.8"/>
<polygon fill="black" stroke="black" points="289.46,-128.3 279.46,-131.8 289.46,-135.3 289.46,-128.3"/>
</g>
</g>
</svg>
