<?xml version="1.0" encoding="UTF-8" standalone="no"?>
<!DOCTYPE svg PUBLIC "-//W3C//DTD SVG 1.1//EN"
 "http://www.w3.org/Graphics/SVG/1.1/DTD/svg11.dtd">
<!-- Generated by graphviz version 2.47.3 (20210619.1520)
 -->
<!-- Title: dependencies Pages: 1 -->
<svg width="1698pt" height="174pt"
 viewBox="0.00 0.00 1698.00 173.80" xmlns="http://www.w3.org/2000/svg" xmlns:xlink="http://www.w3.org/1999/xlink">
<g id="graph0" class="graph" transform="scale(1 1) rotate(0) translate(4 169.8)">
<title>dependencies</title>
<polygon fill="white" stroke="transparent" points="-4,4 -4,-169.8 1694,-169.8 1694,4 -4,4"/>
<text text-anchor="middle" x="845" y="-8.2" font-family="sans-serif" font-size="14.00">dependencies</text>
<g id="clust1" class="cluster">
<title>cluster_AppModule</title>
<polygon fill="none" stroke="black" stroke-dasharray="1,5" points="8,-32.8 8,-157.8 1682,-157.8 1682,-32.8 8,-32.8"/>
</g>
<g id="clust3" class="cluster">
<title>cluster_AppModule_imports</title>
<polygon fill="none" stroke="black" points="16,-40.8 16,-92.8 1674,-92.8 1674,-40.8 16,-40.8"/>
</g>
<!-- AddressModule -->
<g id="node1" class="node">
<title>AddressModule</title>
<polygon fill="#8dd3c7" stroke="black" points="1665.92,-84.8 1662.92,-88.8 1641.92,-88.8 1638.92,-84.8 1560.08,-84.8 1560.08,-48.8 1665.92,-48.8 1665.92,-84.8"/>
<text text-anchor="middle" x="1613" y="-62.6" font-family="Times,serif" font-size="14.00">AddressModule</text>
</g>
<!-- AppModule -->
<g id="node15" class="node">
<title>AppModule</title>
<polygon fill="#8dd3c7" stroke="black" points="891.66,-149.8 888.66,-153.8 867.66,-153.8 864.66,-149.8 808.34,-149.8 808.34,-113.8 891.66,-113.8 891.66,-149.8"/>
<text text-anchor="middle" x="850" y="-127.6" font-family="Times,serif" font-size="14.00">AppModule</text>
</g>
<!-- AddressModule&#45;&gt;AppModule -->
<g id="edge1" class="edge">
<title>AddressModule&#45;&gt;AppModule</title>
<path fill="none" stroke="black" d="M1613,-84.89C1613,-107.93 1613,-144.8 1613,-144.8 1613,-144.8 901.84,-144.8 901.84,-144.8"/>
<polygon fill="black" stroke="black" points="901.84,-141.3 891.84,-144.8 901.84,-148.3 901.84,-141.3"/>
</g>
<!-- AuthModule -->
<g id="node2" class="node">
<title>AuthModule</title>
<polygon fill="#8dd3c7" stroke="black" points="1542.55,-84.8 1539.55,-88.8 1518.55,-88.8 1515.55,-84.8 1455.45,-84.8 1455.45,-48.8 1542.55,-48.8 1542.55,-84.8"/>
<text text-anchor="middle" x="1499" y="-62.6" font-family="Times,serif" font-size="14.00">AuthModule</text>
</g>
<!-- AuthModule&#45;&gt;AppModule -->
<g id="edge2" class="edge">
<title>AuthModule&#45;&gt;AppModule</title>
<path fill="none" stroke="black" d="M1499,-84.84C1499,-106.46 1499,-139.8 1499,-139.8 1499,-139.8 902.08,-139.8 902.08,-139.8"/>
<polygon fill="black" stroke="black" points="902.08,-136.3 892.08,-139.8 902.08,-143.3 902.08,-136.3"/>
</g>
<!-- CacheModule -->
<g id="node3" class="node">
<title>CacheModule</title>
<polygon fill="#8dd3c7" stroke="black" points="1437.03,-84.8 1434.03,-88.8 1413.03,-88.8 1410.03,-84.8 1342.97,-84.8 1342.97,-48.8 1437.03,-48.8 1437.03,-84.8"/>
<text text-anchor="middle" x="1390" y="-62.6" font-family="Times,serif" font-size="14.00">CacheModule</text>
</g>
<!-- CacheModule&#45;&gt;AppModule -->
<g id="edge3" class="edge">
<title>CacheModule&#45;&gt;AppModule</title>
<path fill="none" stroke="black" d="M1390,-85.02C1390,-105.17 1390,-134.8 1390,-134.8 1390,-134.8 901.92,-134.8 901.92,-134.8"/>
<polygon fill="black" stroke="black" points="901.92,-131.3 891.92,-134.8 901.92,-138.3 901.92,-131.3"/>
</g>
<!-- CartModule -->
<g id="node4" class="node">
<title>CartModule</title>
<polygon fill="#8dd3c7" stroke="black" points="1324.65,-84.8 1321.65,-88.8 1300.65,-88.8 1297.65,-84.8 1241.35,-84.8 1241.35,-48.8 1324.65,-48.8 1324.65,-84.8"/>
<text text-anchor="middle" x="1283" y="-62.6" font-family="Times,serif" font-size="14.00">CartModule</text>
</g>
<!-- CartModule&#45;&gt;AppModule -->
<g id="edge4" class="edge">
<title>CartModule&#45;&gt;AppModule</title>
<path fill="none" stroke="black" d="M1283,-85.02C1283,-103.63 1283,-129.8 1283,-129.8 1283,-129.8 901.91,-129.8 901.91,-129.8"/>
<polygon fill="black" stroke="black" points="901.91,-126.3 891.91,-129.8 901.91,-133.3 901.91,-126.3"/>
</g>
<!-- FilesModule -->
<g id="node5" class="node">
<title>FilesModule</title>
<polygon fill="#8dd3c7" stroke="black" points="1223.27,-84.8 1220.27,-88.8 1199.27,-88.8 1196.27,-84.8 1136.73,-84.8 1136.73,-48.8 1223.27,-48.8 1223.27,-84.8"/>
<text text-anchor="middle" x="1180" y="-62.6" font-family="Times,serif" font-size="14.00">FilesModule</text>
</g>
<!-- FilesModule&#45;&gt;AppModule -->
<g id="edge5" class="edge">
<title>FilesModule&#45;&gt;AppModule</title>
<path fill="none" stroke="black" d="M1180,-84.83C1180,-101.86 1180,-124.8 1180,-124.8 1180,-124.8 901.79,-124.8 901.79,-124.8"/>
<polygon fill="black" stroke="black" points="901.79,-121.3 891.79,-124.8 901.79,-128.3 901.79,-121.3"/>
</g>
<!-- HealthCheckModule -->
<g id="node6" class="node">
<title>HealthCheckModule</title>
<polygon fill="#8dd3c7" stroke="black" points="1118.13,-84.8 1115.13,-88.8 1094.13,-88.8 1091.13,-84.8 985.87,-84.8 985.87,-48.8 1118.13,-48.8 1118.13,-84.8"/>
<text text-anchor="middle" x="1052" y="-62.6" font-family="Times,serif" font-size="14.00">HealthCheckModule</text>
</g>
<!-- HealthCheckModule&#45;&gt;AppModule -->
<g id="edge6" class="edge">
<title>HealthCheckModule&#45;&gt;AppModule</title>
<path fill="none" stroke="black" d="M1052,-85.04C1052,-100.37 1052,-119.8 1052,-119.8 1052,-119.8 901.85,-119.8 901.85,-119.8"/>
<polygon fill="black" stroke="black" points="901.85,-116.3 891.85,-119.8 901.85,-123.3 901.85,-116.3"/>
</g>
<!-- InventoryModule -->
<g id="node7" class="node">
<title>InventoryModule</title>
<polygon fill="#8dd3c7" stroke="black" points="967.98,-84.8 964.98,-88.8 943.98,-88.8 940.98,-84.8 854.02,-84.8 854.02,-48.8 967.98,-48.8 967.98,-84.8"/>
<text text-anchor="middle" x="911" y="-62.6" font-family="Times,serif" font-size="14.00">InventoryModule</text>
</g>
<!-- InventoryModule&#45;&gt;AppModule -->
<g id="edge7" class="edge">
<title>InventoryModule&#45;&gt;AppModule</title>
<path fill="none" stroke="black" d="M872.92,-84.91C872.92,-84.91 872.92,-103.79 872.92,-103.79"/>
<polygon fill="black" stroke="black" points="869.42,-103.79 872.92,-113.79 876.42,-103.79 869.42,-103.79"/>
</g>
<!-- OrderModule -->
<g id="node8" class="node">
<title>OrderModule</title>
<polygon fill="#8dd3c7" stroke="black" points="836.19,-84.8 833.19,-88.8 812.19,-88.8 809.19,-84.8 743.81,-84.8 743.81,-48.8 836.19,-48.8 836.19,-84.8"/>
<text text-anchor="middle" x="790" y="-62.6" font-family="Times,serif" font-size="14.00">OrderModule</text>
</g>
<!-- OrderModule&#45;&gt;AppModule -->
<g id="edge8" class="edge">
<title>OrderModule&#45;&gt;AppModule</title>
<path fill="none" stroke="black" d="M822.13,-84.91C822.13,-84.91 822.13,-103.79 822.13,-103.79"/>
<polygon fill="black" stroke="black" points="818.63,-103.79 822.13,-113.79 825.63,-103.79 818.63,-103.79"/>
</g>
<!-- ProductModule -->
<g id="node9" class="node">
<title>ProductModule</title>
<polygon fill="#8dd3c7" stroke="black" points="725.6,-84.8 722.6,-88.8 701.6,-88.8 698.6,-84.8 622.4,-84.8 622.4,-48.8 725.6,-48.8 725.6,-84.8"/>
<text text-anchor="middle" x="674" y="-62.6" font-family="Times,serif" font-size="14.00">ProductModule</text>
</g>
<!-- ProductModule&#45;&gt;AppModule -->
<g id="edge9" class="edge">
<title>ProductModule&#45;&gt;AppModule</title>
<path fill="none" stroke="black" d="M674,-85.04C674,-100.37 674,-119.8 674,-119.8 674,-119.8 798.29,-119.8 798.29,-119.8"/>
<polygon fill="black" stroke="black" points="798.29,-123.3 808.29,-119.8 798.29,-116.3 798.29,-123.3"/>
</g>
<!-- ReviewModule -->
<g id="node10" class="node">
<title>ReviewModule</title>
<polygon fill="#8dd3c7" stroke="black" points="604.31,-84.8 601.31,-88.8 580.31,-88.8 577.31,-84.8 501.69,-84.8 501.69,-48.8 604.31,-48.8 604.31,-84.8"/>
<text text-anchor="middle" x="553" y="-62.6" font-family="Times,serif" font-size="14.00">ReviewModule</text>
</g>
<!-- ReviewModule&#45;&gt;AppModule -->
<g id="edge10" class="edge">
<title>ReviewModule&#45;&gt;AppModule</title>
<path fill="none" stroke="black" d="M553,-84.83C553,-101.86 553,-124.8 553,-124.8 553,-124.8 798.08,-124.8 798.08,-124.8"/>
<polygon fill="black" stroke="black" points="798.08,-128.3 808.08,-124.8 798.08,-121.3 798.08,-128.3"/>
</g>
<!-- StoryModule -->
<g id="node11" class="node">
<title>StoryModule</title>
<polygon fill="#8dd3c7" stroke="black" points="483.88,-84.8 480.88,-88.8 459.88,-88.8 456.88,-84.8 394.12,-84.8 394.12,-48.8 483.88,-48.8 483.88,-84.8"/>
<text text-anchor="middle" x="439" y="-62.6" font-family="Times,serif" font-size="14.00">StoryModule</text>
</g>
<!-- StoryModule&#45;&gt;AppModule -->
<g id="edge11" class="edge">
<title>StoryModule&#45;&gt;AppModule</title>
<path fill="none" stroke="black" d="M439,-85.02C439,-103.63 439,-129.8 439,-129.8 439,-129.8 798.33,-129.8 798.33,-129.8"/>
<polygon fill="black" stroke="black" points="798.33,-133.3 808.33,-129.8 798.33,-126.3 798.33,-133.3"/>
</g>
<!-- SupportModule -->
<g id="node12" class="node">
<title>SupportModule</title>
<polygon fill="#8dd3c7" stroke="black" points="375.88,-84.8 372.88,-88.8 351.88,-88.8 348.88,-84.8 272.12,-84.8 272.12,-48.8 375.88,-48.8 375.88,-84.8"/>
<text text-anchor="middle" x="324" y="-62.6" font-family="Times,serif" font-size="14.00">SupportModule</text>
</g>
<!-- SupportModule&#45;&gt;AppModule -->
<g id="edge12" class="edge">
<title>SupportModule&#45;&gt;AppModule</title>
<path fill="none" stroke="black" d="M324,-85.02C324,-105.17 324,-134.8 324,-134.8 324,-134.8 798.29,-134.8 798.29,-134.8"/>
<polygon fill="black" stroke="black" points="798.29,-138.3 808.29,-134.8 798.29,-131.3 798.29,-138.3"/>
</g>
<!-- TransactionModule -->
<g id="node13" class="node">
<title>TransactionModule</title>
<polygon fill="#8dd3c7" stroke="black" points="253.63,-84.8 250.63,-88.8 229.63,-88.8 226.63,-84.8 128.37,-84.8 128.37,-48.8 253.63,-48.8 253.63,-84.8"/>
<text text-anchor="middle" x="191" y="-62.6" font-family="Times,serif" font-size="14.00">TransactionModule</text>
</g>
<!-- TransactionModule&#45;&gt;AppModule -->
<g id="edge13" class="edge">
<title>TransactionModule&#45;&gt;AppModule</title>
<path fill="none" stroke="black" d="M191,-84.84C191,-106.46 191,-139.8 191,-139.8 191,-139.8 798.28,-139.8 798.28,-139.8"/>
<polygon fill="black" stroke="black" points="798.28,-143.3 808.28,-139.8 798.28,-136.3 798.28,-143.3"/>
</g>
<!-- UserModule -->
<g id="node14" class="node">
<title>UserModule</title>
<polygon fill="#8dd3c7" stroke="black" points="109.98,-84.8 106.98,-88.8 85.98,-88.8 82.98,-84.8 24.02,-84.8 24.02,-48.8 109.98,-48.8 109.98,-84.8"/>
<text text-anchor="middle" x="67" y="-62.6" font-family="Times,serif" font-size="14.00">UserModule</text>
</g>
<!-- UserModule&#45;&gt;AppModule -->
<g id="edge14" class="edge">
<title>UserModule&#45;&gt;AppModule</title>
<path fill="none" stroke="black" d="M67,-84.89C67,-107.93 67,-144.8 67,-144.8 67,-144.8 798.18,-144.8 798.18,-144.8"/>
<polygon fill="black" stroke="black" points="798.18,-148.3 808.18,-144.8 798.18,-141.3 798.18,-148.3"/>
</g>
</g>
</svg>
