<?xml version="1.0" encoding="UTF-8" standalone="no"?>
<!DOCTYPE svg PUBLIC "-//W3C//DTD SVG 1.1//EN"
 "http://www.w3.org/Graphics/SVG/1.1/DTD/svg11.dtd">
<!-- Generated by graphviz version 2.47.3 (20210619.1520)
 -->
<!-- Title: dependencies Pages: 1 -->
<svg width="326pt" height="247pt"
 viewBox="0.00 0.00 326.00 246.80" xmlns="http://www.w3.org/2000/svg" xmlns:xlink="http://www.w3.org/1999/xlink">
<g id="graph0" class="graph" transform="scale(1 1) rotate(0) translate(4 242.8)">
<title>dependencies</title>
<polygon fill="white" stroke="transparent" points="-4,4 -4,-242.8 322,-242.8 322,4 -4,4"/>
<text text-anchor="middle" x="159" y="-8.2" font-family="sans-serif" font-size="14.00">dependencies</text>
<g id="clust1" class="cluster">
<title>cluster_FilesModule</title>
<polygon fill="none" stroke="black" stroke-dasharray="1,5" points="8,-32.8 8,-230.8 310,-230.8 310,-32.8 8,-32.8"/>
</g>
<g id="clust6" class="cluster">
<title>cluster_FilesModule_providers</title>
<polygon fill="none" stroke="black" points="16,-40.8 16,-92.8 302,-92.8 302,-40.8 16,-40.8"/>
</g>
<g id="clust4" class="cluster">
<title>cluster_FilesModule_exports</title>
<polygon fill="none" stroke="black" points="111,-170.8 111,-222.8 215,-222.8 215,-170.8 111,-170.8"/>
</g>
<!-- FilesService  -->
<g id="node1" class="node">
<title>FilesService </title>
<polygon fill="#fb8072" stroke="black" points="207.2,-214.8 118.8,-214.8 118.8,-178.8 207.2,-178.8 207.2,-214.8"/>
<text text-anchor="middle" x="163" y="-192.6" font-family="Times,serif" font-size="14.00">FilesService </text>
</g>
<!-- FilesModule -->
<g id="node2" class="node">
<title>FilesModule</title>
<polygon fill="#8dd3c7" stroke="black" points="206.27,-149.8 203.27,-153.8 182.27,-153.8 179.27,-149.8 119.73,-149.8 119.73,-113.8 206.27,-113.8 206.27,-149.8"/>
<text text-anchor="middle" x="163" y="-127.6" font-family="Times,serif" font-size="14.00">FilesModule</text>
</g>
<!-- FilesModule&#45;&gt;FilesService  -->
<g id="edge1" class="edge">
<title>FilesModule&#45;&gt;FilesService </title>
<path fill="none" stroke="black" stroke-dasharray="5,2" d="M163,-149.91C163,-149.91 163,-168.79 163,-168.79"/>
<polygon fill="black" stroke="black" points="159.5,-168.79 163,-178.79 166.5,-168.79 159.5,-168.79"/>
</g>
<!-- FilesService -->
<g id="node3" class="node">
<title>FilesService</title>
<ellipse fill="#fdb462" stroke="black" cx="235" cy="-66.8" rx="58.54" ry="18"/>
<text text-anchor="middle" x="235" y="-62.6" font-family="Times,serif" font-size="14.00">FilesService</text>
</g>
<!-- FilesService&#45;&gt;FilesModule -->
<g id="edge2" class="edge">
<title>FilesService&#45;&gt;FilesModule</title>
<path fill="none" stroke="black" d="M191.31,-79.03C191.31,-79.03 191.31,-103.48 191.31,-103.48"/>
<polygon fill="black" stroke="black" points="187.81,-103.48 191.31,-113.48 194.81,-103.48 187.81,-103.48"/>
</g>
<!-- PrismaService -->
<g id="node4" class="node">
<title>PrismaService</title>
<ellipse fill="#fdb462" stroke="black" cx="91" cy="-66.8" rx="66.63" ry="18"/>
<text text-anchor="middle" x="91" y="-62.6" font-family="Times,serif" font-size="14.00">PrismaService</text>
</g>
<!-- PrismaService&#45;&gt;FilesModule -->
<g id="edge3" class="edge">
<title>PrismaService&#45;&gt;FilesModule</title>
<path fill="none" stroke="black" d="M138.71,-79.64C138.71,-79.64 138.71,-103.32 138.71,-103.32"/>
<polygon fill="black" stroke="black" points="135.21,-103.32 138.71,-113.32 142.21,-103.32 135.21,-103.32"/>
</g>
</g>
</svg>
