<?xml version="1.0" encoding="UTF-8" standalone="no"?>
<!DOCTYPE svg PUBLIC "-//W3C//DTD SVG 1.1//EN"
 "http://www.w3.org/Graphics/SVG/1.1/DTD/svg11.dtd">
<!-- Generated by graphviz version 2.47.3 (20210619.1520)
 -->
<!-- Title: dependencies Pages: 1 -->
<svg width="302pt" height="247pt"
 viewBox="0.00 0.00 302.00 246.80" xmlns="http://www.w3.org/2000/svg" xmlns:xlink="http://www.w3.org/1999/xlink">
<g id="graph0" class="graph" transform="scale(1 1) rotate(0) translate(4 242.8)">
<title>dependencies</title>
<polygon fill="white" stroke="transparent" points="-4,4 -4,-242.8 298,-242.8 298,4 -4,4"/>
<text text-anchor="middle" x="147" y="-8.2" font-family="sans-serif" font-size="14.00">dependencies</text>
<g id="clust1" class="cluster">
<title>cluster_BrandModule</title>
<polygon fill="none" stroke="black" stroke-dasharray="1,5" points="8,-32.8 8,-230.8 286,-230.8 286,-32.8 8,-32.8"/>
</g>
<g id="clust6" class="cluster">
<title>cluster_BrandModule_providers</title>
<polygon fill="none" stroke="black" points="134,-40.8 134,-92.8 278,-92.8 278,-40.8 134,-40.8"/>
</g>
<g id="clust4" class="cluster">
<title>cluster_BrandModule_exports</title>
<polygon fill="none" stroke="black" points="83,-170.8 83,-222.8 195,-222.8 195,-170.8 83,-170.8"/>
</g>
<g id="clust3" class="cluster">
<title>cluster_BrandModule_imports</title>
<polygon fill="none" stroke="black" points="16,-40.8 16,-92.8 126,-92.8 126,-40.8 16,-40.8"/>
</g>
<!-- CacheModule -->
<g id="node1" class="node">
<title>CacheModule</title>
<polygon fill="#8dd3c7" stroke="black" points="118.03,-84.8 115.03,-88.8 94.03,-88.8 91.03,-84.8 23.97,-84.8 23.97,-48.8 118.03,-48.8 118.03,-84.8"/>
<text text-anchor="middle" x="71" y="-62.6" font-family="Times,serif" font-size="14.00">CacheModule</text>
</g>
<!-- BrandModule -->
<g id="node2" class="node">
<title>BrandModule</title>
<polygon fill="#8dd3c7" stroke="black" points="185.76,-149.8 182.76,-153.8 161.76,-153.8 158.76,-149.8 92.24,-149.8 92.24,-113.8 185.76,-113.8 185.76,-149.8"/>
<text text-anchor="middle" x="139" y="-127.6" font-family="Times,serif" font-size="14.00">BrandModule</text>
</g>
<!-- CacheModule&#45;&gt;BrandModule -->
<g id="edge1" class="edge">
<title>CacheModule&#45;&gt;BrandModule</title>
<path fill="none" stroke="black" d="M105.19,-84.91C105.19,-84.91 105.19,-103.79 105.19,-103.79"/>
<polygon fill="black" stroke="black" points="101.69,-103.79 105.19,-113.79 108.69,-103.79 101.69,-103.79"/>
</g>
<!-- BrandService  -->
<g id="node3" class="node">
<title>BrandService </title>
<polygon fill="#fb8072" stroke="black" points="186.69,-214.8 91.31,-214.8 91.31,-178.8 186.69,-178.8 186.69,-214.8"/>
<text text-anchor="middle" x="139" y="-192.6" font-family="Times,serif" font-size="14.00">BrandService </text>
</g>
<!-- BrandModule&#45;&gt;BrandService  -->
<g id="edge2" class="edge">
<title>BrandModule&#45;&gt;BrandService </title>
<path fill="none" stroke="black" stroke-dasharray="5,2" d="M139,-149.91C139,-149.91 139,-168.79 139,-168.79"/>
<polygon fill="black" stroke="black" points="135.5,-168.79 139,-178.79 142.5,-168.79 135.5,-168.79"/>
</g>
<!-- BrandService -->
<g id="node4" class="node">
<title>BrandService</title>
<ellipse fill="#fdb462" stroke="black" cx="206" cy="-66.8" rx="63.68" ry="18"/>
<text text-anchor="middle" x="206" y="-62.6" font-family="Times,serif" font-size="14.00">BrandService</text>
</g>
<!-- BrandService&#45;&gt;BrandModule -->
<g id="edge3" class="edge">
<title>BrandService&#45;&gt;BrandModule</title>
<path fill="none" stroke="black" d="M164.15,-80.58C164.15,-80.58 164.15,-103.35 164.15,-103.35"/>
<polygon fill="black" stroke="black" points="160.65,-103.35 164.15,-113.35 167.65,-103.35 160.65,-103.35"/>
</g>
</g>
</svg>
