<?xml version="1.0" encoding="UTF-8" standalone="no"?>
<!DOCTYPE svg PUBLIC "-//W3C//DTD SVG 1.1//EN"
 "http://www.w3.org/Graphics/SVG/1.1/DTD/svg11.dtd">
<!-- Generated by graphviz version 2.47.3 (20210619.1520)
 -->
<!-- Title: dependencies Pages: 1 -->
<svg width="302pt" height="247pt"
 viewBox="0.00 0.00 302.00 246.80" xmlns="http://www.w3.org/2000/svg" xmlns:xlink="http://www.w3.org/1999/xlink">
<g id="graph0" class="graph" transform="scale(1 1) rotate(0) translate(4 242.8)">
<title>dependencies</title>
<polygon fill="white" stroke="transparent" points="-4,4 -4,-242.8 298,-242.8 298,4 -4,4"/>
<text text-anchor="middle" x="147" y="-8.2" font-family="sans-serif" font-size="14.00">dependencies</text>
<g id="clust1" class="cluster">
<title>cluster_BrandModule</title>
<polygon fill="none" stroke="black" stroke-dasharray="1,5" points="8,-32.8 8,-230.8 286,-230.8 286,-32.8 8,-32.8"/>
</g>
<g id="clust3" class="cluster">
<title>cluster_BrandModule_imports</title>
<polygon fill="none" stroke="black" points="168,-40.8 168,-92.8 278,-92.8 278,-40.8 168,-40.8"/>
</g>
<g id="clust4" class="cluster">
<title>cluster_BrandModule_exports</title>
<polygon fill="none" stroke="black" points="99,-170.8 99,-222.8 211,-222.8 211,-170.8 99,-170.8"/>
</g>
<g id="clust6" class="cluster">
<title>cluster_BrandModule_providers</title>
<polygon fill="none" stroke="black" points="16,-40.8 16,-92.8 160,-92.8 160,-40.8 16,-40.8"/>
</g>
<!-- CacheModule -->
<g id="node1" class="node">
<title>CacheModule</title>
<polygon fill="#8dd3c7" stroke="black" points="270.03,-84.8 267.03,-88.8 246.03,-88.8 243.03,-84.8 175.97,-84.8 175.97,-48.8 270.03,-48.8 270.03,-84.8"/>
<text text-anchor="middle" x="223" y="-62.6" font-family="Times,serif" font-size="14.00">CacheModule</text>
</g>
<!-- BrandModule -->
<g id="node2" class="node">
<title>BrandModule</title>
<polygon fill="#8dd3c7" stroke="black" points="201.76,-149.8 198.76,-153.8 177.76,-153.8 174.76,-149.8 108.24,-149.8 108.24,-113.8 201.76,-113.8 201.76,-149.8"/>
<text text-anchor="middle" x="155" y="-127.6" font-family="Times,serif" font-size="14.00">BrandModule</text>
</g>
<!-- CacheModule&#45;&gt;BrandModule -->
<g id="edge1" class="edge">
<title>CacheModule&#45;&gt;BrandModule</title>
<path fill="none" stroke="black" d="M188.81,-84.91C188.81,-84.91 188.81,-103.79 188.81,-103.79"/>
<polygon fill="black" stroke="black" points="185.31,-103.79 188.81,-113.79 192.31,-103.79 185.31,-103.79"/>
</g>
<!-- BrandService  -->
<g id="node3" class="node">
<title>BrandService </title>
<polygon fill="#fb8072" stroke="black" points="202.69,-214.8 107.31,-214.8 107.31,-178.8 202.69,-178.8 202.69,-214.8"/>
<text text-anchor="middle" x="155" y="-192.6" font-family="Times,serif" font-size="14.00">BrandService </text>
</g>
<!-- BrandModule&#45;&gt;BrandService  -->
<g id="edge2" class="edge">
<title>BrandModule&#45;&gt;BrandService </title>
<path fill="none" stroke="black" stroke-dasharray="5,2" d="M155,-149.91C155,-149.91 155,-168.79 155,-168.79"/>
<polygon fill="black" stroke="black" points="151.5,-168.79 155,-178.79 158.5,-168.79 151.5,-168.79"/>
</g>
<!-- BrandService -->
<g id="node4" class="node">
<title>BrandService</title>
<ellipse fill="#fdb462" stroke="black" cx="88" cy="-66.8" rx="63.68" ry="18"/>
<text text-anchor="middle" x="88" y="-62.6" font-family="Times,serif" font-size="14.00">BrandService</text>
</g>
<!-- BrandService&#45;&gt;BrandModule -->
<g id="edge3" class="edge">
<title>BrandService&#45;&gt;BrandModule</title>
<path fill="none" stroke="black" d="M129.85,-80.58C129.85,-80.58 129.85,-103.35 129.85,-103.35"/>
<polygon fill="black" stroke="black" points="126.35,-103.35 129.85,-113.35 133.35,-103.35 126.35,-103.35"/>
</g>
</g>
</svg>
