<?xml version="1.0" encoding="UTF-8" standalone="no"?>
<!DOCTYPE svg PUBLIC "-//W3C//DTD SVG 1.1//EN"
 "http://www.w3.org/Graphics/SVG/1.1/DTD/svg11.dtd">
<!-- Generated by graphviz version 2.47.3 (20210619.1520)
 -->
<!-- Title: dependencies Pages: 1 -->
<svg width="453pt" height="247pt"
 viewBox="0.00 0.00 453.00 246.80" xmlns="http://www.w3.org/2000/svg" xmlns:xlink="http://www.w3.org/1999/xlink">
<g id="graph0" class="graph" transform="scale(1 1) rotate(0) translate(4 242.8)">
<title>dependencies</title>
<polygon fill="white" stroke="transparent" points="-4,4 -4,-242.8 449,-242.8 449,4 -4,4"/>
<text text-anchor="middle" x="222.5" y="-8.2" font-family="sans-serif" font-size="14.00">dependencies</text>
<g id="clust1" class="cluster">
<title>cluster_BrandModule</title>
<polygon fill="none" stroke="black" stroke-dasharray="1,5" points="8,-32.8 8,-230.8 437,-230.8 437,-32.8 8,-32.8"/>
</g>
<g id="clust3" class="cluster">
<title>cluster_BrandModule_imports</title>
<polygon fill="none" stroke="black" points="319,-40.8 319,-92.8 429,-92.8 429,-40.8 319,-40.8"/>
</g>
<g id="clust6" class="cluster">
<title>cluster_BrandModule_providers</title>
<polygon fill="none" stroke="black" points="16,-40.8 16,-92.8 311,-92.8 311,-40.8 16,-40.8"/>
</g>
<g id="clust4" class="cluster">
<title>cluster_BrandModule_exports</title>
<polygon fill="none" stroke="black" points="183,-170.8 183,-222.8 295,-222.8 295,-170.8 183,-170.8"/>
</g>
<!-- CacheModule -->
<g id="node1" class="node">
<title>CacheModule</title>
<polygon fill="#8dd3c7" stroke="black" points="421.03,-84.8 418.03,-88.8 397.03,-88.8 394.03,-84.8 326.97,-84.8 326.97,-48.8 421.03,-48.8 421.03,-84.8"/>
<text text-anchor="middle" x="374" y="-62.6" font-family="Times,serif" font-size="14.00">CacheModule</text>
</g>
<!-- BrandModule -->
<g id="node2" class="node">
<title>BrandModule</title>
<polygon fill="#8dd3c7" stroke="black" points="285.76,-149.8 282.76,-153.8 261.76,-153.8 258.76,-149.8 192.24,-149.8 192.24,-113.8 285.76,-113.8 285.76,-149.8"/>
<text text-anchor="middle" x="239" y="-127.6" font-family="Times,serif" font-size="14.00">BrandModule</text>
</g>
<!-- CacheModule&#45;&gt;BrandModule -->
<g id="edge1" class="edge">
<title>CacheModule&#45;&gt;BrandModule</title>
<path fill="none" stroke="black" d="M374,-84.91C374,-104.14 374,-131.8 374,-131.8 374,-131.8 295.84,-131.8 295.84,-131.8"/>
<polygon fill="black" stroke="black" points="295.84,-128.3 285.84,-131.8 295.84,-135.3 295.84,-128.3"/>
</g>
<!-- BrandService  -->
<g id="node3" class="node">
<title>BrandService </title>
<polygon fill="#fb8072" stroke="black" points="286.69,-214.8 191.31,-214.8 191.31,-178.8 286.69,-178.8 286.69,-214.8"/>
<text text-anchor="middle" x="239" y="-192.6" font-family="Times,serif" font-size="14.00">BrandService </text>
</g>
<!-- BrandModule&#45;&gt;BrandService  -->
<g id="edge2" class="edge">
<title>BrandModule&#45;&gt;BrandService </title>
<path fill="none" stroke="black" stroke-dasharray="5,2" d="M239,-149.91C239,-149.91 239,-168.79 239,-168.79"/>
<polygon fill="black" stroke="black" points="235.5,-168.79 239,-178.79 242.5,-168.79 235.5,-168.79"/>
</g>
<!-- BrandService -->
<g id="node4" class="node">
<title>BrandService</title>
<ellipse fill="#fdb462" stroke="black" cx="239" cy="-66.8" rx="63.68" ry="18"/>
<text text-anchor="middle" x="239" y="-62.6" font-family="Times,serif" font-size="14.00">BrandService</text>
</g>
<!-- BrandService&#45;&gt;BrandModule -->
<g id="edge3" class="edge">
<title>BrandService&#45;&gt;BrandModule</title>
<path fill="none" stroke="black" d="M239,-84.91C239,-84.91 239,-103.79 239,-103.79"/>
<polygon fill="black" stroke="black" points="235.5,-103.79 239,-113.79 242.5,-103.79 235.5,-103.79"/>
</g>
<!-- PrismaService -->
<g id="node5" class="node">
<title>PrismaService</title>
<ellipse fill="#fdb462" stroke="black" cx="91" cy="-66.8" rx="66.63" ry="18"/>
<text text-anchor="middle" x="91" y="-62.6" font-family="Times,serif" font-size="14.00">PrismaService</text>
</g>
<!-- PrismaService&#45;&gt;BrandModule -->
<g id="edge4" class="edge">
<title>PrismaService&#45;&gt;BrandModule</title>
<path fill="none" stroke="black" d="M91,-84.91C91,-104.14 91,-131.8 91,-131.8 91,-131.8 182.17,-131.8 182.17,-131.8"/>
<polygon fill="black" stroke="black" points="182.17,-135.3 192.17,-131.8 182.17,-128.3 182.17,-135.3"/>
</g>
</g>
</svg>
