<?xml version="1.0" encoding="UTF-8" standalone="no"?>
<!DOCTYPE svg PUBLIC "-//W3C//DTD SVG 1.1//EN"
 "http://www.w3.org/Graphics/SVG/1.1/DTD/svg11.dtd">
<!-- Generated by graphviz version 2.47.3 (20210619.1520)
 -->
<!-- Title: dependencies Pages: 1 -->
<svg width="312pt" height="247pt"
 viewBox="0.00 0.00 312.00 246.80" xmlns="http://www.w3.org/2000/svg" xmlns:xlink="http://www.w3.org/1999/xlink">
<g id="graph0" class="graph" transform="scale(1 1) rotate(0) translate(4 242.8)">
<title>dependencies</title>
<polygon fill="white" stroke="transparent" points="-4,4 -4,-242.8 308,-242.8 308,4 -4,4"/>
<text text-anchor="middle" x="152" y="-8.2" font-family="sans-serif" font-size="14.00">dependencies</text>
<g id="clust1" class="cluster">
<title>cluster_ReviewModule</title>
<polygon fill="none" stroke="black" stroke-dasharray="1,5" points="8,-32.8 8,-230.8 296,-230.8 296,-32.8 8,-32.8"/>
</g>
<g id="clust4" class="cluster">
<title>cluster_ReviewModule_exports</title>
<polygon fill="none" stroke="black" points="83,-170.8 83,-222.8 203,-222.8 203,-170.8 83,-170.8"/>
</g>
<g id="clust6" class="cluster">
<title>cluster_ReviewModule_providers</title>
<polygon fill="none" stroke="black" points="134,-40.8 134,-92.8 288,-92.8 288,-40.8 134,-40.8"/>
</g>
<g id="clust3" class="cluster">
<title>cluster_ReviewModule_imports</title>
<polygon fill="none" stroke="black" points="16,-40.8 16,-92.8 126,-92.8 126,-40.8 16,-40.8"/>
</g>
<!-- CacheModule -->
<g id="node1" class="node">
<title>CacheModule</title>
<polygon fill="#8dd3c7" stroke="black" points="118.03,-84.8 115.03,-88.8 94.03,-88.8 91.03,-84.8 23.97,-84.8 23.97,-48.8 118.03,-48.8 118.03,-84.8"/>
<text text-anchor="middle" x="71" y="-62.6" font-family="Times,serif" font-size="14.00">CacheModule</text>
</g>
<!-- ReviewModule -->
<g id="node2" class="node">
<title>ReviewModule</title>
<polygon fill="#8dd3c7" stroke="black" points="194.31,-149.8 191.31,-153.8 170.31,-153.8 167.31,-149.8 91.69,-149.8 91.69,-113.8 194.31,-113.8 194.31,-149.8"/>
<text text-anchor="middle" x="143" y="-127.6" font-family="Times,serif" font-size="14.00">ReviewModule</text>
</g>
<!-- CacheModule&#45;&gt;ReviewModule -->
<g id="edge1" class="edge">
<title>CacheModule&#45;&gt;ReviewModule</title>
<path fill="none" stroke="black" d="M105.05,-84.91C105.05,-84.91 105.05,-103.79 105.05,-103.79"/>
<polygon fill="black" stroke="black" points="101.55,-103.79 105.05,-113.79 108.55,-103.79 101.55,-103.79"/>
</g>
<!-- ReviewService  -->
<g id="node3" class="node">
<title>ReviewService </title>
<polygon fill="#fb8072" stroke="black" points="195.24,-214.8 90.76,-214.8 90.76,-178.8 195.24,-178.8 195.24,-214.8"/>
<text text-anchor="middle" x="143" y="-192.6" font-family="Times,serif" font-size="14.00">ReviewService </text>
</g>
<!-- ReviewModule&#45;&gt;ReviewService  -->
<g id="edge2" class="edge">
<title>ReviewModule&#45;&gt;ReviewService </title>
<path fill="none" stroke="black" stroke-dasharray="5,2" d="M143,-149.91C143,-149.91 143,-168.79 143,-168.79"/>
<polygon fill="black" stroke="black" points="139.5,-168.79 143,-178.79 146.5,-168.79 139.5,-168.79"/>
</g>
<!-- ReviewService -->
<g id="node4" class="node">
<title>ReviewService</title>
<ellipse fill="#fdb462" stroke="black" cx="211" cy="-66.8" rx="69.48" ry="18"/>
<text text-anchor="middle" x="211" y="-62.6" font-family="Times,serif" font-size="14.00">ReviewService</text>
</g>
<!-- ReviewService&#45;&gt;ReviewModule -->
<g id="edge3" class="edge">
<title>ReviewService&#45;&gt;ReviewModule</title>
<path fill="none" stroke="black" d="M167.83,-81.23C167.83,-81.23 167.83,-103.69 167.83,-103.69"/>
<polygon fill="black" stroke="black" points="164.33,-103.69 167.83,-113.69 171.33,-103.69 164.33,-103.69"/>
</g>
</g>
</svg>
