<?xml version="1.0" encoding="UTF-8" standalone="no"?>
<!DOCTYPE svg PUBLIC "-//W3C//DTD SVG 1.1//EN"
 "http://www.w3.org/Graphics/SVG/1.1/DTD/svg11.dtd">
<!-- Generated by graphviz version 2.47.3 (20210619.1520)
 -->
<!-- Title: dependencies Pages: 1 -->
<svg width="464pt" height="247pt"
 viewBox="0.00 0.00 464.00 246.80" xmlns="http://www.w3.org/2000/svg" xmlns:xlink="http://www.w3.org/1999/xlink">
<g id="graph0" class="graph" transform="scale(1 1) rotate(0) translate(4 242.8)">
<title>dependencies</title>
<polygon fill="white" stroke="transparent" points="-4,4 -4,-242.8 460,-242.8 460,4 -4,4"/>
<text text-anchor="middle" x="228" y="-8.2" font-family="sans-serif" font-size="14.00">dependencies</text>
<g id="clust1" class="cluster">
<title>cluster_ReviewModule</title>
<polygon fill="none" stroke="black" stroke-dasharray="1,5" points="8,-32.8 8,-230.8 448,-230.8 448,-32.8 8,-32.8"/>
</g>
<g id="clust4" class="cluster">
<title>cluster_ReviewModule_exports</title>
<polygon fill="none" stroke="black" points="187,-170.8 187,-222.8 307,-222.8 307,-170.8 187,-170.8"/>
</g>
<g id="clust3" class="cluster">
<title>cluster_ReviewModule_imports</title>
<polygon fill="none" stroke="black" points="330,-40.8 330,-92.8 440,-92.8 440,-40.8 330,-40.8"/>
</g>
<g id="clust6" class="cluster">
<title>cluster_ReviewModule_providers</title>
<polygon fill="none" stroke="black" points="16,-40.8 16,-92.8 322,-92.8 322,-40.8 16,-40.8"/>
</g>
<!-- CacheModule -->
<g id="node1" class="node">
<title>CacheModule</title>
<polygon fill="#8dd3c7" stroke="black" points="432.03,-84.8 429.03,-88.8 408.03,-88.8 405.03,-84.8 337.97,-84.8 337.97,-48.8 432.03,-48.8 432.03,-84.8"/>
<text text-anchor="middle" x="385" y="-62.6" font-family="Times,serif" font-size="14.00">CacheModule</text>
</g>
<!-- ReviewModule -->
<g id="node2" class="node">
<title>ReviewModule</title>
<polygon fill="#8dd3c7" stroke="black" points="298.31,-149.8 295.31,-153.8 274.31,-153.8 271.31,-149.8 195.69,-149.8 195.69,-113.8 298.31,-113.8 298.31,-149.8"/>
<text text-anchor="middle" x="247" y="-127.6" font-family="Times,serif" font-size="14.00">ReviewModule</text>
</g>
<!-- CacheModule&#45;&gt;ReviewModule -->
<g id="edge1" class="edge">
<title>CacheModule&#45;&gt;ReviewModule</title>
<path fill="none" stroke="black" d="M385,-84.91C385,-104.14 385,-131.8 385,-131.8 385,-131.8 308.39,-131.8 308.39,-131.8"/>
<polygon fill="black" stroke="black" points="308.39,-128.3 298.39,-131.8 308.39,-135.3 308.39,-128.3"/>
</g>
<!-- ReviewService  -->
<g id="node3" class="node">
<title>ReviewService </title>
<polygon fill="#fb8072" stroke="black" points="299.24,-214.8 194.76,-214.8 194.76,-178.8 299.24,-178.8 299.24,-214.8"/>
<text text-anchor="middle" x="247" y="-192.6" font-family="Times,serif" font-size="14.00">ReviewService </text>
</g>
<!-- ReviewModule&#45;&gt;ReviewService  -->
<g id="edge2" class="edge">
<title>ReviewModule&#45;&gt;ReviewService </title>
<path fill="none" stroke="black" stroke-dasharray="5,2" d="M247,-149.91C247,-149.91 247,-168.79 247,-168.79"/>
<polygon fill="black" stroke="black" points="243.5,-168.79 247,-178.79 250.5,-168.79 243.5,-168.79"/>
</g>
<!-- PrismaService -->
<g id="node4" class="node">
<title>PrismaService</title>
<ellipse fill="#fdb462" stroke="black" cx="247" cy="-66.8" rx="66.63" ry="18"/>
<text text-anchor="middle" x="247" y="-62.6" font-family="Times,serif" font-size="14.00">PrismaService</text>
</g>
<!-- PrismaService&#45;&gt;ReviewModule -->
<g id="edge3" class="edge">
<title>PrismaService&#45;&gt;ReviewModule</title>
<path fill="none" stroke="black" d="M247,-84.91C247,-84.91 247,-103.79 247,-103.79"/>
<polygon fill="black" stroke="black" points="243.5,-103.79 247,-113.79 250.5,-103.79 243.5,-103.79"/>
</g>
<!-- ReviewService -->
<g id="node5" class="node">
<title>ReviewService</title>
<ellipse fill="#fdb462" stroke="black" cx="93" cy="-66.8" rx="69.48" ry="18"/>
<text text-anchor="middle" x="93" y="-62.6" font-family="Times,serif" font-size="14.00">ReviewService</text>
</g>
<!-- ReviewService&#45;&gt;ReviewModule -->
<g id="edge4" class="edge">
<title>ReviewService&#45;&gt;ReviewModule</title>
<path fill="none" stroke="black" d="M93,-84.91C93,-104.14 93,-131.8 93,-131.8 93,-131.8 185.72,-131.8 185.72,-131.8"/>
<polygon fill="black" stroke="black" points="185.72,-135.3 195.72,-131.8 185.72,-128.3 185.72,-135.3"/>
</g>
</g>
</svg>
