<?xml version="1.0" encoding="UTF-8" standalone="no"?>
<!DOCTYPE svg PUBLIC "-//W3C//DTD SVG 1.1//EN"
 "http://www.w3.org/Graphics/SVG/1.1/DTD/svg11.dtd">
<!-- Generated by graphviz version 2.47.3 (20210619.1520)
 -->
<!-- Title: dependencies Pages: 1 -->
<svg width="296pt" height="247pt"
 viewBox="0.00 0.00 296.00 246.80" xmlns="http://www.w3.org/2000/svg" xmlns:xlink="http://www.w3.org/1999/xlink">
<g id="graph0" class="graph" transform="scale(1 1) rotate(0) translate(4 242.8)">
<title>dependencies</title>
<polygon fill="white" stroke="transparent" points="-4,4 -4,-242.8 292,-242.8 292,4 -4,4"/>
<text text-anchor="middle" x="144" y="-8.2" font-family="sans-serif" font-size="14.00">dependencies</text>
<g id="clust1" class="cluster">
<title>cluster_StoryModule</title>
<polygon fill="none" stroke="black" stroke-dasharray="1,5" points="8,-32.8 8,-230.8 280,-230.8 280,-32.8 8,-32.8"/>
</g>
<g id="clust4" class="cluster">
<title>cluster_StoryModule_exports</title>
<polygon fill="none" stroke="black" points="83,-170.8 83,-222.8 191,-222.8 191,-170.8 83,-170.8"/>
</g>
<g id="clust6" class="cluster">
<title>cluster_StoryModule_providers</title>
<polygon fill="none" stroke="black" points="134,-40.8 134,-92.8 272,-92.8 272,-40.8 134,-40.8"/>
</g>
<g id="clust3" class="cluster">
<title>cluster_StoryModule_imports</title>
<polygon fill="none" stroke="black" points="16,-40.8 16,-92.8 126,-92.8 126,-40.8 16,-40.8"/>
</g>
<!-- CacheModule -->
<g id="node1" class="node">
<title>CacheModule</title>
<polygon fill="#8dd3c7" stroke="black" points="118.03,-84.8 115.03,-88.8 94.03,-88.8 91.03,-84.8 23.97,-84.8 23.97,-48.8 118.03,-48.8 118.03,-84.8"/>
<text text-anchor="middle" x="71" y="-62.6" font-family="Times,serif" font-size="14.00">CacheModule</text>
</g>
<!-- StoryModule -->
<g id="node2" class="node">
<title>StoryModule</title>
<polygon fill="#8dd3c7" stroke="black" points="181.88,-149.8 178.88,-153.8 157.88,-153.8 154.88,-149.8 92.12,-149.8 92.12,-113.8 181.88,-113.8 181.88,-149.8"/>
<text text-anchor="middle" x="137" y="-127.6" font-family="Times,serif" font-size="14.00">StoryModule</text>
</g>
<!-- CacheModule&#45;&gt;StoryModule -->
<g id="edge1" class="edge">
<title>CacheModule&#45;&gt;StoryModule</title>
<path fill="none" stroke="black" d="M105.16,-84.91C105.16,-84.91 105.16,-103.79 105.16,-103.79"/>
<polygon fill="black" stroke="black" points="101.66,-103.79 105.16,-113.79 108.66,-103.79 101.66,-103.79"/>
</g>
<!-- StoryService  -->
<g id="node3" class="node">
<title>StoryService </title>
<polygon fill="#fb8072" stroke="black" points="182.81,-214.8 91.19,-214.8 91.19,-178.8 182.81,-178.8 182.81,-214.8"/>
<text text-anchor="middle" x="137" y="-192.6" font-family="Times,serif" font-size="14.00">StoryService </text>
</g>
<!-- StoryModule&#45;&gt;StoryService  -->
<g id="edge2" class="edge">
<title>StoryModule&#45;&gt;StoryService </title>
<path fill="none" stroke="black" stroke-dasharray="5,2" d="M137,-149.91C137,-149.91 137,-168.79 137,-168.79"/>
<polygon fill="black" stroke="black" points="133.5,-168.79 137,-178.79 140.5,-168.79 133.5,-168.79"/>
</g>
<!-- StoryService -->
<g id="node4" class="node">
<title>StoryService</title>
<ellipse fill="#fdb462" stroke="black" cx="203" cy="-66.8" rx="60.83" ry="18"/>
<text text-anchor="middle" x="203" y="-62.6" font-family="Times,serif" font-size="14.00">StoryService</text>
</g>
<!-- StoryService&#45;&gt;StoryModule -->
<g id="edge3" class="edge">
<title>StoryService&#45;&gt;StoryModule</title>
<path fill="none" stroke="black" d="M162.01,-80.27C162.01,-80.27 162.01,-103.66 162.01,-103.66"/>
<polygon fill="black" stroke="black" points="158.51,-103.66 162.01,-113.66 165.51,-103.66 158.51,-103.66"/>
</g>
</g>
</svg>
