<?xml version="1.0" encoding="UTF-8" standalone="no"?>
<!DOCTYPE svg PUBLIC "-//W3C//DTD SVG 1.1//EN"
 "http://www.w3.org/Graphics/SVG/1.1/DTD/svg11.dtd">
<!-- Generated by graphviz version 2.47.3 (20210619.1520)
 -->
<!-- Title: dependencies Pages: 1 -->
<svg width="448pt" height="247pt"
 viewBox="0.00 0.00 448.00 246.80" xmlns="http://www.w3.org/2000/svg" xmlns:xlink="http://www.w3.org/1999/xlink">
<g id="graph0" class="graph" transform="scale(1 1) rotate(0) translate(4 242.8)">
<title>dependencies</title>
<polygon fill="white" stroke="transparent" points="-4,4 -4,-242.8 444,-242.8 444,4 -4,4"/>
<text text-anchor="middle" x="220" y="-8.2" font-family="sans-serif" font-size="14.00">dependencies</text>
<g id="clust1" class="cluster">
<title>cluster_StoryModule</title>
<polygon fill="none" stroke="black" stroke-dasharray="1,5" points="8,-32.8 8,-230.8 432,-230.8 432,-32.8 8,-32.8"/>
</g>
<g id="clust3" class="cluster">
<title>cluster_StoryModule_imports</title>
<polygon fill="none" stroke="black" points="314,-40.8 314,-92.8 424,-92.8 424,-40.8 314,-40.8"/>
</g>
<g id="clust4" class="cluster">
<title>cluster_StoryModule_exports</title>
<polygon fill="none" stroke="black" points="177,-170.8 177,-222.8 285,-222.8 285,-170.8 177,-170.8"/>
</g>
<g id="clust6" class="cluster">
<title>cluster_StoryModule_providers</title>
<polygon fill="none" stroke="black" points="16,-40.8 16,-92.8 306,-92.8 306,-40.8 16,-40.8"/>
</g>
<!-- CacheModule -->
<g id="node1" class="node">
<title>CacheModule</title>
<polygon fill="#8dd3c7" stroke="black" points="416.03,-84.8 413.03,-88.8 392.03,-88.8 389.03,-84.8 321.97,-84.8 321.97,-48.8 416.03,-48.8 416.03,-84.8"/>
<text text-anchor="middle" x="369" y="-62.6" font-family="Times,serif" font-size="14.00">CacheModule</text>
</g>
<!-- StoryModule -->
<g id="node2" class="node">
<title>StoryModule</title>
<polygon fill="#8dd3c7" stroke="black" points="275.88,-149.8 272.88,-153.8 251.88,-153.8 248.88,-149.8 186.12,-149.8 186.12,-113.8 275.88,-113.8 275.88,-149.8"/>
<text text-anchor="middle" x="231" y="-127.6" font-family="Times,serif" font-size="14.00">StoryModule</text>
</g>
<!-- CacheModule&#45;&gt;StoryModule -->
<g id="edge1" class="edge">
<title>CacheModule&#45;&gt;StoryModule</title>
<path fill="none" stroke="black" d="M369,-84.91C369,-104.14 369,-131.8 369,-131.8 369,-131.8 286.19,-131.8 286.19,-131.8"/>
<polygon fill="black" stroke="black" points="286.19,-128.3 276.19,-131.8 286.19,-135.3 286.19,-128.3"/>
</g>
<!-- StoryService  -->
<g id="node3" class="node">
<title>StoryService </title>
<polygon fill="#fb8072" stroke="black" points="276.81,-214.8 185.19,-214.8 185.19,-178.8 276.81,-178.8 276.81,-214.8"/>
<text text-anchor="middle" x="231" y="-192.6" font-family="Times,serif" font-size="14.00">StoryService </text>
</g>
<!-- StoryModule&#45;&gt;StoryService  -->
<g id="edge2" class="edge">
<title>StoryModule&#45;&gt;StoryService </title>
<path fill="none" stroke="black" stroke-dasharray="5,2" d="M231,-149.91C231,-149.91 231,-168.79 231,-168.79"/>
<polygon fill="black" stroke="black" points="227.5,-168.79 231,-178.79 234.5,-168.79 227.5,-168.79"/>
</g>
<!-- PrismaService -->
<g id="node4" class="node">
<title>PrismaService</title>
<ellipse fill="#fdb462" stroke="black" cx="231" cy="-66.8" rx="66.63" ry="18"/>
<text text-anchor="middle" x="231" y="-62.6" font-family="Times,serif" font-size="14.00">PrismaService</text>
</g>
<!-- PrismaService&#45;&gt;StoryModule -->
<g id="edge3" class="edge">
<title>PrismaService&#45;&gt;StoryModule</title>
<path fill="none" stroke="black" d="M231,-84.91C231,-84.91 231,-103.79 231,-103.79"/>
<polygon fill="black" stroke="black" points="227.5,-103.79 231,-113.79 234.5,-103.79 227.5,-103.79"/>
</g>
<!-- StoryService -->
<g id="node5" class="node">
<title>StoryService</title>
<ellipse fill="#fdb462" stroke="black" cx="85" cy="-66.8" rx="60.83" ry="18"/>
<text text-anchor="middle" x="85" y="-62.6" font-family="Times,serif" font-size="14.00">StoryService</text>
</g>
<!-- StoryService&#45;&gt;StoryModule -->
<g id="edge4" class="edge">
<title>StoryService&#45;&gt;StoryModule</title>
<path fill="none" stroke="black" d="M85,-84.91C85,-104.14 85,-131.8 85,-131.8 85,-131.8 176,-131.8 176,-131.8"/>
<polygon fill="black" stroke="black" points="176,-135.3 186,-131.8 176,-128.3 176,-135.3"/>
</g>
</g>
</svg>
