<?xml version="1.0" encoding="UTF-8" standalone="no"?>
<!DOCTYPE svg PUBLIC "-//W3C//DTD SVG 1.1//EN"
 "http://www.w3.org/Graphics/SVG/1.1/DTD/svg11.dtd">
<!-- Generated by graphviz version 2.47.3 (20210619.1520)
 -->
<!-- Title: dependencies Pages: 1 -->
<svg width="560pt" height="247pt"
 viewBox="0.00 0.00 560.00 246.80" xmlns="http://www.w3.org/2000/svg" xmlns:xlink="http://www.w3.org/1999/xlink">
<g id="graph0" class="graph" transform="scale(1 1) rotate(0) translate(4 242.8)">
<title>dependencies</title>
<polygon fill="white" stroke="transparent" points="-4,4 -4,-242.8 556,-242.8 556,4 -4,4"/>
<text text-anchor="middle" x="276" y="-8.2" font-family="sans-serif" font-size="14.00">dependencies</text>
<g id="clust1" class="cluster">
<title>cluster_TransactionModule</title>
<polygon fill="none" stroke="black" stroke-dasharray="1,5" points="8,-32.8 8,-230.8 544,-230.8 544,-32.8 8,-32.8"/>
</g>
<g id="clust4" class="cluster">
<title>cluster_TransactionModule_exports</title>
<polygon fill="none" stroke="black" points="161,-170.8 161,-222.8 305,-222.8 305,-170.8 161,-170.8"/>
</g>
<g id="clust6" class="cluster">
<title>cluster_TransactionModule_providers</title>
<polygon fill="none" stroke="black" points="348,-40.8 348,-92.8 536,-92.8 536,-40.8 348,-40.8"/>
</g>
<g id="clust3" class="cluster">
<title>cluster_TransactionModule_imports</title>
<polygon fill="none" stroke="black" points="16,-40.8 16,-92.8 340,-92.8 340,-40.8 16,-40.8"/>
</g>
<!-- AWSModule -->
<g id="node1" class="node">
<title>AWSModule</title>
<polygon fill="#8dd3c7" stroke="black" points="332.15,-84.8 329.15,-88.8 308.15,-88.8 305.15,-84.8 241.85,-84.8 241.85,-48.8 332.15,-48.8 332.15,-84.8"/>
<text text-anchor="middle" x="287" y="-62.6" font-family="Times,serif" font-size="14.00">AWSModule</text>
</g>
<!-- TransactionModule -->
<g id="node4" class="node">
<title>TransactionModule</title>
<polygon fill="#8dd3c7" stroke="black" points="295.63,-149.8 292.63,-153.8 271.63,-153.8 268.63,-149.8 170.37,-149.8 170.37,-113.8 295.63,-113.8 295.63,-149.8"/>
<text text-anchor="middle" x="233" y="-127.6" font-family="Times,serif" font-size="14.00">TransactionModule</text>
</g>
<!-- AWSModule&#45;&gt;TransactionModule -->
<g id="edge1" class="edge">
<title>AWSModule&#45;&gt;TransactionModule</title>
<path fill="none" stroke="black" d="M268.74,-84.91C268.74,-84.91 268.74,-103.79 268.74,-103.79"/>
<polygon fill="black" stroke="black" points="265.24,-103.79 268.74,-113.79 272.24,-103.79 265.24,-103.79"/>
</g>
<!-- AuthModule -->
<g id="node2" class="node">
<title>AuthModule</title>
<polygon fill="#8dd3c7" stroke="black" points="223.55,-84.8 220.55,-88.8 199.55,-88.8 196.55,-84.8 136.45,-84.8 136.45,-48.8 223.55,-48.8 223.55,-84.8"/>
<text text-anchor="middle" x="180" y="-62.6" font-family="Times,serif" font-size="14.00">AuthModule</text>
</g>
<!-- AuthModule&#45;&gt;TransactionModule -->
<g id="edge2" class="edge">
<title>AuthModule&#45;&gt;TransactionModule</title>
<path fill="none" stroke="black" d="M196.98,-84.91C196.98,-84.91 196.98,-103.79 196.98,-103.79"/>
<polygon fill="black" stroke="black" points="193.48,-103.79 196.98,-113.79 200.48,-103.79 193.48,-103.79"/>
</g>
<!-- CacheModule -->
<g id="node3" class="node">
<title>CacheModule</title>
<polygon fill="#8dd3c7" stroke="black" points="118.03,-84.8 115.03,-88.8 94.03,-88.8 91.03,-84.8 23.97,-84.8 23.97,-48.8 118.03,-48.8 118.03,-84.8"/>
<text text-anchor="middle" x="71" y="-62.6" font-family="Times,serif" font-size="14.00">CacheModule</text>
</g>
<!-- CacheModule&#45;&gt;TransactionModule -->
<g id="edge3" class="edge">
<title>CacheModule&#45;&gt;TransactionModule</title>
<path fill="none" stroke="black" d="M71,-84.91C71,-104.14 71,-131.8 71,-131.8 71,-131.8 160.37,-131.8 160.37,-131.8"/>
<polygon fill="black" stroke="black" points="160.37,-135.3 170.37,-131.8 160.37,-128.3 160.37,-135.3"/>
</g>
<!-- TransactionService  -->
<g id="node5" class="node">
<title>TransactionService </title>
<polygon fill="#fb8072" stroke="black" points="296.56,-214.8 169.44,-214.8 169.44,-178.8 296.56,-178.8 296.56,-214.8"/>
<text text-anchor="middle" x="233" y="-192.6" font-family="Times,serif" font-size="14.00">TransactionService </text>
</g>
<!-- TransactionModule&#45;&gt;TransactionService  -->
<g id="edge4" class="edge">
<title>TransactionModule&#45;&gt;TransactionService </title>
<path fill="none" stroke="black" stroke-dasharray="5,2" d="M233,-149.91C233,-149.91 233,-168.79 233,-168.79"/>
<polygon fill="black" stroke="black" points="229.5,-168.79 233,-178.79 236.5,-168.79 229.5,-168.79"/>
</g>
<!-- TransactionService -->
<g id="node6" class="node">
<title>TransactionService</title>
<ellipse fill="#fdb462" stroke="black" cx="442" cy="-66.8" rx="85.65" ry="18"/>
<text text-anchor="middle" x="442" y="-62.6" font-family="Times,serif" font-size="14.00">TransactionService</text>
</g>
<!-- TransactionService&#45;&gt;TransactionModule -->
<g id="edge5" class="edge">
<title>TransactionService&#45;&gt;TransactionModule</title>
<path fill="none" stroke="black" d="M442,-84.91C442,-104.14 442,-131.8 442,-131.8 442,-131.8 305.71,-131.8 305.71,-131.8"/>
<polygon fill="black" stroke="black" points="305.71,-128.3 295.71,-131.8 305.71,-135.3 305.71,-128.3"/>
</g>
</g>
</svg>
