<?xml version="1.0" encoding="UTF-8" standalone="no"?>
<!DOCTYPE svg PUBLIC "-//W3C//DTD SVG 1.1//EN"
 "http://www.w3.org/Graphics/SVG/1.1/DTD/svg11.dtd">
<!-- Generated by graphviz version 2.47.3 (20210619.1520)
 -->
<!-- Title: dependencies Pages: 1 -->
<svg width="560pt" height="247pt"
 viewBox="0.00 0.00 560.00 246.80" xmlns="http://www.w3.org/2000/svg" xmlns:xlink="http://www.w3.org/1999/xlink">
<g id="graph0" class="graph" transform="scale(1 1) rotate(0) translate(4 242.8)">
<title>dependencies</title>
<polygon fill="white" stroke="transparent" points="-4,4 -4,-242.8 556,-242.8 556,4 -4,4"/>
<text text-anchor="middle" x="276" y="-8.2" font-family="sans-serif" font-size="14.00">dependencies</text>
<g id="clust1" class="cluster">
<title>cluster_TransactionModule</title>
<polygon fill="none" stroke="black" stroke-dasharray="1,5" points="8,-32.8 8,-230.8 544,-230.8 544,-32.8 8,-32.8"/>
</g>
<g id="clust4" class="cluster">
<title>cluster_TransactionModule_exports</title>
<polygon fill="none" stroke="black" points="249,-170.8 249,-222.8 393,-222.8 393,-170.8 249,-170.8"/>
</g>
<g id="clust3" class="cluster">
<title>cluster_TransactionModule_imports</title>
<polygon fill="none" stroke="black" points="212,-40.8 212,-92.8 536,-92.8 536,-40.8 212,-40.8"/>
</g>
<g id="clust6" class="cluster">
<title>cluster_TransactionModule_providers</title>
<polygon fill="none" stroke="black" points="16,-40.8 16,-92.8 204,-92.8 204,-40.8 16,-40.8"/>
</g>
<!-- AWSModule -->
<g id="node1" class="node">
<title>AWSModule</title>
<polygon fill="#8dd3c7" stroke="black" points="528.15,-84.8 525.15,-88.8 504.15,-88.8 501.15,-84.8 437.85,-84.8 437.85,-48.8 528.15,-48.8 528.15,-84.8"/>
<text text-anchor="middle" x="483" y="-62.6" font-family="Times,serif" font-size="14.00">AWSModule</text>
</g>
<!-- TransactionModule -->
<g id="node4" class="node">
<title>TransactionModule</title>
<polygon fill="#8dd3c7" stroke="black" points="383.63,-149.8 380.63,-153.8 359.63,-153.8 356.63,-149.8 258.37,-149.8 258.37,-113.8 383.63,-113.8 383.63,-149.8"/>
<text text-anchor="middle" x="321" y="-127.6" font-family="Times,serif" font-size="14.00">TransactionModule</text>
</g>
<!-- AWSModule&#45;&gt;TransactionModule -->
<g id="edge1" class="edge">
<title>AWSModule&#45;&gt;TransactionModule</title>
<path fill="none" stroke="black" d="M483,-84.91C483,-104.14 483,-131.8 483,-131.8 483,-131.8 393.63,-131.8 393.63,-131.8"/>
<polygon fill="black" stroke="black" points="393.63,-128.3 383.63,-131.8 393.63,-135.3 393.63,-128.3"/>
</g>
<!-- AuthModule -->
<g id="node2" class="node">
<title>AuthModule</title>
<polygon fill="#8dd3c7" stroke="black" points="419.55,-84.8 416.55,-88.8 395.55,-88.8 392.55,-84.8 332.45,-84.8 332.45,-48.8 419.55,-48.8 419.55,-84.8"/>
<text text-anchor="middle" x="376" y="-62.6" font-family="Times,serif" font-size="14.00">AuthModule</text>
</g>
<!-- AuthModule&#45;&gt;TransactionModule -->
<g id="edge2" class="edge">
<title>AuthModule&#45;&gt;TransactionModule</title>
<path fill="none" stroke="black" d="M358.02,-84.91C358.02,-84.91 358.02,-103.79 358.02,-103.79"/>
<polygon fill="black" stroke="black" points="354.52,-103.79 358.02,-113.79 361.52,-103.79 354.52,-103.79"/>
</g>
<!-- CacheModule -->
<g id="node3" class="node">
<title>CacheModule</title>
<polygon fill="#8dd3c7" stroke="black" points="314.03,-84.8 311.03,-88.8 290.03,-88.8 287.03,-84.8 219.97,-84.8 219.97,-48.8 314.03,-48.8 314.03,-84.8"/>
<text text-anchor="middle" x="267" y="-62.6" font-family="Times,serif" font-size="14.00">CacheModule</text>
</g>
<!-- CacheModule&#45;&gt;TransactionModule -->
<g id="edge3" class="edge">
<title>CacheModule&#45;&gt;TransactionModule</title>
<path fill="none" stroke="black" d="M286.22,-84.91C286.22,-84.91 286.22,-103.79 286.22,-103.79"/>
<polygon fill="black" stroke="black" points="282.72,-103.79 286.22,-113.79 289.72,-103.79 282.72,-103.79"/>
</g>
<!-- TransactionService  -->
<g id="node5" class="node">
<title>TransactionService </title>
<polygon fill="#fb8072" stroke="black" points="384.56,-214.8 257.44,-214.8 257.44,-178.8 384.56,-178.8 384.56,-214.8"/>
<text text-anchor="middle" x="321" y="-192.6" font-family="Times,serif" font-size="14.00">TransactionService </text>
</g>
<!-- TransactionModule&#45;&gt;TransactionService  -->
<g id="edge4" class="edge">
<title>TransactionModule&#45;&gt;TransactionService </title>
<path fill="none" stroke="black" stroke-dasharray="5,2" d="M321,-149.91C321,-149.91 321,-168.79 321,-168.79"/>
<polygon fill="black" stroke="black" points="317.5,-168.79 321,-178.79 324.5,-168.79 317.5,-168.79"/>
</g>
<!-- TransactionService -->
<g id="node6" class="node">
<title>TransactionService</title>
<ellipse fill="#fdb462" stroke="black" cx="110" cy="-66.8" rx="85.65" ry="18"/>
<text text-anchor="middle" x="110" y="-62.6" font-family="Times,serif" font-size="14.00">TransactionService</text>
</g>
<!-- TransactionService&#45;&gt;TransactionModule -->
<g id="edge5" class="edge">
<title>TransactionService&#45;&gt;TransactionModule</title>
<path fill="none" stroke="black" d="M110,-84.91C110,-104.14 110,-131.8 110,-131.8 110,-131.8 248.26,-131.8 248.26,-131.8"/>
<polygon fill="black" stroke="black" points="248.26,-135.3 258.26,-131.8 248.26,-128.3 248.26,-135.3"/>
</g>
</g>
</svg>
