<?xml version="1.0" encoding="UTF-8" standalone="no"?>
<!DOCTYPE svg PUBLIC "-//W3C//DTD SVG 1.1//EN"
 "http://www.w3.org/Graphics/SVG/1.1/DTD/svg11.dtd">
<!-- Generated by graphviz version 2.47.3 (20210619.1520)
 -->
<!-- Title: dependencies Pages: 1 -->
<svg width="497pt" height="247pt"
 viewBox="0.00 0.00 497.00 246.80" xmlns="http://www.w3.org/2000/svg" xmlns:xlink="http://www.w3.org/1999/xlink">
<g id="graph0" class="graph" transform="scale(1 1) rotate(0) translate(4 242.8)">
<title>dependencies</title>
<polygon fill="white" stroke="transparent" points="-4,4 -4,-242.8 493,-242.8 493,4 -4,4"/>
<text text-anchor="middle" x="244.5" y="-8.2" font-family="sans-serif" font-size="14.00">dependencies</text>
<g id="clust1" class="cluster">
<title>cluster_TransactionModule</title>
<polygon fill="none" stroke="black" stroke-dasharray="1,5" points="8,-32.8 8,-230.8 481,-230.8 481,-32.8 8,-32.8"/>
</g>
<g id="clust4" class="cluster">
<title>cluster_TransactionModule_exports</title>
<polygon fill="none" stroke="black" points="208,-170.8 208,-222.8 352,-222.8 352,-170.8 208,-170.8"/>
</g>
<g id="clust3" class="cluster">
<title>cluster_TransactionModule_imports</title>
<polygon fill="none" stroke="black" points="363,-40.8 363,-92.8 473,-92.8 473,-40.8 363,-40.8"/>
</g>
<g id="clust6" class="cluster">
<title>cluster_TransactionModule_providers</title>
<polygon fill="none" stroke="black" points="16,-40.8 16,-92.8 355,-92.8 355,-40.8 16,-40.8"/>
</g>
<!-- CacheModule -->
<g id="node1" class="node">
<title>CacheModule</title>
<polygon fill="#8dd3c7" stroke="black" points="465.03,-84.8 462.03,-88.8 441.03,-88.8 438.03,-84.8 370.97,-84.8 370.97,-48.8 465.03,-48.8 465.03,-84.8"/>
<text text-anchor="middle" x="418" y="-62.6" font-family="Times,serif" font-size="14.00">CacheModule</text>
</g>
<!-- TransactionModule -->
<g id="node2" class="node">
<title>TransactionModule</title>
<polygon fill="#8dd3c7" stroke="black" points="342.63,-149.8 339.63,-153.8 318.63,-153.8 315.63,-149.8 217.37,-149.8 217.37,-113.8 342.63,-113.8 342.63,-149.8"/>
<text text-anchor="middle" x="280" y="-127.6" font-family="Times,serif" font-size="14.00">TransactionModule</text>
</g>
<!-- CacheModule&#45;&gt;TransactionModule -->
<g id="edge1" class="edge">
<title>CacheModule&#45;&gt;TransactionModule</title>
<path fill="none" stroke="black" d="M418,-84.91C418,-104.14 418,-131.8 418,-131.8 418,-131.8 352.94,-131.8 352.94,-131.8"/>
<polygon fill="black" stroke="black" points="352.94,-128.3 342.94,-131.8 352.94,-135.3 352.94,-128.3"/>
</g>
<!-- TransactionService  -->
<g id="node3" class="node">
<title>TransactionService </title>
<polygon fill="#fb8072" stroke="black" points="343.56,-214.8 216.44,-214.8 216.44,-178.8 343.56,-178.8 343.56,-214.8"/>
<text text-anchor="middle" x="280" y="-192.6" font-family="Times,serif" font-size="14.00">TransactionService </text>
</g>
<!-- TransactionModule&#45;&gt;TransactionService  -->
<g id="edge2" class="edge">
<title>TransactionModule&#45;&gt;TransactionService </title>
<path fill="none" stroke="black" stroke-dasharray="5,2" d="M280,-149.91C280,-149.91 280,-168.79 280,-168.79"/>
<polygon fill="black" stroke="black" points="276.5,-168.79 280,-178.79 283.5,-168.79 276.5,-168.79"/>
</g>
<!-- PrismaService -->
<g id="node4" class="node">
<title>PrismaService</title>
<ellipse fill="#fdb462" stroke="black" cx="280" cy="-66.8" rx="66.63" ry="18"/>
<text text-anchor="middle" x="280" y="-62.6" font-family="Times,serif" font-size="14.00">PrismaService</text>
</g>
<!-- PrismaService&#45;&gt;TransactionModule -->
<g id="edge3" class="edge">
<title>PrismaService&#45;&gt;TransactionModule</title>
<path fill="none" stroke="black" d="M280,-84.91C280,-84.91 280,-103.79 280,-103.79"/>
<polygon fill="black" stroke="black" points="276.5,-103.79 280,-113.79 283.5,-103.79 276.5,-103.79"/>
</g>
<!-- TransactionService -->
<g id="node5" class="node">
<title>TransactionService</title>
<ellipse fill="#fdb462" stroke="black" cx="110" cy="-66.8" rx="85.65" ry="18"/>
<text text-anchor="middle" x="110" y="-62.6" font-family="Times,serif" font-size="14.00">TransactionService</text>
</g>
<!-- TransactionService&#45;&gt;TransactionModule -->
<g id="edge4" class="edge">
<title>TransactionService&#45;&gt;TransactionModule</title>
<path fill="none" stroke="black" d="M110,-84.91C110,-104.14 110,-131.8 110,-131.8 110,-131.8 207.18,-131.8 207.18,-131.8"/>
<polygon fill="black" stroke="black" points="207.18,-135.3 217.18,-131.8 207.18,-128.3 207.18,-135.3"/>
</g>
</g>
</svg>
