<?xml version="1.0" encoding="UTF-8" standalone="no"?>
<!DOCTYPE svg PUBLIC "-//W3C//DTD SVG 1.1//EN"
 "http://www.w3.org/Graphics/SVG/1.1/DTD/svg11.dtd">
<!-- Generated by graphviz version 2.47.3 (20210619.1520)
 -->
<!-- Title: dependencies Pages: 1 -->
<svg width="497pt" height="247pt"
 viewBox="0.00 0.00 497.00 246.80" xmlns="http://www.w3.org/2000/svg" xmlns:xlink="http://www.w3.org/1999/xlink">
<g id="graph0" class="graph" transform="scale(1 1) rotate(0) translate(4 242.8)">
<title>dependencies</title>
<polygon fill="white" stroke="transparent" points="-4,4 -4,-242.8 493,-242.8 493,4 -4,4"/>
<text text-anchor="middle" x="244.5" y="-8.2" font-family="sans-serif" font-size="14.00">dependencies</text>
<g id="clust1" class="cluster">
<title>cluster_TransactionModule</title>
<polygon fill="none" stroke="black" stroke-dasharray="1,5" points="8,-32.8 8,-230.8 481,-230.8 481,-32.8 8,-32.8"/>
</g>
<g id="clust6" class="cluster">
<title>cluster_TransactionModule_providers</title>
<polygon fill="none" stroke="black" points="134,-40.8 134,-92.8 473,-92.8 473,-40.8 134,-40.8"/>
</g>
<g id="clust4" class="cluster">
<title>cluster_TransactionModule_exports</title>
<polygon fill="none" stroke="black" points="156,-170.8 156,-222.8 300,-222.8 300,-170.8 156,-170.8"/>
</g>
<g id="clust3" class="cluster">
<title>cluster_TransactionModule_imports</title>
<polygon fill="none" stroke="black" points="16,-40.8 16,-92.8 126,-92.8 126,-40.8 16,-40.8"/>
</g>
<!-- CacheModule -->
<g id="node1" class="node">
<title>CacheModule</title>
<polygon fill="#8dd3c7" stroke="black" points="118.03,-84.8 115.03,-88.8 94.03,-88.8 91.03,-84.8 23.97,-84.8 23.97,-48.8 118.03,-48.8 118.03,-84.8"/>
<text text-anchor="middle" x="71" y="-62.6" font-family="Times,serif" font-size="14.00">CacheModule</text>
</g>
<!-- TransactionModule -->
<g id="node2" class="node">
<title>TransactionModule</title>
<polygon fill="#8dd3c7" stroke="black" points="290.63,-149.8 287.63,-153.8 266.63,-153.8 263.63,-149.8 165.37,-149.8 165.37,-113.8 290.63,-113.8 290.63,-149.8"/>
<text text-anchor="middle" x="228" y="-127.6" font-family="Times,serif" font-size="14.00">TransactionModule</text>
</g>
<!-- CacheModule&#45;&gt;TransactionModule -->
<g id="edge1" class="edge">
<title>CacheModule&#45;&gt;TransactionModule</title>
<path fill="none" stroke="black" d="M71,-84.91C71,-104.14 71,-131.8 71,-131.8 71,-131.8 155.05,-131.8 155.05,-131.8"/>
<polygon fill="black" stroke="black" points="155.05,-135.3 165.05,-131.8 155.05,-128.3 155.05,-135.3"/>
</g>
<!-- TransactionService  -->
<g id="node3" class="node">
<title>TransactionService </title>
<polygon fill="#fb8072" stroke="black" points="291.56,-214.8 164.44,-214.8 164.44,-178.8 291.56,-178.8 291.56,-214.8"/>
<text text-anchor="middle" x="228" y="-192.6" font-family="Times,serif" font-size="14.00">TransactionService </text>
</g>
<!-- TransactionModule&#45;&gt;TransactionService  -->
<g id="edge2" class="edge">
<title>TransactionModule&#45;&gt;TransactionService </title>
<path fill="none" stroke="black" stroke-dasharray="5,2" d="M228,-149.91C228,-149.91 228,-168.79 228,-168.79"/>
<polygon fill="black" stroke="black" points="224.5,-168.79 228,-178.79 231.5,-168.79 224.5,-168.79"/>
</g>
<!-- PrismaService -->
<g id="node4" class="node">
<title>PrismaService</title>
<ellipse fill="#fdb462" stroke="black" cx="398" cy="-66.8" rx="66.63" ry="18"/>
<text text-anchor="middle" x="398" y="-62.6" font-family="Times,serif" font-size="14.00">PrismaService</text>
</g>
<!-- PrismaService&#45;&gt;TransactionModule -->
<g id="edge3" class="edge">
<title>PrismaService&#45;&gt;TransactionModule</title>
<path fill="none" stroke="black" d="M398,-84.91C398,-104.14 398,-131.8 398,-131.8 398,-131.8 300.82,-131.8 300.82,-131.8"/>
<polygon fill="black" stroke="black" points="300.82,-128.3 290.82,-131.8 300.82,-135.3 300.82,-128.3"/>
</g>
<!-- TransactionService -->
<g id="node5" class="node">
<title>TransactionService</title>
<ellipse fill="#fdb462" stroke="black" cx="228" cy="-66.8" rx="85.65" ry="18"/>
<text text-anchor="middle" x="228" y="-62.6" font-family="Times,serif" font-size="14.00">TransactionService</text>
</g>
<!-- TransactionService&#45;&gt;TransactionModule -->
<g id="edge4" class="edge">
<title>TransactionService&#45;&gt;TransactionModule</title>
<path fill="none" stroke="black" d="M228,-84.91C228,-84.91 228,-103.79 228,-103.79"/>
<polygon fill="black" stroke="black" points="224.5,-103.79 228,-113.79 231.5,-103.79 224.5,-103.79"/>
</g>
</g>
</svg>
