<?xml version="1.0" encoding="UTF-8" standalone="no"?>
<svg
   xmlns:dc="http://purl.org/dc/elements/1.1/"
   xmlns:cc="http://creativecommons.org/ns#"
   xmlns:rdf="http://www.w3.org/1999/02/22-rdf-syntax-ns#"
   xmlns:svg="http://www.w3.org/2000/svg"
   xmlns="http://www.w3.org/2000/svg"
   xmlns:sodipodi="http://sodipodi.sourceforge.net/DTD/sodipodi-0.dtd"
   xmlns:inkscape="http://www.inkscape.org/namespaces/inkscape"
   data-name="Layer 1"
   viewBox="0 0 24.008 24.01"
   style="width: 32px; margin-right: 8px; transform: rotate(-12deg);"
   version="1.1"
   id="svg18"
   sodipodi:docname="bookbuddy-logo.svg"
   inkscape:version="1.0.1 (c497b03c, 2020-09-10)">
  <metadata
     id="metadata24">
    <rdf:RDF>
      <cc:Work
         rdf:about="">
        <dc:format>image/svg+xml</dc:format>
        <dc:type
           rdf:resource="http://purl.org/dc/dcmitype/StillImage" />
        <dc:title></dc:title>
      </cc:Work>
    </rdf:RDF>
  </metadata>
  <defs
     id="defs22" />
  <sodipodi:namedview
     pagecolor="#ffffff"
     bordercolor="#666666"
     borderopacity="1"
     objecttolerance="10"
     gridtolerance="10"
     guidetolerance="10"
     inkscape:pageopacity="0"
     inkscape:pageshadow="2"
     inkscape:window-width="2048"
     inkscape:window-height="1107"
     id="namedview20"
     showgrid="false"
     inkscape:zoom="29.323559"
     inkscape:cx="12.004"
     inkscape:cy="12.005"
     inkscape:window-x="0"
     inkscape:window-y="23"
     inkscape:window-maximized="1"
     inkscape:current-layer="svg18"
     inkscape:document-rotation="0" />
  <path
     d="M12.023 24.01a12.049 12.049 0 01-3.354-.478A12 12 0 1115.341.478a1 1 0 11-.556 1.921 9.994 9.994 0 104.843 3.13 1 1 0 111.526-1.292 12.009 12.009 0 01-9.131 19.773z"
     fill="currentColor"
     id="path10" />
  <path
     d="M11.984 17.343a6.42 6.42 0 01-4.53-1.808.75.75 0 111.06-1.06 5.081 5.081 0 006.94 0 .75.75 0 111.06 1.06 6.423 6.423 0 01-4.53 1.808z"
     fill="currentColor"
     id="path12" />
  <circle
     cx="8.023"
     cy="9.461"
     r="1.5"
     fill="currentColor"
     id="circle14" />
  <circle
     cx="14.868591"
     cy="9.0712042"
     r="1.5"
     fill="currentColor"
     id="circle14-8" />
</svg>
