<?xml version="1.0" encoding="UTF-8" standalone="no"?>
<!-- Generator: Adobe Illustrator 22.0.1, SVG Export Plug-In . SVG Version: 6.00 Build 0)  -->

<svg
   xmlns:dc="http://purl.org/dc/elements/1.1/"
   xmlns:cc="http://creativecommons.org/ns#"
   xmlns:rdf="http://www.w3.org/1999/02/22-rdf-syntax-ns#"
   xmlns:svg="http://www.w3.org/2000/svg"
   xmlns="http://www.w3.org/2000/svg"
   xmlns:sodipodi="http://sodipodi.sourceforge.net/DTD/sodipodi-0.dtd"
   xmlns:inkscape="http://www.inkscape.org/namespaces/inkscape"
   version="1.1"
   id="Layer_1"
   x="0px"
   y="0px"
   viewBox="0 0 646.7 128.3"
   style="enable-background:new 0 0 646.7 128.3;"
   xml:space="preserve"
   sodipodi:docname="paymentsfooter.svg"
   inkscape:version="0.92.3 (2405546, 2018-03-11)"><metadata
   id="metadata324"><rdf:RDF><cc:Work
       rdf:about=""><dc:format>image/svg+xml</dc:format><dc:type
         rdf:resource="http://purl.org/dc/dcmitype/StillImage" /></cc:Work></rdf:RDF></metadata><defs
   id="defs322">









































































</defs><sodipodi:namedview
   pagecolor="#111111"
   bordercolor="#666666"
   borderopacity="1"
   objecttolerance="10"
   gridtolerance="10"
   guidetolerance="10"
   inkscape:pageopacity="0"
   inkscape:pageshadow="2"
   inkscape:window-width="640"
   inkscape:window-height="480"
   id="namedview320"
   showgrid="false"
   inkscape:zoom="1.5132763"
   inkscape:cx="444.70011"
   inkscape:cy="52.78962"
   inkscape:window-x="0"
   inkscape:window-y="0"
   inkscape:window-maximized="0"
   inkscape:current-layer="Layer_1" />
<style
   type="text/css"
   id="style2">
	.st0{fill:#EE0005;}
	.st1{fill:#F9A000;}
	.st2{fill:#FF6300;}
	.st3{fill:#111111;}
	.st4{fill:#34BBF4;}
	.st5{font-family:'GorditaMedium';}
	.st6{font-size:12.1px;}
	.st7{fill:#E37610;}
	.st8{fill:#257E3D;}
	.st9{fill:#4098FE;}
	.st10{fill:#FCE8E8;}
	.st11{font-family:'Apercu-Medium';}
	.st12{font-size:16.06px;}
	.st13{fill:#89D47F;}
	.st14{fill:#3B4041;}
	.st15{fill:#2D2C81;}
</style>
<title
   id="title4">footericons</title>
<circle
   id="circle6"
   r="25.299999"
   cy="25.299999"
   cx="472.70001"
   class="st0"
   style="fill:#ee0005" /><circle
   id="ellipse8"
   cy="499.78979"
   cx="70.427269"
   class="st1"
   transform="rotate(-79.100191)"
   r="25.301046"
   style="fill:#f9a000;stroke-width:1.00004137" /><path
   id="path10"
   d="m 478.7,25.3 c 0,7.8 3.6,15.2 9.7,20.1 11.1,-8.8 13,-24.9 4.2,-36 -1.2,-1.5 -2.6,-2.9 -4.2,-4.2 -6.1,4.9 -9.7,12.3 -9.7,20.1 z"
   class="st2"
   inkscape:connector-curvature="0"
   style="fill:#ff6300" /><polygon
   id="polygon12"
   points="586.4,39.4 594,39.4 598.7,10.1 591.1,10.1 "
   class="st3"
   style="fill:#111111" /><path
   id="path14"
   d="m 598.7,38.3 c 0.5,0.2 1,0.4 1.5,0.6 2.2,0.6 4.6,1 6.9,1 8,0 13.1,-3.9 13.2,-10 0,-3.3 -2,-5.9 -6.4,-8 -2.7,-1.4 -4.3,-2.3 -4.3,-3.6 0,-1.2 1.4,-2.5 4.3,-2.5 2,0 3.9,0.3 5.7,1.1 l 0.7,0.3 1,-6.4 c -2.2,-0.8 -4.5,-1.2 -6.8,-1.2 -7.5,0 -12.8,4 -12.8,9.7 0,4.2 3.8,6.6 6.6,8 2.8,1.4 3.9,2.4 3.9,3.6 0,2 -2.3,2.9 -4.5,2.9 -2.5,0.1 -4.9,-0.5 -7.1,-1.5 l -0.5,-0.2 -0.5,-0.2 z"
   class="st3"
   inkscape:connector-curvature="0"
   style="fill:#111111" /><path
   id="path16"
   d="m 634.8,10.1 c -1.8,0 -3.2,0.5 -4,2.4 l -11.3,26.9 h 8 c 0,0 1.3,-3.6 1.6,-4.4 h 9.7 c 0.2,1 0.9,4.4 0.9,4.4 h 7 L 640.6,10.1 Z M 631.3,29 c 0.6,-1.7 3,-8.2 3,-8.2 0,0 0.6,-1.7 1,-2.8 l 0.5,2.5 c 0,0 1.5,7 1.8,8.5 z"
   class="st3"
   inkscape:connector-curvature="0"
   style="fill:#111111" /><polygon
   id="polygon18"
   points="562.4,17.9 569.5,24 563.1,20.5 568.1,39.4 576.1,39.4 588.1,10.1 580,10.1 572.6,30.1 568.7,10.1 553.4,10.1 "
   class="st3"
   style="fill:#111111" /><g
   id="slYC7c">
		<path
   id="path20"
   d="m 133,49.2 v 0 c 0.2,-0.2 0.4,-0.2 0.6,-0.2 h 3.4 c 0.2,0 0.4,0 0.5,0.1 v 0.1 z"
   class="st3"
   inkscape:connector-curvature="0"
   style="fill:#111111" />
		<path
   id="path22"
   d="m 97.1,49.2 v 0 C 97.2,49 97.4,49 97.6,49 h 3.2 c 0.2,0 0.3,0 0.5,0.1 v 0.1 z"
   class="st3"
   inkscape:connector-curvature="0"
   style="fill:#111111" />
		<path
   id="path24"
   d="m 15.6,25.5 -7.2,4.7 c 0.3,-1 0.5,-1.9 0.8,-2.8 0.1,-0.2 0.1,-0.4 0.2,-0.6 0.1,-0.8 0.6,-1.5 1.3,-1.9 3.9,-2.5 7.7,-5 11.6,-7.5 0.1,-0.1 0.2,-0.2 0.4,-0.2 -0.4,1.4 -0.8,2.9 -1.1,4.3 -1.9,7 -3.8,14.1 -5.6,21.1 -0.1,0.4 -0.2,0.6 -0.7,0.6 -1.3,0 -2.5,0 -3.8,0 H 11 Z"
   class="st4"
   inkscape:connector-curvature="0"
   style="fill:#34bbf4" />
		<path
   id="path26"
   d="m 137.4,49.1 h -4.3 l 2.6,-3.7 c 0.7,-0.9 1.4,-1.9 2,-2.8 0.1,-0.2 0.2,-0.4 0.1,-0.6 -0.7,-4.2 -1.4,-8.4 -2.1,-12.6 -0.1,-0.3 0,-0.4 0.3,-0.4 1.2,0 2.5,0 3.7,0 0.2,0 0.3,0.1 0.4,0.3 0.3,2.8 0.7,5.5 1.1,8.3 0,0 0,0 0,0.1 0,0.1 0.2,-0.2 0.2,-0.2 1.9,-2.7 3.9,-5.4 5.8,-8.1 0.1,-0.3 0.5,-0.4 0.8,-0.4 1.2,0 2.4,0 3.6,0 0,0.1 0,0.2 -0.1,0.2 -4.7,6.6 -9.3,13.2 -14,19.8 0,0.1 0,0.1 -0.1,0.1 z"
   class="st3"
   inkscape:connector-curvature="0"
   style="fill:#111111" />
		<path
   id="path28"
   d="m 61.4,40 h 6.9 c 0.6,0 0.6,0 0.5,0.6 -0.1,0.6 -0.4,1.5 -0.6,2.2 0,0.2 -0.2,0.3 -0.4,0.3 -3.9,0 -7.9,0 -11.8,0 -0.3,0 -0.3,-0.1 -0.3,-0.4 0.2,-0.8 0.4,-1.6 0.6,-2.3 0.1,-0.2 0.2,-0.4 0.4,-0.5 l 9,-7.7 c -0.1,-0.1 -0.3,-0.1 -0.4,-0.1 h -6.1 c -0.5,0 -0.5,0 -0.4,-0.5 0.2,-0.8 0.4,-1.6 0.6,-2.4 0,-0.2 0.1,-0.3 0.4,-0.3 3.8,0 7.6,0 11.4,0 0.3,0 0.3,0.1 0.2,0.3 -0.2,0.8 -0.4,1.5 -0.6,2.3 -0.1,0.2 -0.2,0.3 -0.3,0.5 l -8.9,7.7 z"
   class="st3"
   inkscape:connector-curvature="0"
   style="fill:#111111" />
		<path
   id="path30"
   d="M 13.8,28.1 13,31.2 c -1,3.9 -2.1,7.8 -3.1,11.6 0,0.3 -0.3,0.5 -0.5,0.5 0,0 0,0 0,0 -3,0 -6,0 -8.9,0 -0.3,0 -0.5,0 -0.3,-0.4 0.6,-2.2 1.2,-4.4 1.8,-6.5 0.1,-0.3 0.2,-0.6 0.5,-0.7 l 11,-7.1 z"
   class="st3"
   inkscape:connector-curvature="0"
   style="fill:#111111" />
		<path
   id="path32"
   d="m 94.4,31.1 c 0.5,-0.6 1.1,-1.2 1.8,-1.6 1.1,-0.7 2.5,-0.9 3.8,-0.7 0.3,0.1 0.5,0.2 0.4,0.6 -0.3,1 -0.6,2.1 -0.9,3.1 -0.1,0.2 -0.1,0.2 -0.3,0.2 -2.2,-1 -4.8,0 -5.7,2.2 -0.1,0.3 -0.2,0.5 -0.3,0.8 -0.7,2.4 -1.3,4.7 -1.9,7.1 -0.1,0.3 -0.2,0.4 -0.5,0.4 -1.2,0 -2.3,0 -3.5,0 -0.3,0 -0.3,0 -0.2,-0.3 1.2,-4.5 2.5,-9.1 3.7,-13.6 0,-0.2 0.2,-0.3 0.3,-0.3 0,0 0,0 0,0 1.2,0 2.4,0 3.6,0 0.2,0 0.3,0.1 0.2,0.3 -0.1,0.6 -0.3,1.1 -0.5,1.8 z"
   class="st3"
   inkscape:connector-curvature="0"
   style="fill:#111111" />
		<path
   id="path34"
   d="m 40.4,27.4 c 0.1,-1.4 -0.7,-2.8 -2,-3.4 -1.1,-0.5 -2.3,-0.8 -3.5,-0.7 -2.9,0 -5.8,0 -8.6,0 -0.4,0 -0.4,0.1 -0.5,0.4 -0.6,2.4 -1.2,4.7 -1.9,7.1 -1.1,4 -2.2,8 -3.2,12 -0.1,0.3 -0.1,0.4 0.3,0.4 1.2,0 2.4,0 3.6,0 0.2,0 0.4,-0.1 0.5,-0.3 0,0 0,0 0,0 0.1,-0.4 0.2,-0.8 0.3,-1.3 0.5,-2 1.1,-4 1.6,-6 0,-0.1 0,-0.3 0.3,-0.3 1.1,0 2.3,0 3.4,0.1 0.9,0.1 1.2,0.5 1.4,1.4 -0.1,0.2 -0.1,0.6 -0.1,1 0.2,1.7 0.4,3.4 0.6,5.1 0,0.2 0.1,0.3 0.4,0.3 1.3,0 2.7,0 4,0 0.3,0 0.3,-0.1 0.3,-0.3 -0.2,-2 -0.5,-4 -0.7,-6 0,-1.1 -0.8,-2 -1.8,-2.3 l 0.4,-0.2 c 3,-1 5.1,-3.8 5.2,-7 z m -7.3,4.3 c -1.8,0.1 -3.5,0.2 -5.3,0.1 0.4,-1.6 0.9,-3.1 1.2,-4.7 0.1,-0.4 0.3,-0.5 0.7,-0.5 1.2,0 2.4,0 3.6,0 0.5,0 0.9,0 1.3,0.1 0.9,0.1 1.6,0.9 1.5,1.8 0,0.1 0,0.3 -0.1,0.4 -0.1,1.6 -1.4,2.8 -2.9,2.8 z"
   class="st3"
   inkscape:connector-curvature="0"
   style="fill:#111111" />
		<path
   id="path36"
   d="m 115.7,32.5 c -0.2,-1.9 -1.6,-3.4 -3.5,-3.7 -2.3,-0.4 -4.6,0.4 -6.1,2.1 -0.1,0.1 -0.2,0.2 -0.3,0.3 h -0.1 c 0.2,-0.7 0.4,-1.4 0.7,-2.1 -1.3,0 -2.5,0 -3.7,0 -0.3,0 -0.4,0.1 -0.5,0.4 -1.4,5.3 -2.8,10.7 -4.3,16 l -1,3.7 h 4.2 c 0,0 0.1,-0.1 0.1,-0.1 0.6,-2.1 1.1,-4.2 1.7,-6.4 0.1,-0.2 0.1,-0.5 0.2,-0.7 0,-0.3 0.1,-0.5 0.2,-0.7 0.3,0.9 0.9,1.5 1.8,1.8 1.7,0.7 3.7,0.5 5.3,-0.4 3.7,-2.1 5.8,-6.1 5.3,-10.2 z m -5.8,6.3 c -0.9,1.1 -2.4,1.6 -3.8,1.3 -0.8,-0.1 -1.4,-0.8 -1.6,-1.6 -0.3,-1.5 0.6,-4.9 2.5,-6 0.6,-0.4 1.4,-0.6 2.1,-0.6 1.1,-0.1 2.2,0.7 2.3,1.8 0,0.1 0,0.3 0,0.4 0.1,1.7 -0.4,3.4 -1.5,4.7 z"
   class="st3"
   inkscape:connector-curvature="0"
   style="fill:#111111" />
		<path
   id="path38"
   d="m 56.3,29 c -1.2,0 -2.3,0 -3.5,0 -0.3,0 -0.3,0.1 -0.4,0.3 -0.1,0.5 -0.3,1 -0.4,1.6 -0.2,-0.4 -0.4,-0.8 -0.7,-1.1 -0.9,-0.9 -2.3,-1.4 -3.6,-1.2 -2,0.1 -3.9,1.1 -5.2,2.6 -2.1,2.2 -3.2,5.2 -2.9,8.3 0.1,1.7 1.2,3.1 2.8,3.5 1.5,0.5 3.2,0.4 4.6,-0.3 0.8,-0.4 1.6,-0.9 2.2,-1.5 -0.1,0.5 -0.3,1.1 -0.4,1.6 -0.1,0.2 0,0.3 0.2,0.3 1.2,0 2.4,0 3.6,0 0.2,0 0.3,-0.1 0.4,-0.3 1.2,-4.5 2.4,-9 3.6,-13.5 0,-0.2 0,-0.3 -0.3,-0.3 z m -7.7,10.4 c -0.9,0.7 -2.1,1 -3.2,0.7 -1,-0.2 -1.6,-1.1 -1.6,-2.7 0.1,-1.5 0.7,-2.9 1.6,-4.1 1,-1.2 2.5,-1.7 4,-1.3 0.8,0.2 1.4,1 1.4,1.9 0.2,2.1 -0.6,4.1 -2.2,5.5 z"
   class="st3"
   inkscape:connector-curvature="0"
   style="fill:#111111" />
		<path
   id="path40"
   d="m 133.9,29 c -1.1,0 -2.2,0 -3.3,0 -0.4,0 -0.6,0.1 -0.7,0.5 -0.1,0.5 -0.2,1 -0.4,1.4 -0.4,-1.1 -1.3,-1.9 -2.5,-2.1 -1.8,-0.4 -3.8,0 -5.3,1.1 -1.7,1.2 -3.1,2.9 -3.8,4.8 -0.7,1.6 -1,3.4 -0.7,5.1 0.2,1.7 1.5,3 3.1,3.4 1,0.3 2.1,0.3 3.1,0 1.3,-0.4 2.5,-1.1 3.4,-2.1 -0.2,0.7 -0.3,1.2 -0.5,1.8 -0.1,0.2 0,0.3 0.2,0.3 1.2,0 2.3,0 3.5,0 0.2,0 0.3,-0.1 0.4,-0.3 1.2,-4.5 2.4,-9 3.6,-13.5 0.2,-0.3 0.1,-0.4 -0.1,-0.4 z m -7.1,9.8 c -0.9,1.1 -2.4,1.6 -3.8,1.3 -0.8,-0.1 -1.5,-0.8 -1.6,-1.6 -0.3,-2.3 0.6,-4.5 2.4,-5.9 0.8,-0.6 1.9,-0.8 2.8,-0.6 0.9,0.1 1.6,0.9 1.7,1.8 0,0.2 0,0.4 0,0.7 0,1.5 -0.5,3 -1.5,4.3 z"
   class="st3"
   inkscape:connector-curvature="0"
   style="fill:#111111" />
		<path
   id="path42"
   d="m 83.4,29 c -3,-0.9 -6.2,-0.2 -8.5,1.8 -2.2,1.8 -3.6,4.5 -3.6,7.4 -0.2,2 0.9,3.9 2.8,4.7 1,0.4 2.1,0.6 3.1,0.6 0.5,0 1.1,0 1.6,-0.1 4.8,-0.9 8.2,-5.1 8,-10 -0.1,-2.1 -1.4,-3.9 -3.4,-4.4 z m -2.6,9.9 C 79.9,40 78.4,40.4 77,40 c -0.8,-0.1 -1.3,-0.7 -1.4,-1.5 -0.3,-2.2 0.5,-4.4 2.2,-5.9 0.9,-0.7 2.1,-1 3.2,-0.6 1,0.2 1.6,1 1.5,2.6 -0.1,1.6 -0.7,3.1 -1.7,4.3 z"
   class="st3"
   inkscape:connector-curvature="0"
   style="fill:#111111" />
	</g><text
   id="text45"
   class="st3 st5 st6"
   style="font-size:12.10000038px;font-family:GorditaMedium;fill:#111111"
   x="43.48"
   y="17.33">P</text>
<text
   id="text47"
   class="st3 st5 st6"
   style="font-size:12.10000038px;font-family:GorditaMedium;fill:#111111"
   x="51.5"
   y="17.33">ow</text>
<text
   id="text49"
   class="st3 st5 st6"
   style="font-size:12.10000038px;font-family:GorditaMedium;fill:#111111"
   x="69.699997"
   y="17.33">e</text>
<text
   id="text51"
   class="st3 st5 st6"
   style="font-size:12.10000038px;font-family:GorditaMedium;fill:#111111"
   x="77.139999"
   y="17.33">r</text>
<text
   id="text53"
   class="st3 st5 st6"
   style="font-size:12.10000038px;font-family:GorditaMedium;fill:#111111"
   x="81.760002"
   y="17.33">ed </text>
<text
   id="text55"
   class="st3 st5 st6"
   style="font-size:12.10000038px;font-family:GorditaMedium;fill:#111111"
   x="100.63"
   y="17.33">b</text>
<text
   id="text57"
   class="st3 st5 st6"
   style="font-size:12.10000038px;font-family:GorditaMedium;fill:#111111"
   x="108.56"
   y="17.33">y</text>
<g
   id="_8OElFF">
		<path
   id="path59"
   d="M 357.4,35.1 H 352 c 1.5,-5.1 3,-10.2 4.5,-15.4 h 27.3 l 1.6,-5.4 H 358 c 0.5,-1.7 1,-3.4 1.5,-5.1 h 30.2 c 1.5,0.1 2.3,1 1.9,2.4 -0.6,2.3 -1.3,4.7 -2,7 -0.4,1.2 -0.7,2.3 -1,3.5 -0.5,1.7 -2,2.8 -3.7,2.7 H 361 c -0.4,0 -0.6,0.1 -0.7,0.5 -0.9,3.1 -1.8,6.2 -2.8,9.4 z"
   class="st3"
   inkscape:connector-curvature="0"
   style="fill:#111111" />
		<path
   id="path61"
   d="M 328.5,9.2 322.4,30 h 21.9 l 0.5,-1.7 c 1.8,-6.2 3.7,-12.4 5.5,-18.6 0.1,-0.4 0.3,-0.5 0.7,-0.5 1.6,0 3.2,0 4.9,0 0,0.1 0,0.2 -0.1,0.4 -2.3,7.8 -4.6,15.7 -7,23.5 -0.3,1.3 -1.5,2.2 -2.8,2 h -27.6 c -1.3,0 -2.1,-0.4 -2.3,-1.4 -0.1,-0.4 -0.1,-0.9 0.1,-1.3 1.2,-4 2.4,-8.1 3.6,-12.1 1,-3.5 2.1,-7.1 3.1,-10.6 0,-0.3 0.3,-0.5 0.6,-0.4 0,0 0,0 0,0 z"
   class="st3"
   inkscape:connector-curvature="0"
   style="fill:#111111" />
		<path
   id="path63"
   d="m 396.4,9.2 h 5.5 l -1.8,6.2 c -1.9,6.3 -3.7,12.5 -5.5,18.8 -0.1,0.5 -0.3,0.7 -0.9,0.7 -1.5,0 -3.1,0 -4.8,0 2.4,-8.6 4.9,-17.1 7.5,-25.7 z"
   class="st3"
   inkscape:connector-curvature="0"
   style="fill:#111111" />
		<path
   id="path65"
   d="m 405.4,29.3 -6.1,5.4 c -0.1,0.1 -0.3,0.2 -0.4,0.2 2.5,-8.5 5,-17 7.6,-25.6 0.3,0.5 0.5,0.9 0.7,1.2 0.8,1.5 1.7,3 2.5,4.6 0.1,0.1 0.1,0.3 0.2,0.5 1.1,2.1 2.2,4.2 3.4,6.3 0.1,0.2 0.1,0.4 0,0.6 0,0 0,0 -0.1,0 -1,0.9 -2,1.8 -3,2.7 z"
   class="st7"
   inkscape:connector-curvature="0"
   style="fill:#e37610" />
		<path
   id="path67"
   d="m 405.4,29.3 4.6,-4.2 c 1,-0.9 2,-1.8 3,-2.7 0.2,-0.1 0.2,-0.3 0.1,-0.5 0,0 0,0 0,-0.1 -1.1,-2.1 -2.2,-4.2 -3.4,-6.3 -0.1,-0.2 -0.1,-0.3 -0.2,-0.5 l 1.7,-5.8 6.9,12.9 -14.3,12.8 h -0.1 c 0.6,-1.9 1.1,-3.8 1.7,-5.6 z"
   class="st8"
   inkscape:connector-curvature="0"
   style="fill:#257e3d" />
		<path
   id="path69"
   d="m 358.6,38.9 v 4.8 h -0.7 V 41 l -2.2,2.9 -0.7,-3 c -0.4,0.8 -0.8,1.5 -1.1,2.3 -0.2,0.4 -0.5,0.6 -1,0.5 l 2.4,-4.9 0.8,3.5 z"
   class="st3"
   inkscape:connector-curvature="0"
   style="fill:#111111" />
		<path
   id="path71"
   d="m 334.7,43.7 c 0.4,-1.5 0.7,-3 1.1,-4.4 0.1,-0.1 0.2,-0.2 0.3,-0.2 0.7,0 1.3,0 2,0.1 0.7,0 1.3,0.6 1.3,1.3 0.2,1.6 -1,3.1 -2.7,3.3 -0.1,0 -0.2,0 -0.3,0 -0.4,0 -1,-0.1 -1.7,-0.1 z m 1,-0.7 c 0.4,0 0.6,0 0.9,0 1.2,0 2.1,-1 2.1,-2.2 0,-0.1 0,-0.2 0,-0.3 -0.4,-0.7 -1.3,-1.1 -2.1,-0.8 -0.1,0 -0.1,0.1 -0.1,0.2 -0.3,1.1 -0.5,2.1 -0.8,3.1 z"
   class="st3"
   inkscape:connector-curvature="0"
   style="fill:#111111" />
		<path
   id="path73"
   d="m 385.2,39.1 -1.2,4.8 -2.8,-3.4 -0.8,3.2 h -0.7 l 1.2,-4.9 2.8,3.4 c 0.2,-0.9 0.5,-1.8 0.7,-2.7 0.1,-0.5 0.1,-0.5 0.8,-0.4 z"
   class="st3"
   inkscape:connector-curvature="0"
   style="fill:#111111" />
		<path
   id="path75"
   d="m 364.4,40.6 -0.8,3.2 h -0.7 l 1.2,-4.9 2.8,3.4 0.4,-1.6 c 0.1,-0.3 0.2,-0.7 0.2,-1 0.1,-0.5 0.3,-0.7 0.9,-0.5 l -1.2,4.8 z"
   class="st3"
   inkscape:connector-curvature="0"
   style="fill:#111111" />
		<path
   id="path77"
   d="m 319.3,38.9 2.8,3.4 0.8,-3.2 h 0.7 L 322.4,44 319.6,40.6 319,43 c 0,0.1 0,0.1 0,0.2 -0.2,0.6 -0.2,0.6 -0.9,0.5 z"
   class="st3"
   inkscape:connector-curvature="0"
   style="fill:#111111" />
		<path
   id="path79"
   d="m 315,39 c -0.3,1 -0.5,1.9 -0.7,2.8 0,0 0,0.1 0,0.1 -0.2,0.7 -0.1,1.1 0.3,1.2 0.6,0.2 1.3,0.1 1.7,-0.4 0.2,-0.3 0.3,-0.6 0.4,-0.9 0.2,-0.9 0.5,-1.8 0.7,-2.7 h 0.8 c -0.3,1.1 -0.5,2.3 -0.9,3.3 -0.5,1.2 -2,1.8 -3.2,1.3 -0.5,-0.1 -0.8,-0.6 -0.7,-1.1 0.2,-1.2 0.5,-2.3 0.8,-3.5 0,0 0.4,0 0.8,-0.1 z"
   class="st3"
   inkscape:connector-curvature="0"
   style="fill:#111111" />
		<path
   id="path81"
   d="m 394.5,41.7 1.1,2.1 c -0.8,0.1 -0.8,0.1 -1.2,-0.5 -0.4,-0.6 -0.5,-1 -0.8,-1.6 -0.2,0.6 -0.3,1.2 -0.4,1.7 -0.1,0.5 -0.3,0.7 -0.9,0.5 0.3,-1.1 0.6,-2.2 0.9,-3.4 0,0 0,-0.1 0,-0.1 l 0.4,-1.1 c 0.6,0 1.3,0 1.9,0.1 0.4,0.1 0.5,0.4 0.5,0.8 0,0.6 -0.5,1.1 -1.5,1.5 z M 393.7,41 c 0.5,0 1,0.1 1.2,-0.3 0.1,-0.2 0.2,-0.6 0.1,-0.7 -0.3,-0.2 -0.6,-0.3 -0.9,-0.4 z"
   class="st3"
   inkscape:connector-curvature="0"
   style="fill:#111111" />
		<path
   id="path83"
   d="m 390,41.5 -0.4,1.5 h 1.9 l -0.2,0.7 h -2.8 l 1.2,-4.7 h 2.7 c 0,0.5 -0.1,0.7 -0.7,0.6 -0.1,0 -0.2,0 -0.4,0 -1.2,0 -1.2,0 -1.3,1.2 h 1.9 l -0.2,0.7 z"
   class="st3"
   inkscape:connector-curvature="0"
   style="fill:#111111" />
		<path
   id="path85"
   d="m 408.8,43.8 1.2,-4.7 h 2.7 c 0,0.6 0,0.6 -0.7,0.6 h -0.2 c -1.2,0 -1.2,0 -1.4,1.2 h 1.9 l -0.1,0.7 h -1.9 l -0.4,1.5 h 1.9 l -0.1,0.7 z"
   class="st3"
   inkscape:connector-curvature="0"
   style="fill:#111111" />
		<path
   id="path87"
   d="m 334,43 -0.2,0.7 h -2.7 l 1.2,-4.7 h 2.7 l -0.1,0.6 c -0.5,0 -1,0 -1.5,0 -0.5,0 -0.5,0.1 -0.6,0.4 -0.1,0.3 -0.1,0.5 -0.2,0.7 h 1.9 l -0.2,0.7 h -1.9 L 332,43 Z"
   class="st3"
   inkscape:connector-curvature="0"
   style="fill:#111111" />
		<path
   id="path89"
   d="m 359.2,43.8 c 0.2,-0.8 0.4,-1.7 0.6,-2.5 0.2,-0.6 0.3,-1.3 0.5,-1.9 0,-0.1 0.2,-0.3 0.3,-0.3 0.8,0 1.6,0 2.5,0 l -0.1,0.7 h -1.9 l -0.3,1.2 h 1.9 l -0.1,0.6 h -1.9 l -0.4,1.5 h 1.9 l -0.2,0.7 z"
   class="st3"
   inkscape:connector-curvature="0"
   style="fill:#111111" />
		<path
   id="path91"
   d="m 408,42.8 c -0.1,0.7 -0.2,0.8 -1,1 -0.3,0.1 -0.5,0.1 -0.8,0.1 -1,0.1 -1.9,-0.6 -2.1,-1.6 0,-0.2 0,-0.4 0,-0.5 0.3,-1.7 1.8,-2.9 3.5,-2.8 0.1,0 0.3,0 0.4,0.1 0.9,0.2 0.9,0.3 0.7,1.1 -0.4,-0.2 -0.7,-0.3 -1.1,-0.4 -1.2,-0.2 -2.4,0.7 -2.6,2 0,0.1 0,0.2 0,0.3 0,0.6 0.5,1.1 1.1,1.2 0,0 0.1,0 0.1,0 0.7,-0.2 1.2,-0.4 1.8,-0.5 z"
   class="st3"
   inkscape:connector-curvature="0"
   style="fill:#111111" />
		<path
   id="path93"
   d="m 402.4,38.9 1.1,4.9 h -0.8 l -0.3,-1.2 c -0.6,0 -1.2,0 -1.8,0 -0.1,0 -0.2,0.1 -0.3,0.2 -0.2,0.2 -0.3,0.4 -0.4,0.6 -0.2,0.5 -0.6,0.5 -1.1,0.4 z m -0.1,3 -0.3,-1.5 -1,1.5 z"
   class="st3"
   inkscape:connector-curvature="0"
   style="fill:#111111" />
		<path
   id="path95"
   d="m 348,38.9 c 0.4,1.6 0.7,3.1 1,4.6 0,0.1 0,0.2 0,0.3 h -0.8 l -0.3,-1.2 c -0.6,0 -1.2,0 -1.8,0 -0.1,0 -0.2,0.1 -0.3,0.2 -0.1,0.1 -0.3,0.3 -0.4,0.5 -0.2,0.4 -0.7,0.6 -1.2,0.5 0,0 0,0 0,0 z m -0.1,3 -0.3,-1.5 -1,1.5 z"
   class="st3"
   inkscape:connector-curvature="0"
   style="fill:#111111" />
		<path
   id="path97"
   d="m 372.4,42.5 c 0.4,0.7 1.1,0.9 1.6,0.4 0.3,-0.2 0.3,-0.6 0.1,-0.8 C 374,42 374,42 373.9,41.9 c -0.3,-0.2 -0.6,-0.4 -0.9,-0.6 -0.3,-0.2 -0.5,-0.6 -0.4,-1 0.3,-1 1.3,-1.6 2.3,-1.3 0.1,0 0.2,0.1 0.3,0.1 0.2,0.2 0.4,0.4 0.6,0.6 L 375,40 c -0.2,-0.2 -0.4,-0.3 -0.6,-0.4 -0.4,-0.1 -0.7,0.1 -0.9,0.4 -0.2,0.3 0,0.6 0.3,0.8 0.3,0.2 0.5,0.3 0.8,0.4 0.4,0.2 0.6,0.7 0.5,1.2 -0.3,1.1 -1.4,1.7 -2.5,1.4 -0.1,0 -0.2,0 -0.2,-0.1 -0.2,-0.2 -0.4,-0.5 -0.6,-0.8 0,0 0.4,-0.2 0.6,-0.4 z"
   class="st3"
   inkscape:connector-curvature="0"
   style="fill:#111111" />
		<path
   id="path99"
   d="m 343,39 c 0.6,0 1.3,0 1.9,0.1 0.4,0 0.8,0.4 0.8,0.8 0,0 0,0.1 0,0.1 0,0.9 -0.8,1.7 -1.8,1.6 h -0.8 c -0.1,0.4 -0.2,0.7 -0.3,1.1 l -0.3,1 h -0.7 z m 0.3,2 c 0.3,0 0.6,0 0.9,-0.1 0.4,-0.1 0.7,-0.4 0.6,-0.8 0,0 0,0 0,0 0,-0.4 -0.4,-0.4 -0.7,-0.5 -0.3,-0.1 -0.5,0 -0.5,0.3 -0.1,0.4 -0.2,0.8 -0.3,1.1 z"
   class="st3"
   inkscape:connector-curvature="0"
   style="fill:#111111" />
		<path
   id="path101"
   d="m 326.9,41.5 -0.6,2.2 h -0.8 l 1.2,-4.7 h 2.7 c 0,0.6 0,0.6 -0.7,0.6 h -0.2 c -1.2,0 -1.2,0 -1.3,1.2 h 1.9 l -0.1,0.6 h -2.1 z"
   class="st3"
   inkscape:connector-curvature="0"
   style="fill:#111111" />
		<path
   id="path103"
   d="m 400,39.1 -0.1,0.6 c -0.5,0 -1,0 -1.5,0 -0.5,0 -0.5,0.1 -0.6,0.4 0,0.2 -0.1,0.5 -0.2,0.7 h 1.9 c -0.1,0.7 -0.1,0.7 -0.8,0.7 -0.4,0 -1,-0.1 -1.2,0.1 -0.2,0.2 -0.3,0.7 -0.4,1.1 l -0.1,0.5 c -0.2,0.6 -0.2,0.6 -0.9,0.5 l 1.2,-4.6 z"
   class="st3"
   inkscape:connector-curvature="0"
   style="fill:#111111" />
		<path
   id="path105"
   d="m 350.3,43.7 c 0.1,-0.6 0.3,-1.1 0.4,-1.6 0.1,-0.3 0,-0.7 -0.1,-1 -0.2,-0.7 -0.5,-1.3 -0.8,-2 0.8,-0.1 0.8,-0.1 1,0.5 l 0.5,1.3 c 0.5,-0.5 1,-1 1.4,-1.5 0.3,-0.3 0.7,-0.5 1.1,-0.3 -0.4,0.5 -0.8,0.9 -1.2,1.3 -0.8,0.7 -1.3,1.7 -1.5,2.8 0.1,0.6 0,0.6 -0.8,0.5 z"
   class="st3"
   inkscape:connector-curvature="0"
   style="fill:#111111" />
		<path
   id="path107"
   d="m 389.2,39.1 -0.1,0.6 c -0.3,0 -0.6,0 -0.9,0 -0.3,0 -0.4,0.1 -0.5,0.3 -0.2,1 -0.5,2.1 -0.8,3.1 -0.2,0.7 -0.2,0.7 -1,0.6 l 1,-4 h -1.3 l 0.1,-0.7 z"
   class="st3"
   inkscape:connector-curvature="0"
   style="fill:#111111" />
		<path
   id="path109"
   d="m 372.4,39 -0.1,0.6 H 371 c -0.3,1.2 -0.6,2.3 -0.9,3.5 -0.2,0.7 -0.2,0.7 -0.9,0.5 l 1,-4 h -1.3 L 369,39 Z"
   class="st3"
   inkscape:connector-curvature="0"
   style="fill:#111111" />
		<path
   id="path111"
   d="m 331.1,39.1 -1.2,4.7 h -0.8 c 0,-0.1 0,-0.2 0,-0.3 0.3,-1.3 0.6,-2.5 1,-3.8 0.2,-0.7 0.2,-0.7 1,-0.6 z"
   class="st3"
   inkscape:connector-curvature="0"
   style="fill:#111111" />
		<path
   id="path113"
   d="m 378.5,43.8 h -0.8 c 0.1,-0.6 0.3,-1.2 0.4,-1.8 0.2,-0.8 0.4,-1.5 0.6,-2.3 0.2,-0.8 0.2,-0.6 1,-0.6 z"
   class="st3"
   inkscape:connector-curvature="0"
   style="fill:#111111" />
		<path
   id="path115"
   d="m 324.8,39.1 h 0.8 l -1.2,4.7 h -0.8 z"
   class="st3"
   inkscape:connector-curvature="0"
   style="fill:#111111" />
	</g><path
   id="path118"
   d="M 60.1,110.9 H 21.4 c -1.7,0 -3.1,-1.4 -3.1,-3.1 v 0 -21 c 0,-1.7 1.4,-3.1 3.1,-3.1 v 0 h 38.7 c 1.7,0 3.1,1.4 3.1,3.1 v 21 c 0,1.7 -1.4,3.1 -3.1,3.1 z"
   class="st9"
   inkscape:connector-curvature="0"
   style="fill:#4098fe" /><rect
   id="rect120"
   height="5.5999999"
   width="44.799999"
   class="st3"
   y="87.599998"
   x="18.4"
   style="fill:#111111" /><rect
   id="rect122"
   height="2.2"
   width="13.2"
   class="st3"
   y="97.699997"
   x="26.1"
   style="fill:#111111" /><rect
   id="rect124"
   height="2.2"
   width="13.2"
   class="st3"
   y="102.3"
   x="26.1"
   style="fill:#111111" /><rect
   id="rect126"
   height="2.2"
   width="5.8000002"
   class="st3"
   y="106.9"
   x="26.1"
   style="fill:#111111" /><path
   id="path128"
   d="M 61.7,110.4 H 42.2 v -5 c -0.2,-5.4 4.1,-9.9 9.4,-10.1 5.4,-0.2 9.9,4.1 10.1,9.4 0,0.2 0,0.4 0,0.6 z m -16.3,-3.2 h 13.1 v -1.8 c 0,-3.6 -2.9,-6.5 -6.5,-6.5 -3.6,0 -6.5,2.9 -6.5,6.5 v 0 c -0.1,0 -0.1,1.8 -0.1,1.8 z"
   class="st1"
   inkscape:connector-curvature="0"
   style="fill:#f9a000" /><path
   id="path130"
   d="M 60.7,126.1 H 43 c -1.1,0 -1.9,-0.8 -1.9,-1.9 0,0 0,0 0,0 v -14.5 c 0,-1.1 0.9,-1.9 1.9,-1.9 0,0 0,0 0,0 h 17.7 c 1.1,0 1.9,0.9 1.9,1.9 v 14.5 c 0,1 -0.8,1.9 -1.9,1.9 z"
   class="st1"
   inkscape:connector-curvature="0"
   style="fill:#f9a000" /><path
   id="path132"
   d="m 54.5,116.9 c 0,-1.5 -1.2,-2.7 -2.7,-2.7 -1.5,0 -2.7,1.2 -2.7,2.7 0,1 0.5,1.9 1.4,2.3 v 3.1 c 0,0.7 0.6,1.3 1.3,1.3 0.7,0 1.3,-0.6 1.3,-1.3 v -3.1 c 0.9,-0.5 1.4,-1.4 1.4,-2.3 z"
   class="st10"
   inkscape:connector-curvature="0"
   style="fill:#111111" /><g
   id="g156">
		<text
   id="text134"
   class="st3 st11 st12"
   transform="translate(87.18,101.65)"
   style="font-size:16.05999947px;font-family:Apercu-Medium;fill:#111111">Se</text>

		<text
   id="text136"
   class="st3 st11 st12"
   transform="translate(104.93,101.65)"
   style="font-size:16.05999947px;font-family:Apercu-Medium;fill:#111111">c</text>

		<text
   id="text138"
   class="st3 st11 st12"
   transform="translate(113.47,101.65)"
   style="font-size:16.05999947px;font-family:Apercu-Medium;fill:#111111">u</text>

		<text
   id="text140"
   class="st3 st11 st12"
   transform="translate(122.41,101.65)"
   style="font-size:16.05999947px;font-family:Apercu-Medium;fill:#111111">r</text>

		<text
   id="text142"
   class="st3 st11 st12"
   transform="translate(128.93,101.65)"
   style="font-size:16.05999947px;font-family:Apercu-Medium;fill:#111111">e</text>

		<text
   id="text144"
   class="st3 st11 st12"
   transform="translate(81.37,120.92)"
   style="font-size:16.05999947px;font-family:Apercu-Medium;fill:#111111">P</text>

		<text
   id="text146"
   class="st3 st11 st12"
   transform="translate(90.83,120.92)"
   style="font-size:16.05999947px;font-family:Apercu-Medium;fill:#111111">a</text>

		<text
   id="text148"
   class="st3 st11 st12"
   transform="translate(98.98,120.92)"
   style="font-size:16.05999947px;font-family:Apercu-Medium;fill:#111111">y</text>

		<text
   id="text150"
   class="st3 st11 st12"
   transform="translate(106.2,120.92)"
   style="font-size:16.05999947px;font-family:Apercu-Medium;fill:#111111">m</text>

		<text
   id="text152"
   class="st3 st11 st12"
   transform="translate(119.82,120.92)"
   style="font-size:16.05999947px;font-family:Apercu-Medium;fill:#111111">en</text>

		<text
   id="text154"
   class="st3 st11 st12"
   transform="translate(137.53,120.92)"
   style="font-size:16.05999947px;font-family:Apercu-Medium;fill:#111111">t</text>

	</g><text
   id="text158"
   class="st3 st11 st12"
   style="font-size:16.05999947px;font-family:Apercu-Medium;fill:#111111"
   x="390.16"
   y="101.65">C</text>
<text
   id="text160"
   class="st3 st11 st12"
   style="font-size:16.05999947px;font-family:Apercu-Medium;fill:#111111"
   x="401.32001"
   y="101.65">a</text>
<text
   id="text162"
   class="st3 st11 st12"
   style="font-size:16.05999947px;font-family:Apercu-Medium;fill:#111111"
   x="409.5"
   y="101.65">s</text>
<text
   id="text164"
   class="st3 st11 st12"
   style="font-size:16.05999947px;font-family:Apercu-Medium;fill:#111111"
   x="416.53"
   y="101.65">h </text>
<text
   id="text166"
   class="st3 st11 st12"
   style="font-size:16.05999947px;font-family:Apercu-Medium;fill:#111111"
   x="430.12"
   y="101.65">o</text>
<text
   id="text168"
   class="st3 st11 st12"
   style="font-size:16.05999947px;font-family:Apercu-Medium;fill:#111111"
   x="439.32999"
   y="101.65">n</text>
<text
   id="text170"
   class="st3 st11 st12"
   style="font-size:16.05999947px;font-family:Apercu-Medium;fill:#111111"
   x="390.44"
   y="120.92">D</text>
<text
   id="text172"
   class="st3 st11 st12"
   style="font-size:16.05999947px;font-family:Apercu-Medium;fill:#111111"
   x="401.31"
   y="120.92">e</text>
<text
   id="text174"
   class="st3 st11 st12"
   style="font-size:16.05999947px;font-family:Apercu-Medium;fill:#111111"
   x="410.07001"
   y="120.92">l</text>
<text
   id="text176"
   class="st3 st11 st12"
   style="font-size:16.05999947px;font-family:Apercu-Medium;fill:#111111"
   x="413.89001"
   y="120.92">i</text>
<text
   id="text178"
   class="st3 st11 st12"
   style="font-size:16.05999947px;font-family:Apercu-Medium;fill:#111111"
   x="417.95001"
   y="120.92">ve</text>
<text
   id="text180"
   class="st3 st11 st12"
   style="font-size:16.05999947px;font-family:Apercu-Medium;fill:#111111"
   x="433.54999"
   y="120.92">r</text>
<text
   id="text182"
   class="st3 st11 st12"
   style="font-size:16.05999947px;font-family:Apercu-Medium;fill:#111111"
   x="440.84"
   y="120.92">y</text>
<g
   id="g246">
		<text
   id="text214"
   class="st3 st11 st12"
   transform="translate(248.03,101.65)"
   style="font-size:16.05999947px;font-family:Apercu-Medium;fill:#111111">2</text>

		<text
   id="text216"
   class="st3 st11 st12"
   transform="translate(257.04,101.65)"
   style="font-size:16.05999947px;font-family:Apercu-Medium;fill:#111111">5</text>

		<text
   id="text218"
   class="st3 st11 st12"
   transform="translate(266.26,101.65)"
   style="font-size:16.05999947px;font-family:Apercu-Medium;fill:#111111">6-</text>

		<text
   id="text220"
   class="st3 st11 st12"
   transform="translate(283.39,101.65)"
   style="font-size:16.05999947px;font-family:Apercu-Medium;fill:#111111">B</text>

		<text
   id="text222"
   class="st3 st11 st12"
   transform="translate(293.22,101.65)"
   style="font-size:16.05999947px;font-family:Apercu-Medium;fill:#111111">i</text>

		<text
   id="text224"
   class="st3 st11 st12"
   transform="translate(297.54,101.65)"
   style="font-size:16.05999947px;font-family:Apercu-Medium;fill:#111111">t</text>

		<text
   id="text226"
   class="st3 st11 st12"
   transform="translate(236.36,120.92)"
   style="font-size:16.05999947px;font-family:Apercu-Medium;fill:#111111">E</text>

		<text
   id="text228"
   class="st3 st11 st12"
   transform="translate(245.4,120.92)"
   style="font-size:16.05999947px;font-family:Apercu-Medium;fill:#111111">n</text>

		<text
   id="text230"
   class="st3 st11 st12"
   transform="translate(254.36,120.92)"
   style="font-size:16.05999947px;font-family:Apercu-Medium;fill:#111111">c</text>

		<text
   id="text232"
   class="st3 st11 st12"
   transform="translate(262.89,120.92)"
   style="font-size:16.05999947px;font-family:Apercu-Medium;fill:#111111">r</text>

		<text
   id="text234"
   class="st3 st11 st12"
   transform="translate(270.18,120.92)"
   style="font-size:16.05999947px;font-family:Apercu-Medium;fill:#111111">y</text>

		<text
   id="text236"
   class="st3 st11 st12"
   transform="translate(277.55,120.92)"
   style="font-size:16.05999947px;font-family:Apercu-Medium;fill:#111111">p</text>

		<text
   id="text238"
   class="st3 st11 st12"
   transform="translate(286.84,120.92)"
   style="font-size:16.05999947px;font-family:Apercu-Medium;fill:#111111">t</text>

		<text
   id="text240"
   class="st3 st11 st12"
   transform="translate(292.88,120.92)"
   style="font-size:16.05999947px;font-family:Apercu-Medium;fill:#111111">i</text>

		<text
   id="text242"
   class="st3 st11 st12"
   transform="translate(296.86,120.92)"
   style="font-size:16.05999947px;font-family:Apercu-Medium;fill:#111111">o</text>

		<text
   id="text244"
   class="st3 st11 st12"
   transform="translate(306.08,120.92)"
   style="font-size:16.05999947px;font-family:Apercu-Medium;fill:#111111">n</text>

	</g><path
   id="path273"
   d="m 178.2,114.4 c -0.2,0 -0.4,-0.1 -0.6,-0.2 l -6.8,-6.8 c -0.7,-0.7 -1,-1.6 -1,-2.5 v -2.8 c 0,-0.4 0.3,-0.8 0.8,-0.8 0,0 0,0 0,0 0.4,0 0.8,0.4 0.8,0.8 v 0 2.8 c 0,0.5 0.2,1 0.6,1.4 l 6.8,6.8 c 0.3,0.3 0.3,0.8 0,1.1 -0.1,0.2 -0.3,0.2 -0.6,0.2 z"
   class="st3"
   inkscape:connector-curvature="0"
   style="fill:#111111" /><path
   id="path275"
   d="m 170.6,102.9 c -2.1,0 -3.9,-1.7 -3.9,-3.9 0,-2.1 1.7,-3.9 3.9,-3.9 2.1,0 3.9,1.7 3.9,3.9 0,0 0,0 0,0 0,2.2 -1.7,3.9 -3.9,3.9 z m 0,-6.1 c -1.3,0 -2.3,1 -2.3,2.3 0,1.3 1,2.3 2.3,2.3 1.3,0 2.3,-1 2.3,-2.3 0,-1.3 -1,-2.3 -2.3,-2.3 z"
   class="st3"
   inkscape:connector-curvature="0"
   style="fill:#111111" /><path
   id="path277"
   d="m 205.1,114.4 c -0.4,0 -0.8,-0.4 -0.8,-0.8 0,-0.2 0.1,-0.4 0.2,-0.5 l 6.8,-6.8 c 0.4,-0.4 0.6,-0.8 0.6,-1.4 v -2.8 c 0,-0.4 0.4,-0.8 0.8,-0.8 0.4,0 0.8,0.4 0.8,0.8 v 2.8 c 0,0.9 -0.3,1.8 -1,2.5 l -6.8,6.8 c -0.2,0.2 -0.4,0.3 -0.6,0.2 z"
   class="st3"
   inkscape:connector-curvature="0"
   style="fill:#111111" /><path
   id="path279"
   d="m 212.7,102.9 c -2.1,0 -3.9,-1.7 -3.9,-3.9 0,-2.1 1.7,-3.9 3.9,-3.9 2.1,0 3.9,1.7 3.9,3.9 0,0 0,0 0,0 0,2.2 -1.8,3.9 -3.9,3.9 z m 0,-6.1 c -1.3,0 -2.3,1 -2.3,2.3 0,1.3 1,2.3 2.3,2.3 1.3,0 2.3,-1 2.3,-2.3 0,0 0,0 0,0 0,-1.3 -1.1,-2.3 -2.3,-2.3 z"
   class="st3"
   inkscape:connector-curvature="0"
   style="fill:#111111" /><path
   id="path281"
   d="m 175.5,119.4 h -4.1 c -0.4,0 -0.8,-0.3 -0.9,-0.7 -0.1,-0.4 0.3,-0.8 0.7,-0.9 0.1,0 0.1,0 0.2,0 h 4.1 c 0.4,0 0.8,0.3 0.9,0.7 0.1,0.4 -0.3,0.8 -0.7,0.9 -0.1,0 -0.2,0 -0.2,0 z"
   class="st3"
   inkscape:connector-curvature="0"
   style="fill:#111111" /><path
   id="path283"
   d="m 168.3,122.5 c -2.1,0 -3.9,-1.7 -3.9,-3.9 0,-2.2 1.7,-3.9 3.9,-3.9 2.2,0 3.9,1.7 3.9,3.9 v 0 c 0,2.1 -1.7,3.9 -3.9,3.9 z m 0,-6.2 c -1.3,0 -2.3,1 -2.3,2.3 0,1.3 1,2.3 2.3,2.3 1.3,0 2.3,-1 2.3,-2.3 0,0 0,0 0,0 0,-1.3 -1,-2.3 -2.3,-2.3 z"
   class="st3"
   inkscape:connector-curvature="0"
   style="fill:#111111" /><path
   id="path285"
   d="m 211.9,119.4 h -4.1 c -0.4,0 -0.8,-0.3 -0.9,-0.7 -0.1,-0.4 0.3,-0.8 0.7,-0.9 0.1,0 0.1,0 0.2,0 h 4.1 c 0.4,0 0.8,0.3 0.9,0.7 0.1,0.4 -0.3,0.8 -0.7,0.9 -0.1,0 -0.2,0 -0.2,0 z"
   class="st3"
   inkscape:connector-curvature="0"
   style="fill:#111111" /><path
   id="path287"
   d="m 215,122.5 c -2.1,0 -3.9,-1.7 -3.9,-3.9 0,-2.2 1.7,-3.9 3.9,-3.9 2.2,0 3.9,1.7 3.9,3.9 v 0 c 0,2.1 -1.8,3.9 -3.9,3.9 z m 0,-6.2 c -1.3,0 -2.3,1 -2.3,2.3 0,1.3 1,2.3 2.3,2.3 1.3,0 2.3,-1 2.3,-2.3 0,0 0,0 0,0 0,-1.3 -1,-2.3 -2.3,-2.3 z"
   class="st3"
   inkscape:connector-curvature="0"
   style="fill:#111111" /><path
   id="path289"
   d="m 200.9,110.2 c -1.3,0 -2.4,-1.1 -2.4,-2.4 0,0 0,0 0,0 V 95.2 c 0,-3.7 -3,-6.8 -6.8,-6.8 -3.7,0 -6.8,3 -6.8,6.8 0,0 0,0 0,0 v 12.5 c 0,1.3 -1.1,2.4 -2.4,2.4 -1.3,0 -2.4,-1.1 -2.4,-2.4 V 95.2 c -0.2,-6.4 4.9,-11.8 11.3,-12 6.4,-0.2 11.8,4.9 12,11.3 0,0.2 0,0.5 0,0.7 v 12.5 c -0.1,1.4 -1.2,2.5 -2.5,2.5 z"
   class="st3"
   inkscape:connector-curvature="0"
   style="fill:#111111" /><path
   id="path291"
   d="m 204.7,126.2 c -8.6,2 -17.6,2 -26.2,0 -1.8,-0.4 -3.1,-2 -3.1,-3.9 v -16.6 c 0,-1.8 1.3,-3.4 3.1,-3.9 8.6,-2 17.6,-2 26.2,0 1.8,0.4 3.1,2 3.1,3.9 v 16.6 c 0,1.8 -1.3,3.4 -3.1,3.9 z"
   class="st13"
   inkscape:connector-curvature="0"
   style="fill:#89d47f" /><path
   id="path293"
   d="M 186.8,118.1 H 183 c -0.6,0 -1.2,-0.5 -1.2,-1.1 0,-0.3 0.1,-0.7 0.4,-0.9 l 3.3,-3.3 c 0.5,-0.6 0.4,-1.5 -0.2,-2 -0.5,-0.4 -1.3,-0.4 -1.8,0 -0.3,0.3 -0.4,0.6 -0.4,1 0,0.4 -0.4,0.8 -0.8,0.8 -0.4,0 -0.8,-0.4 -0.8,-0.8 0,-0.8 0.3,-1.6 0.9,-2.2 0.6,-0.6 1.4,-0.9 2.2,-0.8 1.6,0.1 2.9,1.4 2.9,3 0,0.8 -0.3,1.6 -0.9,2.1 l -2.6,2.6 h 2.6 c 0.4,0 0.8,0.4 0.8,0.8 0.2,0.4 -0.2,0.7 -0.6,0.8 z"
   class="st14"
   inkscape:connector-curvature="0"
   style="fill:#3b4041" /><path
   id="path295"
   d="m 191.6,118.1 v 0 c -0.8,0 -1.6,-0.3 -2.1,-0.9 -0.3,-0.3 -0.4,-0.8 -0.1,-1.1 0.3,-0.3 0.8,-0.4 1.1,-0.1 0,0 0,0 0.1,0.1 0.3,0.3 0.6,0.4 1,0.4 v 0 c 0.8,0 1.4,-0.6 1.4,-1.3 0,-0.4 -0.1,-0.7 -0.4,-1 -0.3,-0.3 -0.6,-0.4 -1,-0.4 h -1.1 c -0.9,0 -1.6,-0.7 -1.6,-1.6 0,0 0,0 0,0 v -1.7 c 0,-0.9 0.7,-1.6 1.6,-1.6 v 0 h 3.3 c 0.4,0 0.8,0.4 0.8,0.8 0,0.4 -0.4,0.8 -0.8,0.8 0,0 0,0 0,0 h -3.3 v 1.7 h 1.1 c 0.8,0 1.6,0.3 2.2,0.9 0.6,0.6 0.9,1.4 0.8,2.2 0,1.6 -1.4,2.8 -3,2.8 z"
   class="st14"
   inkscape:connector-curvature="0"
   style="fill:#3b4041" /><path
   id="path297"
   d="m 198.7,112.1 c -0.3,0 -0.7,0.1 -1,0.2 0.1,-0.3 0.3,-0.5 0.5,-0.7 0.6,-0.6 1.5,-1 2.4,-1 0.4,0 0.8,-0.3 0.9,-0.7 0.1,-0.4 -0.3,-0.8 -0.7,-0.9 -0.1,0 -0.1,0 -0.2,0 v 0 c -2.7,0 -4.9,2.3 -4.9,5 v 1.1 c 0,1.7 1.3,3 3,3 1.7,0 3,-1.3 3,-3 0,-1.7 -1.4,-3 -3,-3 z m 0,4.4 c -0.8,0 -1.4,-0.6 -1.4,-1.4 0,-0.8 0.6,-1.4 1.4,-1.4 0.8,0 1.4,0.6 1.4,1.4 0,0 0,0 0,0 0,0.8 -0.6,1.4 -1.4,1.4 z"
   class="st14"
   inkscape:connector-curvature="0"
   style="fill:#3b4041" /><g
   id="nkucnL">
		<path
   id="path299"
   d="m 262.9,15.6 c 2,-1.6 4.8,-2.1 7.2,-1.2 0.8,0.3 1.6,0.7 2.2,1.3 0.5,0.5 0.8,0.4 1.3,0 3.2,-2.6 7.8,-2.1 10.4,1 0.6,0.7 1,1.4 1.3,2.3 0.2,0.6 0.4,1.3 0.4,2 0,6.9 0,13.8 0,20.8 0,1.1 -0.3,1.4 -1.4,1.4 H 280 c -1.2,0 -1.5,-0.4 -1.5,-1.5 0,-5.2 0,-10.5 0,-15.7 0,-0.9 0,-1.8 0,-2.8 0,-1.3 -0.7,-1.9 -2.1,-1.9 -1.4,0 -2.1,0.6 -2.1,2 0,6.1 0,12.3 0,18.4 0,1.4 -0.2,1.6 -1.6,1.6 -1.4,0 -2.8,0 -4.1,0 -1.1,0 -1.4,-0.3 -1.4,-1.4 0,-4.8 0,-9.5 0,-14.3 0,-1.4 0,-2.8 0,-4.2 0,-1.4 -0.6,-2 -2.1,-2 -1.5,0 -2.1,0.6 -2.1,2 0,6.1 0,12.1 0,18.2 0,1.5 -0.2,1.7 -1.7,1.7 h -3.9 c -1.3,0 -1.6,-0.3 -1.6,-1.6 V 19.9 c 0,-1.4 0,-2.8 0,-4.1 0,-1.2 0.3,-1.5 1.5,-1.5 h 4 c 1.2,-0.1 1.3,0.1 1.6,1.3 z"
   class="st4"
   inkscape:connector-curvature="0"
   style="fill:#34bbf4" />
		<path
   id="path301"
   d="m 214.2,30.7 v 9.2 c 0.2,1.6 -1,3 -2.6,3.2 -0.2,0 -0.4,0 -0.6,0 h -8.7 c -4,0 -6.7,-2.5 -6.8,-6.6 -0.1,-2.1 -0.1,-4.2 0,-6.2 0.1,-3.3 2.6,-6.1 5.9,-6.5 1.4,-0.1 2.8,-0.2 4.2,-0.1 1,0 1.3,-0.3 1.3,-1.3 0,-1 -0.4,-1.3 -1.4,-1.3 -1.9,0 -3.9,0 -5.8,0 -1.1,0 -1.4,-0.4 -1.4,-1.4 0,-1.4 0,-2.8 0,-4.1 -0.1,-0.5 0.2,-1.1 0.8,-1.2 0.1,0 0.2,0 0.3,0 2.8,0 5.5,-0.2 8.3,0.1 4.3,0.4 6.5,2.9 6.5,7.2 0,3 0,6 0,9 z m -7.1,2.8 c 0,-0.6 0,-1.3 0,-1.9 0,-1 -0.5,-1.2 -2,-1.2 -1.8,0 -2.3,0.2 -2.3,1.2 0,1.3 0,2.6 0,3.8 0,1 0.5,1.2 1.7,1.3 2.1,0.1 2.5,0 2.6,-1.3 0,-0.6 0,-1.3 0,-1.9 z"
   class="st3"
   inkscape:connector-curvature="0"
   style="fill:#111111" />
		<path
   id="path303"
   d="m 235.4,26 c 0,3.2 0,6.5 0,9.8 0.2,3.9 -2.7,7.2 -6.5,7.4 -0.3,0 -0.6,0 -0.8,0 -2.5,0 -5,0 -7.5,0 -1.2,0 -1.5,-0.3 -1.5,-1.5 0,-1.4 0,-2.9 0,-4.3 0,-1 0.3,-1.3 1.3,-1.3 h 5.7 c 0.4,0 0.7,0 1.1,-0.1 0.7,0 1.2,-0.3 1.2,-1.1 0,-0.8 -0.6,-1.1 -1.3,-1.1 -0.9,0 -1.8,0 -2.8,0 -4.5,0 -7.4,-2.8 -7.5,-7.4 -0.1,-3.5 0,-7.1 0,-10.7 0,-1.2 0.4,-1.5 1.6,-1.5 h 4.1 c 1.2,0 1.6,0.4 1.6,1.6 0,3 0,6 0,9 0,1.6 0.2,1.8 1.8,1.8 2.5,0 2.5,0 2.5,-2.5 0,-2.8 0,-5.6 0,-8.5 0,-1.1 0.4,-1.4 1.4,-1.4 h 4.2 c 1.1,0 1.5,0.4 1.5,1.5 -0.1,3.5 -0.1,6.9 -0.1,10.3 z"
   class="st3"
   inkscape:connector-curvature="0"
   style="fill:#111111" />
		<path
   id="path305"
   d="m 175.3,28.7 c 0,-4.3 0,-8.6 0,-13 0,-1.1 0.3,-1.5 1.5,-1.5 3.4,0 6.9,0 10.3,0 4.1,0 6.8,2.7 6.8,6.8 0.1,2.7 0.1,5.3 -0.1,8 -0.3,3.2 -3.1,5.7 -6.3,5.6 -1.4,0 -2.8,0 -4.2,0 -0.6,0 -0.7,0.1 -0.7,0.7 0,2.1 0,4.2 0,6.2 0,1.3 -0.3,1.6 -1.6,1.6 h -4.1 c -1.2,0 -1.4,-0.2 -1.4,-1.4 -0.3,-4.3 -0.2,-8.7 -0.2,-13 z m 7.1,-4.2 v 0.3 c 0.1,0.9 -0.4,2.2 0.2,2.6 0.6,0.4 1.9,0.1 2.8,0.1 0.6,0 1.2,-0.4 1.2,-1 0,-0.1 0,-0.1 0,-0.2 0,-1.2 0,-2.4 0,-3.6 0.1,-0.6 -0.4,-1.1 -1,-1.2 0,0 0,0 0,0 -1,-0.2 -2.1,-0.2 -3.1,0.1 -0.5,0.3 -0.1,1.6 -0.2,2.4 0.1,0.2 0.1,0.3 0.1,0.5 z"
   class="st3"
   inkscape:connector-curvature="0"
   style="fill:#111111" />
		<path
   id="path307"
   d="m 242.2,32.1 c 0,-3.3 0,-6.6 0,-9.8 0,-0.7 -0.2,-0.9 -0.8,-0.8 -0.6,0.1 -1.4,0 -2,0 -0.6,0.1 -1.1,-0.4 -1.2,-0.9 0,-0.1 0,-0.2 0,-0.2 v -4.8 c -0.1,-0.6 0.3,-1.1 0.9,-1.2 0.1,0 0.2,0 0.3,0 2.5,0.1 4.9,-1.2 6.1,-3.4 0.5,-0.8 1.1,-1.5 1.9,-1.9 1.1,-0.5 1.8,-0.1 1.8,1.1 0,1.2 0,2.4 0,3.6 0,0.5 0.2,0.7 0.7,0.7 0.5,0 1.3,0 1.9,0 0.6,-0.1 1.2,0.4 1.3,1 0,0.1 0,0.2 0,0.2 0,1.6 0,3.1 0,4.7 0.1,0.6 -0.4,1.2 -1,1.3 -0.1,0 -0.2,0 -0.2,0 h -0.2 c -0.8,0 -1.8,-0.2 -2.2,0.1 -0.4,0.3 -0.2,1.5 -0.2,2.4 0,5.9 0,11.9 0,17.8 0,1.3 -0.3,1.6 -1.6,1.6 -1.3,0 -2.8,0 -4.1,0 -1,0 -1.3,-0.3 -1.3,-1.3 -0.1,-3.6 -0.1,-6.9 -0.1,-10.2 z"
   class="st4"
   inkscape:connector-curvature="0"
   style="fill:#34bbf4" />
	</g><path
   id="path310"
   d="m 360.1,91.9 c 0,4.4 -3.6,8 -8,8 -4.4,0 -8,-3.6 -8,-8 0,-4.4 3.6,-8 8,-8 4.4,0 8,3.6 8,8 z"
   class="st3"
   inkscape:connector-curvature="0"
   style="fill:#111111" /><path
   id="path312"
   d="m 334.2,100 -3.4,5.6 c -0.3,0.4 -0.1,1 0.3,1.2 0.1,0 0.1,0.1 0.2,0.1 l 4.9,1.6 v 13.6 c 0,0.4 0.2,0.7 0.6,0.8 l 14.2,5.3 c 0.2,0.1 0.4,0.1 0.6,0 v 0 l 15.9,-5.3 c 0.4,-0.1 0.6,-0.5 0.6,-0.8 v -14 l 5.2,-1.6 c 0.5,-0.1 0.7,-0.6 0.6,-1.1 0,-0.1 -0.1,-0.3 -0.2,-0.4 l -5.2,-5.2 5.2,-5.2 c 0.2,-0.2 0.3,-0.5 0.2,-0.8 -0.1,-0.3 -0.3,-0.5 -0.6,-0.6 l -12.7,-3.9 c -1.5,-4.7 -6.4,-7.3 -11.1,-5.8 -2.5,0.8 -4.6,2.7 -5.6,5.1 l -14.7,4.6 c -0.3,0.1 -0.5,0.3 -0.6,0.6 -0.1,0.3 0,0.6 0.2,0.8 z m 1.5,0.9 14.2,4.7 -2.8,4.7 -14.2,-4.7 z m 9.6,-3.4 c 1.7,2.1 4.2,3.3 6.9,3.3 2.5,0 4.8,-1 6.5,-2.8 l 5.8,1.9 -13.1,4.4 -13.1,-4.4 z m 26,7.8 -15.1,4.7 -3.5,-4.4 14.2,-4.7 z m -4.4,-6.4 -7.2,-2.4 c 0.8,-1.4 1.3,-2.9 1.3,-4.5 0,-0.2 0,-0.4 0,-0.7 l 10.4,3.2 z m -14.8,-14 c 3.9,0 7.1,3.2 7.1,7.1 0,0 0,0 0,0 -0.1,3.9 -3.4,7 -7.3,6.8 -3.7,-0.1 -6.7,-3.1 -6.8,-6.8 0,-0.8 0.1,-1.6 0.4,-2.3 0.9,-2.9 3.6,-4.9 6.6,-4.8 z m -8.7,5.8 c -0.1,0.4 -0.1,0.9 -0.1,1.3 0,1.4 0.4,2.8 1,4 l -8.7,2.9 -4.4,-4.4 z"
   class="st3"
   inkscape:connector-curvature="0"
   style="fill:#111111" /><path
   id="path314"
   d="m 349.7,95.2 c 0.3,0.3 0.9,0.3 1.2,0 l 5.3,-5.3 c 0.3,-0.4 0.3,-0.9 0,-1.3 -0.4,-0.3 -0.9,-0.3 -1.3,0 v 0 l -4.7,4.7 -1.1,-1.1 c -0.4,-0.2 -1,-0.1 -1.2,0.3 -0.2,0.3 -0.2,0.7 0,0.9 z"
   class="st15"
   inkscape:connector-curvature="0"
   style="fill:#2d2c81" />
<path
   class="st0"
   d="M335.4,107l0.3,14.9c0,0.3,0.2,0.5,0.4,0.6l14.8,5.8c0.1,0.1,0.3,0.1,0.4,0l16.7-5.7c0.3-0.1,0.4-0.3,0.4-0.6  v-15.5c0-0.4-0.4-0.7-0.8-0.6l-11,3.8c-0.3,0.1-0.5,0-0.7-0.2l-4.2-5.6c-0.3-0.4-0.8-0.3-1,0.1l-3.3,6.1c-0.1,0.3-0.5,0.4-0.8,0.3  l-10.4-4C335.8,106.3,335.4,106.6,335.4,107z"
   id="path317" />
</svg>
