<?xml version="1.0" encoding="UTF-8" standalone="no"?>
<!DOCTYPE svg PUBLIC "-//W3C//DTD SVG 1.1//EN"
 "http://www.w3.org/Graphics/SVG/1.1/DTD/svg11.dtd">
<!-- Generated by graphviz version 2.47.3 (20210619.1520)
 -->
<!-- Title: dependencies Pages: 1 -->
<svg width="330pt" height="247pt"
 viewBox="0.00 0.00 330.00 246.80" xmlns="http://www.w3.org/2000/svg" xmlns:xlink="http://www.w3.org/1999/xlink">
<g id="graph0" class="graph" transform="scale(1 1) rotate(0) translate(4 242.8)">
<title>dependencies</title>
<polygon fill="white" stroke="transparent" points="-4,4 -4,-242.8 326,-242.8 326,4 -4,4"/>
<text text-anchor="middle" x="161" y="-8.2" font-family="sans-serif" font-size="14.00">dependencies</text>
<g id="clust1" class="cluster">
<title>cluster_InventoryModule</title>
<polygon fill="none" stroke="black" stroke-dasharray="1,5" points="8,-32.8 8,-230.8 314,-230.8 314,-32.8 8,-32.8"/>
</g>
<g id="clust3" class="cluster">
<title>cluster_InventoryModule_imports</title>
<polygon fill="none" stroke="black" points="196,-40.8 196,-92.8 306,-92.8 306,-40.8 196,-40.8"/>
</g>
<g id="clust4" class="cluster">
<title>cluster_InventoryModule_exports</title>
<polygon fill="none" stroke="black" points="105,-170.8 105,-222.8 237,-222.8 237,-170.8 105,-170.8"/>
</g>
<g id="clust6" class="cluster">
<title>cluster_InventoryModule_providers</title>
<polygon fill="none" stroke="black" points="16,-40.8 16,-92.8 188,-92.8 188,-40.8 16,-40.8"/>
</g>
<!-- CacheModule -->
<g id="node1" class="node">
<title>CacheModule</title>
<polygon fill="#8dd3c7" stroke="black" points="298.03,-84.8 295.03,-88.8 274.03,-88.8 271.03,-84.8 203.97,-84.8 203.97,-48.8 298.03,-48.8 298.03,-84.8"/>
<text text-anchor="middle" x="251" y="-62.6" font-family="Times,serif" font-size="14.00">CacheModule</text>
</g>
<!-- InventoryModule -->
<g id="node2" class="node">
<title>InventoryModule</title>
<polygon fill="#8dd3c7" stroke="black" points="227.98,-149.8 224.98,-153.8 203.98,-153.8 200.98,-149.8 114.02,-149.8 114.02,-113.8 227.98,-113.8 227.98,-149.8"/>
<text text-anchor="middle" x="171" y="-127.6" font-family="Times,serif" font-size="14.00">InventoryModule</text>
</g>
<!-- CacheModule&#45;&gt;InventoryModule -->
<g id="edge1" class="edge">
<title>CacheModule&#45;&gt;InventoryModule</title>
<path fill="none" stroke="black" d="M215.86,-84.91C215.86,-84.91 215.86,-103.79 215.86,-103.79"/>
<polygon fill="black" stroke="black" points="212.36,-103.79 215.86,-113.79 219.36,-103.79 212.36,-103.79"/>
</g>
<!-- InventoryService  -->
<g id="node3" class="node">
<title>InventoryService </title>
<polygon fill="#fb8072" stroke="black" points="228.9,-214.8 113.1,-214.8 113.1,-178.8 228.9,-178.8 228.9,-214.8"/>
<text text-anchor="middle" x="171" y="-192.6" font-family="Times,serif" font-size="14.00">InventoryService </text>
</g>
<!-- InventoryModule&#45;&gt;InventoryService  -->
<g id="edge2" class="edge">
<title>InventoryModule&#45;&gt;InventoryService </title>
<path fill="none" stroke="black" stroke-dasharray="5,2" d="M171,-149.91C171,-149.91 171,-168.79 171,-168.79"/>
<polygon fill="black" stroke="black" points="167.5,-168.79 171,-178.79 174.5,-168.79 167.5,-168.79"/>
</g>
<!-- InventoryService -->
<g id="node4" class="node">
<title>InventoryService</title>
<ellipse fill="#fdb462" stroke="black" cx="102" cy="-66.8" rx="77.57" ry="18"/>
<text text-anchor="middle" x="102" y="-62.6" font-family="Times,serif" font-size="14.00">InventoryService</text>
</g>
<!-- InventoryService&#45;&gt;InventoryModule -->
<g id="edge3" class="edge">
<title>InventoryService&#45;&gt;InventoryModule</title>
<path fill="none" stroke="black" d="M146.77,-81.55C146.77,-81.55 146.77,-103.39 146.77,-103.39"/>
<polygon fill="black" stroke="black" points="143.27,-103.39 146.77,-113.39 150.27,-103.39 143.27,-103.39"/>
</g>
</g>
</svg>
