<?xml version="1.0" encoding="UTF-8" standalone="no"?>
<!DOCTYPE svg PUBLIC "-//W3C//DTD SVG 1.1//EN"
 "http://www.w3.org/Graphics/SVG/1.1/DTD/svg11.dtd">
<!-- Generated by graphviz version 2.47.3 (20210619.1520)
 -->
<!-- Title: dependencies Pages: 1 -->
<svg width="481pt" height="247pt"
 viewBox="0.00 0.00 481.00 246.80" xmlns="http://www.w3.org/2000/svg" xmlns:xlink="http://www.w3.org/1999/xlink">
<g id="graph0" class="graph" transform="scale(1 1) rotate(0) translate(4 242.8)">
<title>dependencies</title>
<polygon fill="white" stroke="transparent" points="-4,4 -4,-242.8 477,-242.8 477,4 -4,4"/>
<text text-anchor="middle" x="236.5" y="-8.2" font-family="sans-serif" font-size="14.00">dependencies</text>
<g id="clust1" class="cluster">
<title>cluster_InventoryModule</title>
<polygon fill="none" stroke="black" stroke-dasharray="1,5" points="8,-32.8 8,-230.8 465,-230.8 465,-32.8 8,-32.8"/>
</g>
<g id="clust3" class="cluster">
<title>cluster_InventoryModule_imports</title>
<polygon fill="none" stroke="black" points="347,-40.8 347,-92.8 457,-92.8 457,-40.8 347,-40.8"/>
</g>
<g id="clust6" class="cluster">
<title>cluster_InventoryModule_providers</title>
<polygon fill="none" stroke="black" points="16,-40.8 16,-92.8 339,-92.8 339,-40.8 16,-40.8"/>
</g>
<g id="clust4" class="cluster">
<title>cluster_InventoryModule_exports</title>
<polygon fill="none" stroke="black" points="187,-170.8 187,-222.8 319,-222.8 319,-170.8 187,-170.8"/>
</g>
<!-- CacheModule -->
<g id="node1" class="node">
<title>CacheModule</title>
<polygon fill="#8dd3c7" stroke="black" points="449.03,-84.8 446.03,-88.8 425.03,-88.8 422.03,-84.8 354.97,-84.8 354.97,-48.8 449.03,-48.8 449.03,-84.8"/>
<text text-anchor="middle" x="402" y="-62.6" font-family="Times,serif" font-size="14.00">CacheModule</text>
</g>
<!-- InventoryModule -->
<g id="node2" class="node">
<title>InventoryModule</title>
<polygon fill="#8dd3c7" stroke="black" points="309.98,-149.8 306.98,-153.8 285.98,-153.8 282.98,-149.8 196.02,-149.8 196.02,-113.8 309.98,-113.8 309.98,-149.8"/>
<text text-anchor="middle" x="253" y="-127.6" font-family="Times,serif" font-size="14.00">InventoryModule</text>
</g>
<!-- CacheModule&#45;&gt;InventoryModule -->
<g id="edge1" class="edge">
<title>CacheModule&#45;&gt;InventoryModule</title>
<path fill="none" stroke="black" d="M402,-84.91C402,-104.14 402,-131.8 402,-131.8 402,-131.8 320.18,-131.8 320.18,-131.8"/>
<polygon fill="black" stroke="black" points="320.18,-128.3 310.18,-131.8 320.18,-135.3 320.18,-128.3"/>
</g>
<!-- InventoryService  -->
<g id="node3" class="node">
<title>InventoryService </title>
<polygon fill="#fb8072" stroke="black" points="310.9,-214.8 195.1,-214.8 195.1,-178.8 310.9,-178.8 310.9,-214.8"/>
<text text-anchor="middle" x="253" y="-192.6" font-family="Times,serif" font-size="14.00">InventoryService </text>
</g>
<!-- InventoryModule&#45;&gt;InventoryService  -->
<g id="edge2" class="edge">
<title>InventoryModule&#45;&gt;InventoryService </title>
<path fill="none" stroke="black" stroke-dasharray="5,2" d="M253,-149.91C253,-149.91 253,-168.79 253,-168.79"/>
<polygon fill="black" stroke="black" points="249.5,-168.79 253,-178.79 256.5,-168.79 249.5,-168.79"/>
</g>
<!-- InventoryService -->
<g id="node4" class="node">
<title>InventoryService</title>
<ellipse fill="#fdb462" stroke="black" cx="253" cy="-66.8" rx="77.57" ry="18"/>
<text text-anchor="middle" x="253" y="-62.6" font-family="Times,serif" font-size="14.00">InventoryService</text>
</g>
<!-- InventoryService&#45;&gt;InventoryModule -->
<g id="edge3" class="edge">
<title>InventoryService&#45;&gt;InventoryModule</title>
<path fill="none" stroke="black" d="M253,-84.91C253,-84.91 253,-103.79 253,-103.79"/>
<polygon fill="black" stroke="black" points="249.5,-103.79 253,-113.79 256.5,-103.79 249.5,-103.79"/>
</g>
<!-- PrismaService -->
<g id="node5" class="node">
<title>PrismaService</title>
<ellipse fill="#fdb462" stroke="black" cx="91" cy="-66.8" rx="66.63" ry="18"/>
<text text-anchor="middle" x="91" y="-62.6" font-family="Times,serif" font-size="14.00">PrismaService</text>
</g>
<!-- PrismaService&#45;&gt;InventoryModule -->
<g id="edge4" class="edge">
<title>PrismaService&#45;&gt;InventoryModule</title>
<path fill="none" stroke="black" d="M91,-84.91C91,-104.14 91,-131.8 91,-131.8 91,-131.8 185.88,-131.8 185.88,-131.8"/>
<polygon fill="black" stroke="black" points="185.88,-135.3 195.88,-131.8 185.88,-128.3 185.88,-135.3"/>
</g>
</g>
</svg>
