<?xml version="1.0" encoding="UTF-8" standalone="no"?>
<!DOCTYPE svg PUBLIC "-//W3C//DTD SVG 1.1//EN"
 "http://www.w3.org/Graphics/SVG/1.1/DTD/svg11.dtd">
<!-- Generated by graphviz version 2.47.3 (20210619.1520)
 -->
<!-- Title: dependencies Pages: 1 -->
<svg width="308pt" height="174pt"
 viewBox="0.00 0.00 308.00 173.80" xmlns="http://www.w3.org/2000/svg" xmlns:xlink="http://www.w3.org/1999/xlink">
<g id="graph0" class="graph" transform="scale(1 1) rotate(0) translate(4 169.8)">
<title>dependencies</title>
<polygon fill="white" stroke="transparent" points="-4,4 -4,-169.8 304,-169.8 304,4 -4,4"/>
<text text-anchor="middle" x="150" y="-8.2" font-family="sans-serif" font-size="14.00">dependencies</text>
<g id="clust1" class="cluster">
<title>cluster_HealthCheckModule</title>
<polygon fill="none" stroke="black" stroke-dasharray="1,5" points="8,-32.8 8,-157.8 292,-157.8 292,-32.8 8,-32.8"/>
</g>
<g id="clust3" class="cluster">
<title>cluster_HealthCheckModule_imports</title>
<polygon fill="none" stroke="black" points="174,-40.8 174,-92.8 284,-92.8 284,-40.8 174,-40.8"/>
</g>
<g id="clust6" class="cluster">
<title>cluster_HealthCheckModule_providers</title>
<polygon fill="none" stroke="black" points="16,-40.8 16,-92.8 166,-92.8 166,-40.8 16,-40.8"/>
</g>
<!-- CacheModule -->
<g id="node1" class="node">
<title>CacheModule</title>
<polygon fill="#8dd3c7" stroke="black" points="276.03,-84.8 273.03,-88.8 252.03,-88.8 249.03,-84.8 181.97,-84.8 181.97,-48.8 276.03,-48.8 276.03,-84.8"/>
<text text-anchor="middle" x="229" y="-62.6" font-family="Times,serif" font-size="14.00">CacheModule</text>
</g>
<!-- HealthCheckModule -->
<g id="node2" class="node">
<title>HealthCheckModule</title>
<polygon fill="#8dd3c7" stroke="black" points="220.13,-149.8 217.13,-153.8 196.13,-153.8 193.13,-149.8 87.87,-149.8 87.87,-113.8 220.13,-113.8 220.13,-149.8"/>
<text text-anchor="middle" x="154" y="-127.6" font-family="Times,serif" font-size="14.00">HealthCheckModule</text>
</g>
<!-- CacheModule&#45;&gt;HealthCheckModule -->
<g id="edge1" class="edge">
<title>CacheModule&#45;&gt;HealthCheckModule</title>
<path fill="none" stroke="black" d="M201.03,-84.91C201.03,-84.91 201.03,-103.79 201.03,-103.79"/>
<polygon fill="black" stroke="black" points="197.53,-103.79 201.03,-113.79 204.53,-103.79 197.53,-103.79"/>
</g>
<!-- PrismaService -->
<g id="node3" class="node">
<title>PrismaService</title>
<ellipse fill="#fdb462" stroke="black" cx="91" cy="-66.8" rx="66.63" ry="18"/>
<text text-anchor="middle" x="91" y="-62.6" font-family="Times,serif" font-size="14.00">PrismaService</text>
</g>
<!-- PrismaService&#45;&gt;HealthCheckModule -->
<g id="edge2" class="edge">
<title>PrismaService&#45;&gt;HealthCheckModule</title>
<path fill="none" stroke="black" d="M122.75,-82.87C122.75,-82.87 122.75,-103.62 122.75,-103.62"/>
<polygon fill="black" stroke="black" points="119.25,-103.62 122.75,-113.62 126.25,-103.62 119.25,-103.62"/>
</g>
</g>
</svg>
