<?xml version="1.0" encoding="UTF-8" standalone="no"?>
<!DOCTYPE svg PUBLIC "-//W3C//DTD SVG 1.1//EN"
 "http://www.w3.org/Graphics/SVG/1.1/DTD/svg11.dtd">
<!-- Generated by graphviz version 2.47.3 (20210619.1520)
 -->
<!-- Title: dependencies Pages: 1 -->
<svg width="510pt" height="174pt"
 viewBox="0.00 0.00 510.00 173.80" xmlns="http://www.w3.org/2000/svg" xmlns:xlink="http://www.w3.org/1999/xlink">
<g id="graph0" class="graph" transform="scale(1 1) rotate(0) translate(4 169.8)">
<title>dependencies</title>
<polygon fill="white" stroke="transparent" points="-4,4 -4,-169.8 506,-169.8 506,4 -4,4"/>
<text text-anchor="middle" x="251" y="-8.2" font-family="sans-serif" font-size="14.00">dependencies</text>
<g id="clust1" class="cluster">
<title>cluster_HealthCheckModule</title>
<polygon fill="none" stroke="black" stroke-dasharray="1,5" points="8,-32.8 8,-157.8 494,-157.8 494,-32.8 8,-32.8"/>
</g>
<g id="clust6" class="cluster">
<title>cluster_HealthCheckModule_providers</title>
<polygon fill="none" stroke="black" points="338,-40.8 338,-92.8 486,-92.8 486,-40.8 338,-40.8"/>
</g>
<g id="clust3" class="cluster">
<title>cluster_HealthCheckModule_imports</title>
<polygon fill="none" stroke="black" points="16,-40.8 16,-92.8 330,-92.8 330,-40.8 16,-40.8"/>
</g>
<!-- AWSModule -->
<g id="node1" class="node">
<title>AWSModule</title>
<polygon fill="#8dd3c7" stroke="black" points="322.15,-84.8 319.15,-88.8 298.15,-88.8 295.15,-84.8 231.85,-84.8 231.85,-48.8 322.15,-48.8 322.15,-84.8"/>
<text text-anchor="middle" x="277" y="-62.6" font-family="Times,serif" font-size="14.00">AWSModule</text>
</g>
<!-- HealthCheckModule -->
<g id="node4" class="node">
<title>HealthCheckModule</title>
<polygon fill="#8dd3c7" stroke="black" points="287.13,-149.8 284.13,-153.8 263.13,-153.8 260.13,-149.8 154.87,-149.8 154.87,-113.8 287.13,-113.8 287.13,-149.8"/>
<text text-anchor="middle" x="221" y="-127.6" font-family="Times,serif" font-size="14.00">HealthCheckModule</text>
</g>
<!-- AWSModule&#45;&gt;HealthCheckModule -->
<g id="edge1" class="edge">
<title>AWSModule&#45;&gt;HealthCheckModule</title>
<path fill="none" stroke="black" d="M259.49,-84.91C259.49,-84.91 259.49,-103.79 259.49,-103.79"/>
<polygon fill="black" stroke="black" points="255.99,-103.79 259.49,-113.79 262.99,-103.79 255.99,-103.79"/>
</g>
<!-- CacheModule -->
<g id="node2" class="node">
<title>CacheModule</title>
<polygon fill="#8dd3c7" stroke="black" points="213.03,-84.8 210.03,-88.8 189.03,-88.8 186.03,-84.8 118.97,-84.8 118.97,-48.8 213.03,-48.8 213.03,-84.8"/>
<text text-anchor="middle" x="166" y="-62.6" font-family="Times,serif" font-size="14.00">CacheModule</text>
</g>
<!-- CacheModule&#45;&gt;HealthCheckModule -->
<g id="edge2" class="edge">
<title>CacheModule&#45;&gt;HealthCheckModule</title>
<path fill="none" stroke="black" d="M183.97,-84.91C183.97,-84.91 183.97,-103.79 183.97,-103.79"/>
<polygon fill="black" stroke="black" points="180.47,-103.79 183.97,-113.79 187.47,-103.79 180.47,-103.79"/>
</g>
<!-- DbModule -->
<g id="node3" class="node">
<title>DbModule</title>
<polygon fill="#8dd3c7" stroke="black" points="100.16,-84.8 97.16,-88.8 76.16,-88.8 73.16,-84.8 23.84,-84.8 23.84,-48.8 100.16,-48.8 100.16,-84.8"/>
<text text-anchor="middle" x="62" y="-62.6" font-family="Times,serif" font-size="14.00">DbModule</text>
</g>
<!-- DbModule&#45;&gt;HealthCheckModule -->
<g id="edge3" class="edge">
<title>DbModule&#45;&gt;HealthCheckModule</title>
<path fill="none" stroke="black" d="M62,-84.91C62,-104.14 62,-131.8 62,-131.8 62,-131.8 144.49,-131.8 144.49,-131.8"/>
<polygon fill="black" stroke="black" points="144.49,-135.3 154.49,-131.8 144.49,-128.3 144.49,-135.3"/>
</g>
<!-- HealthService -->
<g id="node5" class="node">
<title>HealthService</title>
<ellipse fill="#fdb462" stroke="black" cx="412" cy="-66.8" rx="65.97" ry="18"/>
<text text-anchor="middle" x="412" y="-62.6" font-family="Times,serif" font-size="14.00">HealthService</text>
</g>
<!-- HealthService&#45;&gt;HealthCheckModule -->
<g id="edge4" class="edge">
<title>HealthService&#45;&gt;HealthCheckModule</title>
<path fill="none" stroke="black" d="M412,-84.91C412,-104.14 412,-131.8 412,-131.8 412,-131.8 297.27,-131.8 297.27,-131.8"/>
<polygon fill="black" stroke="black" points="297.27,-128.3 287.27,-131.8 297.27,-135.3 297.27,-128.3"/>
</g>
</g>
</svg>
