<?xml version="1.0" encoding="UTF-8" standalone="no"?>
<!DOCTYPE svg PUBLIC "-//W3C//DTD SVG 1.1//EN"
 "http://www.w3.org/Graphics/SVG/1.1/DTD/svg11.dtd">
<!-- Generated by graphviz version 2.47.3 (20210619.1520)
 -->
<!-- Title: dependencies Pages: 1 -->
<svg width="401pt" height="174pt"
 viewBox="0.00 0.00 401.00 173.80" xmlns="http://www.w3.org/2000/svg" xmlns:xlink="http://www.w3.org/1999/xlink">
<g id="graph0" class="graph" transform="scale(1 1) rotate(0) translate(4 169.8)">
<title>dependencies</title>
<polygon fill="white" stroke="transparent" points="-4,4 -4,-169.8 397,-169.8 397,4 -4,4"/>
<text text-anchor="middle" x="196.5" y="-8.2" font-family="sans-serif" font-size="14.00">dependencies</text>
<g id="clust1" class="cluster">
<title>cluster_HealthCheckModule</title>
<polygon fill="none" stroke="black" stroke-dasharray="1,5" points="8,-32.8 8,-157.8 385,-157.8 385,-32.8 8,-32.8"/>
</g>
<g id="clust6" class="cluster">
<title>cluster_HealthCheckModule_providers</title>
<polygon fill="none" stroke="black" points="229,-40.8 229,-92.8 377,-92.8 377,-40.8 229,-40.8"/>
</g>
<g id="clust3" class="cluster">
<title>cluster_HealthCheckModule_imports</title>
<polygon fill="none" stroke="black" points="16,-40.8 16,-92.8 221,-92.8 221,-40.8 16,-40.8"/>
</g>
<!-- CacheModule -->
<g id="node1" class="node">
<title>CacheModule</title>
<polygon fill="#8dd3c7" stroke="black" points="213.03,-84.8 210.03,-88.8 189.03,-88.8 186.03,-84.8 118.97,-84.8 118.97,-48.8 213.03,-48.8 213.03,-84.8"/>
<text text-anchor="middle" x="166" y="-62.6" font-family="Times,serif" font-size="14.00">CacheModule</text>
</g>
<!-- HealthCheckModule -->
<g id="node3" class="node">
<title>HealthCheckModule</title>
<polygon fill="#8dd3c7" stroke="black" points="232.13,-149.8 229.13,-153.8 208.13,-153.8 205.13,-149.8 99.87,-149.8 99.87,-113.8 232.13,-113.8 232.13,-149.8"/>
<text text-anchor="middle" x="166" y="-127.6" font-family="Times,serif" font-size="14.00">HealthCheckModule</text>
</g>
<!-- CacheModule&#45;&gt;HealthCheckModule -->
<g id="edge1" class="edge">
<title>CacheModule&#45;&gt;HealthCheckModule</title>
<path fill="none" stroke="black" d="M166,-84.91C166,-84.91 166,-103.79 166,-103.79"/>
<polygon fill="black" stroke="black" points="162.5,-103.79 166,-113.79 169.5,-103.79 162.5,-103.79"/>
</g>
<!-- DbModule -->
<g id="node2" class="node">
<title>DbModule</title>
<polygon fill="#8dd3c7" stroke="black" points="100.16,-84.8 97.16,-88.8 76.16,-88.8 73.16,-84.8 23.84,-84.8 23.84,-48.8 100.16,-48.8 100.16,-84.8"/>
<text text-anchor="middle" x="62" y="-62.6" font-family="Times,serif" font-size="14.00">DbModule</text>
</g>
<!-- DbModule&#45;&gt;HealthCheckModule -->
<g id="edge2" class="edge">
<title>DbModule&#45;&gt;HealthCheckModule</title>
<path fill="none" stroke="black" d="M100.37,-66.8C105.77,-66.8 109.53,-66.8 109.53,-66.8 109.53,-66.8 109.53,-103.69 109.53,-103.69"/>
<polygon fill="black" stroke="black" points="106.03,-103.69 109.53,-113.69 113.03,-103.69 106.03,-103.69"/>
</g>
<!-- HealthService -->
<g id="node4" class="node">
<title>HealthService</title>
<ellipse fill="#fdb462" stroke="black" cx="303" cy="-66.8" rx="65.97" ry="18"/>
<text text-anchor="middle" x="303" y="-62.6" font-family="Times,serif" font-size="14.00">HealthService</text>
</g>
<!-- HealthService&#45;&gt;HealthCheckModule -->
<g id="edge3" class="edge">
<title>HealthService&#45;&gt;HealthCheckModule</title>
<path fill="none" stroke="black" d="M237.13,-66.8C228.62,-66.8 222.79,-66.8 222.79,-66.8 222.79,-66.8 222.79,-103.69 222.79,-103.69"/>
<polygon fill="black" stroke="black" points="219.29,-103.69 222.79,-113.69 226.29,-103.69 219.29,-103.69"/>
</g>
</g>
</svg>
