<?xml version="1.0" encoding="UTF-8" standalone="no"?>
<!DOCTYPE svg PUBLIC "-//W3C//DTD SVG 1.1//EN"
 "http://www.w3.org/Graphics/SVG/1.1/DTD/svg11.dtd">
<!-- Generated by graphviz version 2.47.3 (20210619.1520)
 -->
<!-- Title: dependencies Pages: 1 -->
<svg width="280pt" height="247pt"
 viewBox="0.00 0.00 280.00 246.80" xmlns="http://www.w3.org/2000/svg" xmlns:xlink="http://www.w3.org/1999/xlink">
<g id="graph0" class="graph" transform="scale(1 1) rotate(0) translate(4 242.8)">
<title>dependencies</title>
<polygon fill="white" stroke="transparent" points="-4,4 -4,-242.8 276,-242.8 276,4 -4,4"/>
<text text-anchor="middle" x="136" y="-8.2" font-family="sans-serif" font-size="14.00">dependencies</text>
<g id="clust1" class="cluster">
<title>cluster_FileModule</title>
<polygon fill="none" stroke="black" stroke-dasharray="1,5" points="8,-32.8 8,-230.8 264,-230.8 264,-32.8 8,-32.8"/>
</g>
<g id="clust6" class="cluster">
<title>cluster_FileModule_providers</title>
<polygon fill="none" stroke="black" points="130,-40.8 130,-92.8 256,-92.8 256,-40.8 130,-40.8"/>
</g>
<g id="clust4" class="cluster">
<title>cluster_FileModule_exports</title>
<polygon fill="none" stroke="black" points="81,-170.8 81,-222.8 181,-222.8 181,-170.8 81,-170.8"/>
</g>
<g id="clust3" class="cluster">
<title>cluster_FileModule_imports</title>
<polygon fill="none" stroke="black" points="16,-40.8 16,-92.8 122,-92.8 122,-40.8 16,-40.8"/>
</g>
<!-- AWSModule -->
<g id="node1" class="node">
<title>AWSModule</title>
<polygon fill="#8dd3c7" stroke="black" points="114.15,-84.8 111.15,-88.8 90.15,-88.8 87.15,-84.8 23.85,-84.8 23.85,-48.8 114.15,-48.8 114.15,-84.8"/>
<text text-anchor="middle" x="69" y="-62.6" font-family="Times,serif" font-size="14.00">AWSModule</text>
</g>
<!-- FileModule -->
<g id="node2" class="node">
<title>FileModule</title>
<polygon fill="#8dd3c7" stroke="black" points="171.83,-149.8 168.83,-153.8 147.83,-153.8 144.83,-149.8 90.17,-149.8 90.17,-113.8 171.83,-113.8 171.83,-149.8"/>
<text text-anchor="middle" x="131" y="-127.6" font-family="Times,serif" font-size="14.00">FileModule</text>
</g>
<!-- AWSModule&#45;&gt;FileModule -->
<g id="edge1" class="edge">
<title>AWSModule&#45;&gt;FileModule</title>
<path fill="none" stroke="black" d="M102.33,-84.91C102.33,-84.91 102.33,-103.79 102.33,-103.79"/>
<polygon fill="black" stroke="black" points="98.83,-103.79 102.33,-113.79 105.83,-103.79 98.83,-103.79"/>
</g>
<!-- FileService  -->
<g id="node3" class="node">
<title>FileService </title>
<polygon fill="#fb8072" stroke="black" points="172.76,-214.8 89.24,-214.8 89.24,-178.8 172.76,-178.8 172.76,-214.8"/>
<text text-anchor="middle" x="131" y="-192.6" font-family="Times,serif" font-size="14.00">FileService </text>
</g>
<!-- FileModule&#45;&gt;FileService  -->
<g id="edge2" class="edge">
<title>FileModule&#45;&gt;FileService </title>
<path fill="none" stroke="black" stroke-dasharray="5,2" d="M131,-149.91C131,-149.91 131,-168.79 131,-168.79"/>
<polygon fill="black" stroke="black" points="127.5,-168.79 131,-178.79 134.5,-168.79 127.5,-168.79"/>
</g>
<!-- FileService -->
<g id="node4" class="node">
<title>FileService</title>
<ellipse fill="#fdb462" stroke="black" cx="193" cy="-66.8" rx="55.03" ry="18"/>
<text text-anchor="middle" x="193" y="-62.6" font-family="Times,serif" font-size="14.00">FileService</text>
</g>
<!-- FileService&#45;&gt;FileModule -->
<g id="edge3" class="edge">
<title>FileService&#45;&gt;FileModule</title>
<path fill="none" stroke="black" d="M154.82,-79.95C154.82,-79.95 154.82,-103.49 154.82,-103.49"/>
<polygon fill="black" stroke="black" points="151.33,-103.49 154.82,-113.49 158.33,-103.49 151.33,-103.49"/>
</g>
</g>
</svg>
