<?xml version="1.0" encoding="UTF-8" standalone="no"?>
<!DOCTYPE svg PUBLIC "-//W3C//DTD SVG 1.1//EN"
 "http://www.w3.org/Graphics/SVG/1.1/DTD/svg11.dtd">
<!-- Generated by graphviz version 2.47.3 (20210619.1520)
 -->
<!-- Title: dependencies Pages: 1 -->
<svg width="280pt" height="247pt"
 viewBox="0.00 0.00 280.00 246.80" xmlns="http://www.w3.org/2000/svg" xmlns:xlink="http://www.w3.org/1999/xlink">
<g id="graph0" class="graph" transform="scale(1 1) rotate(0) translate(4 242.8)">
<title>dependencies</title>
<polygon fill="white" stroke="transparent" points="-4,4 -4,-242.8 276,-242.8 276,4 -4,4"/>
<text text-anchor="middle" x="136" y="-8.2" font-family="sans-serif" font-size="14.00">dependencies</text>
<g id="clust1" class="cluster">
<title>cluster_FileModule</title>
<polygon fill="none" stroke="black" stroke-dasharray="1,5" points="8,-32.8 8,-230.8 264,-230.8 264,-32.8 8,-32.8"/>
</g>
<g id="clust3" class="cluster">
<title>cluster_FileModule_imports</title>
<polygon fill="none" stroke="black" points="150,-40.8 150,-92.8 256,-92.8 256,-40.8 150,-40.8"/>
</g>
<g id="clust4" class="cluster">
<title>cluster_FileModule_exports</title>
<polygon fill="none" stroke="black" points="91,-170.8 91,-222.8 191,-222.8 191,-170.8 91,-170.8"/>
</g>
<g id="clust6" class="cluster">
<title>cluster_FileModule_providers</title>
<polygon fill="none" stroke="black" points="16,-40.8 16,-92.8 142,-92.8 142,-40.8 16,-40.8"/>
</g>
<!-- AWSModule -->
<g id="node1" class="node">
<title>AWSModule</title>
<polygon fill="#8dd3c7" stroke="black" points="248.15,-84.8 245.15,-88.8 224.15,-88.8 221.15,-84.8 157.85,-84.8 157.85,-48.8 248.15,-48.8 248.15,-84.8"/>
<text text-anchor="middle" x="203" y="-62.6" font-family="Times,serif" font-size="14.00">AWSModule</text>
</g>
<!-- FileModule -->
<g id="node2" class="node">
<title>FileModule</title>
<polygon fill="#8dd3c7" stroke="black" points="181.83,-149.8 178.83,-153.8 157.83,-153.8 154.83,-149.8 100.17,-149.8 100.17,-113.8 181.83,-113.8 181.83,-149.8"/>
<text text-anchor="middle" x="141" y="-127.6" font-family="Times,serif" font-size="14.00">FileModule</text>
</g>
<!-- AWSModule&#45;&gt;FileModule -->
<g id="edge1" class="edge">
<title>AWSModule&#45;&gt;FileModule</title>
<path fill="none" stroke="black" d="M169.67,-84.91C169.67,-84.91 169.67,-103.79 169.67,-103.79"/>
<polygon fill="black" stroke="black" points="166.17,-103.79 169.67,-113.79 173.17,-103.79 166.17,-103.79"/>
</g>
<!-- FileService  -->
<g id="node3" class="node">
<title>FileService </title>
<polygon fill="#fb8072" stroke="black" points="182.76,-214.8 99.24,-214.8 99.24,-178.8 182.76,-178.8 182.76,-214.8"/>
<text text-anchor="middle" x="141" y="-192.6" font-family="Times,serif" font-size="14.00">FileService </text>
</g>
<!-- FileModule&#45;&gt;FileService  -->
<g id="edge2" class="edge">
<title>FileModule&#45;&gt;FileService </title>
<path fill="none" stroke="black" stroke-dasharray="5,2" d="M141,-149.91C141,-149.91 141,-168.79 141,-168.79"/>
<polygon fill="black" stroke="black" points="137.5,-168.79 141,-178.79 144.5,-168.79 137.5,-168.79"/>
</g>
<!-- FileService -->
<g id="node4" class="node">
<title>FileService</title>
<ellipse fill="#fdb462" stroke="black" cx="79" cy="-66.8" rx="55.03" ry="18"/>
<text text-anchor="middle" x="79" y="-62.6" font-family="Times,serif" font-size="14.00">FileService</text>
</g>
<!-- FileService&#45;&gt;FileModule -->
<g id="edge3" class="edge">
<title>FileService&#45;&gt;FileModule</title>
<path fill="none" stroke="black" d="M117.18,-79.95C117.18,-79.95 117.18,-103.49 117.18,-103.49"/>
<polygon fill="black" stroke="black" points="113.68,-103.49 117.18,-113.49 120.68,-103.49 113.68,-103.49"/>
</g>
</g>
</svg>
