<?xml version="1.0" encoding="UTF-8" standalone="no"?>
<!-- Created with Inkscape (http://www.inkscape.org/) -->

<svg
   xmlns:dc="http://purl.org/dc/elements/1.1/"
   xmlns:cc="http://creativecommons.org/ns#"
   xmlns:rdf="http://www.w3.org/1999/02/22-rdf-syntax-ns#"
   xmlns:svg="http://www.w3.org/2000/svg"
   xmlns="http://www.w3.org/2000/svg"
   xmlns:sodipodi="http://sodipodi.sourceforge.net/DTD/sodipodi-0.dtd"
   xmlns:inkscape="http://www.inkscape.org/namespaces/inkscape"
   version="1.1"
   id="svg2"
   xml:space="preserve"
   width="512"
   height="512"
   viewBox="0 0 512 512"
   sodipodi:docname="logo.svg"
   inkscape:version="0.92.3 (2405546, 2018-03-11)"><metadata
     id="metadata8"><rdf:RDF><cc:Work
         rdf:about=""><dc:format>image/svg+xml</dc:format><dc:type
           rdf:resource="http://purl.org/dc/dcmitype/StillImage" /><dc:title></dc:title></cc:Work></rdf:RDF></metadata><defs
     id="defs6" /><sodipodi:namedview
     pagecolor="#ffffff"
     bordercolor="#666666"
     borderopacity="1"
     objecttolerance="10"
     gridtolerance="10"
     guidetolerance="10"
     inkscape:pageopacity="0"
     inkscape:pageshadow="2"
     inkscape:window-width="1366"
     inkscape:window-height="740"
     id="namedview4"
     showgrid="false"
     inkscape:zoom="1.5040176"
     inkscape:cx="348.55057"
     inkscape:cy="279.9663"
     inkscape:window-x="0"
     inkscape:window-y="0"
     inkscape:window-maximized="1"
     inkscape:current-layer="g10" /><g
     id="g10"
     inkscape:groupmode="layer"
     inkscape:label="ink_ext_XXXXXX"
     transform="matrix(1.3333333,0,0,-1.3333333,0,512)"><path
       inkscape:connector-curvature="0"
       id="path28"
       style="fill:#100f0d;fill-opacity:1;fill-rule:evenodd;stroke:none;stroke-width:0.1"
       d="m 327.22287,124.87205 79.49,46.422" /><path
       inkscape:connector-curvature="0"
       id="path14"
       style="fill:#27243a;fill-opacity:1;fill-rule:evenodd;stroke:none;stroke-width:0.09999999"
       d="m 286.99,199.809 c 0,-2.251 -1.19,-4.33 -3.11,-5.454 l -25.27,-14.766 -0.1,-64.0992 c 0,-2.2429 -1.19,-4.32889 -3.11,-5.45389 l -15.64,-9.1269 c -0.96,-0.55781 -2.03,-0.84491 -3.11,-0.8442 -1.07,0.001 -2.14,0.28909 -3.11,0.8493 -1.92,1.12689 -3.1,3.207 -3.09,5.45889 v 56.818 L 204.3,147.909 c 0,-0.008 -0.1,-0.017 -0.1,-0.025 -1.92,-1.092 -4.26,-1.09001 -6.17,0.03 -1.93,1.12699 -3.1,3.207 -3.1,5.45899 v 24.505 c 0,2.25101 1.18,4.33001 3.11,5.462 l 79.49,46.422 c 1.93,1.124 4.3,1.123 6.22,-0.005 1.92,-1.127 3.11,-3.207 3.11,-5.459 z m -91.84,74.812 c 0,2.251 1.18,4.33 3.11,5.454 1.93,1.124 4.3,1.123 6.22,-0.005 l 68.25,-39.98897 c 1.63,-0.954 1.65,-3.305 0,-4.249 -9.65,-5.614 -35.85,-20.888 -45.58,-26.559 -1.66,-0.969 -3.7,0.241 -3.7,2.164 v 18.194 c 0,0.148 -0.1,0.288 -0.21,0.37 l -25.03,14.671 c -1.93,1.127 -3.11,3.207 -3.11,5.459 z m -7.88,-23.083 c 0,-3.115 -1.66,-5.999 -4.35,-7.575 L 158.88,229.92 v -18.514 c 0,-1.89 -2.01,-3.072 -3.63,-2.126 -9.68,5.661 -36.02,21.073 -45.66,26.693 -1.61,0.946 -1.57,3.263 0,4.207 l 68.34,39.913 c 1.92,1.125 4.3,1.123 6.22,-0.005 1.92,-1.127 3.11,-3.20699 3.1,-5.459 z m -1.42,-98.162 c 0,-2.251 -1.19,-4.33 -3.11,-5.454 -1.91,-1.108 -4.25,-1.114 -6.17,-0.02 0,0.009 0,0.016 0,0.025 l -26.13,15.321 -0.1,-56.8191 c 0,-2.2508 -1.19,-4.3301 -3.1,-5.4539 -0.97,-0.5578 -2.04,-0.8449 -3.11,-0.8441 -1.07,7.5e-4 -2.15,0.289 -3.11,0.8492 l -15.63,9.1578 c -1.92,1.1269 -3.1,3.207 -3.1,5.45 v 64.1081 l -25.249999,14.795 c -1.92,1.12699 -3.1,3.207 -3.1,5.45899 V 224.447 c 0,2.252 1.19,4.322 3.11,5.447 1.93,1.12399 4.299999,1.122 6.209999,-0.005 l 79.43,-46.539 c 1.93,-1.128 3.11,-3.216 3.11,-5.46 z M 190.5,334.5 C 110.97,334.5 46.500001,270.029 46.500001,190.5 46.500001,110.9711 110.97,46.500001 190.5,46.500001 c 79.53,0 144,64.471099 144,143.999999 0,79.529 -64.47,144 -144,144" /></g></svg>