<?xml version="1.0" encoding="UTF-8" standalone="no"?>
<!DOCTYPE svg PUBLIC "-//W3C//DTD SVG 1.1//EN"
 "http://www.w3.org/Graphics/SVG/1.1/DTD/svg11.dtd">
<!-- Generated by graphviz version 2.47.3 (20210619.1520)
 -->
<!-- Title: dependencies Pages: 1 -->
<svg width="530pt" height="247pt"
 viewBox="0.00 0.00 530.00 246.80" xmlns="http://www.w3.org/2000/svg" xmlns:xlink="http://www.w3.org/1999/xlink">
<g id="graph0" class="graph" transform="scale(1 1) rotate(0) translate(4 242.8)">
<title>dependencies</title>
<polygon fill="white" stroke="transparent" points="-4,4 -4,-242.8 526,-242.8 526,4 -4,4"/>
<text text-anchor="middle" x="261" y="-8.2" font-family="sans-serif" font-size="14.00">dependencies</text>
<g id="clust1" class="cluster">
<title>cluster_SupportModule</title>
<polygon fill="none" stroke="black" stroke-dasharray="1,5" points="8,-32.8 8,-230.8 514,-230.8 514,-32.8 8,-32.8"/>
</g>
<g id="clust4" class="cluster">
<title>cluster_SupportModule_exports</title>
<polygon fill="none" stroke="black" points="172,-170.8 172,-222.8 294,-222.8 294,-170.8 172,-170.8"/>
</g>
<g id="clust6" class="cluster">
<title>cluster_SupportModule_providers</title>
<polygon fill="none" stroke="black" points="348,-40.8 348,-92.8 506,-92.8 506,-40.8 348,-40.8"/>
</g>
<g id="clust3" class="cluster">
<title>cluster_SupportModule_imports</title>
<polygon fill="none" stroke="black" points="16,-40.8 16,-92.8 340,-92.8 340,-40.8 16,-40.8"/>
</g>
<!-- AWSModule -->
<g id="node1" class="node">
<title>AWSModule</title>
<polygon fill="#8dd3c7" stroke="black" points="332.15,-84.8 329.15,-88.8 308.15,-88.8 305.15,-84.8 241.85,-84.8 241.85,-48.8 332.15,-48.8 332.15,-84.8"/>
<text text-anchor="middle" x="287" y="-62.6" font-family="Times,serif" font-size="14.00">AWSModule</text>
</g>
<!-- SupportModule -->
<g id="node4" class="node">
<title>SupportModule</title>
<polygon fill="#8dd3c7" stroke="black" points="284.88,-149.8 281.88,-153.8 260.88,-153.8 257.88,-149.8 181.12,-149.8 181.12,-113.8 284.88,-113.8 284.88,-149.8"/>
<text text-anchor="middle" x="233" y="-127.6" font-family="Times,serif" font-size="14.00">SupportModule</text>
</g>
<!-- AWSModule&#45;&gt;SupportModule -->
<g id="edge1" class="edge">
<title>AWSModule&#45;&gt;SupportModule</title>
<path fill="none" stroke="black" d="M263.31,-84.91C263.31,-84.91 263.31,-103.79 263.31,-103.79"/>
<polygon fill="black" stroke="black" points="259.81,-103.79 263.31,-113.79 266.81,-103.79 259.81,-103.79"/>
</g>
<!-- AuthModule -->
<g id="node2" class="node">
<title>AuthModule</title>
<polygon fill="#8dd3c7" stroke="black" points="223.55,-84.8 220.55,-88.8 199.55,-88.8 196.55,-84.8 136.45,-84.8 136.45,-48.8 223.55,-48.8 223.55,-84.8"/>
<text text-anchor="middle" x="180" y="-62.6" font-family="Times,serif" font-size="14.00">AuthModule</text>
</g>
<!-- AuthModule&#45;&gt;SupportModule -->
<g id="edge2" class="edge">
<title>AuthModule&#45;&gt;SupportModule</title>
<path fill="none" stroke="black" d="M202.42,-84.91C202.42,-84.91 202.42,-103.79 202.42,-103.79"/>
<polygon fill="black" stroke="black" points="198.92,-103.79 202.42,-113.79 205.92,-103.79 198.92,-103.79"/>
</g>
<!-- CacheModule -->
<g id="node3" class="node">
<title>CacheModule</title>
<polygon fill="#8dd3c7" stroke="black" points="118.03,-84.8 115.03,-88.8 94.03,-88.8 91.03,-84.8 23.97,-84.8 23.97,-48.8 118.03,-48.8 118.03,-84.8"/>
<text text-anchor="middle" x="71" y="-62.6" font-family="Times,serif" font-size="14.00">CacheModule</text>
</g>
<!-- CacheModule&#45;&gt;SupportModule -->
<g id="edge3" class="edge">
<title>CacheModule&#45;&gt;SupportModule</title>
<path fill="none" stroke="black" d="M71,-84.91C71,-104.14 71,-131.8 71,-131.8 71,-131.8 170.85,-131.8 170.85,-131.8"/>
<polygon fill="black" stroke="black" points="170.85,-135.3 180.85,-131.8 170.85,-128.3 170.85,-135.3"/>
</g>
<!-- SupportService  -->
<g id="node5" class="node">
<title>SupportService </title>
<polygon fill="#fb8072" stroke="black" points="285.81,-214.8 180.19,-214.8 180.19,-178.8 285.81,-178.8 285.81,-214.8"/>
<text text-anchor="middle" x="233" y="-192.6" font-family="Times,serif" font-size="14.00">SupportService </text>
</g>
<!-- SupportModule&#45;&gt;SupportService  -->
<g id="edge4" class="edge">
<title>SupportModule&#45;&gt;SupportService </title>
<path fill="none" stroke="black" stroke-dasharray="5,2" d="M233,-149.91C233,-149.91 233,-168.79 233,-168.79"/>
<polygon fill="black" stroke="black" points="229.5,-168.79 233,-178.79 236.5,-168.79 229.5,-168.79"/>
</g>
<!-- SupportService -->
<g id="node6" class="node">
<title>SupportService</title>
<ellipse fill="#fdb462" stroke="black" cx="427" cy="-66.8" rx="70.65" ry="18"/>
<text text-anchor="middle" x="427" y="-62.6" font-family="Times,serif" font-size="14.00">SupportService</text>
</g>
<!-- SupportService&#45;&gt;SupportModule -->
<g id="edge5" class="edge">
<title>SupportService&#45;&gt;SupportModule</title>
<path fill="none" stroke="black" d="M427,-84.91C427,-104.14 427,-131.8 427,-131.8 427,-131.8 294.99,-131.8 294.99,-131.8"/>
<polygon fill="black" stroke="black" points="294.99,-128.3 284.99,-131.8 294.99,-135.3 294.99,-128.3"/>
</g>
</g>
</svg>
