<?xml version="1.0" encoding="UTF-8" standalone="no"?>
<!DOCTYPE svg PUBLIC "-//W3C//DTD SVG 1.1//EN"
 "http://www.w3.org/Graphics/SVG/1.1/DTD/svg11.dtd">
<!-- Generated by graphviz version 2.47.3 (20210619.1520)
 -->
<!-- Title: dependencies Pages: 1 -->
<svg width="530pt" height="247pt"
 viewBox="0.00 0.00 530.00 246.80" xmlns="http://www.w3.org/2000/svg" xmlns:xlink="http://www.w3.org/1999/xlink">
<g id="graph0" class="graph" transform="scale(1 1) rotate(0) translate(4 242.8)">
<title>dependencies</title>
<polygon fill="white" stroke="transparent" points="-4,4 -4,-242.8 526,-242.8 526,4 -4,4"/>
<text text-anchor="middle" x="261" y="-8.2" font-family="sans-serif" font-size="14.00">dependencies</text>
<g id="clust1" class="cluster">
<title>cluster_SupportModule</title>
<polygon fill="none" stroke="black" stroke-dasharray="1,5" points="8,-32.8 8,-230.8 514,-230.8 514,-32.8 8,-32.8"/>
</g>
<g id="clust3" class="cluster">
<title>cluster_SupportModule_imports</title>
<polygon fill="none" stroke="black" points="182,-40.8 182,-92.8 506,-92.8 506,-40.8 182,-40.8"/>
</g>
<g id="clust6" class="cluster">
<title>cluster_SupportModule_providers</title>
<polygon fill="none" stroke="black" points="16,-40.8 16,-92.8 174,-92.8 174,-40.8 16,-40.8"/>
</g>
<g id="clust4" class="cluster">
<title>cluster_SupportModule_exports</title>
<polygon fill="none" stroke="black" points="230,-170.8 230,-222.8 352,-222.8 352,-170.8 230,-170.8"/>
</g>
<!-- AWSModule -->
<g id="node1" class="node">
<title>AWSModule</title>
<polygon fill="#8dd3c7" stroke="black" points="498.15,-84.8 495.15,-88.8 474.15,-88.8 471.15,-84.8 407.85,-84.8 407.85,-48.8 498.15,-48.8 498.15,-84.8"/>
<text text-anchor="middle" x="453" y="-62.6" font-family="Times,serif" font-size="14.00">AWSModule</text>
</g>
<!-- SupportModule -->
<g id="node4" class="node">
<title>SupportModule</title>
<polygon fill="#8dd3c7" stroke="black" points="342.88,-149.8 339.88,-153.8 318.88,-153.8 315.88,-149.8 239.12,-149.8 239.12,-113.8 342.88,-113.8 342.88,-149.8"/>
<text text-anchor="middle" x="291" y="-127.6" font-family="Times,serif" font-size="14.00">SupportModule</text>
</g>
<!-- AWSModule&#45;&gt;SupportModule -->
<g id="edge1" class="edge">
<title>AWSModule&#45;&gt;SupportModule</title>
<path fill="none" stroke="black" d="M453,-84.91C453,-104.14 453,-131.8 453,-131.8 453,-131.8 353.15,-131.8 353.15,-131.8"/>
<polygon fill="black" stroke="black" points="353.15,-128.3 343.15,-131.8 353.15,-135.3 353.15,-128.3"/>
</g>
<!-- AuthModule -->
<g id="node2" class="node">
<title>AuthModule</title>
<polygon fill="#8dd3c7" stroke="black" points="389.55,-84.8 386.55,-88.8 365.55,-88.8 362.55,-84.8 302.45,-84.8 302.45,-48.8 389.55,-48.8 389.55,-84.8"/>
<text text-anchor="middle" x="346" y="-62.6" font-family="Times,serif" font-size="14.00">AuthModule</text>
</g>
<!-- AuthModule&#45;&gt;SupportModule -->
<g id="edge2" class="edge">
<title>AuthModule&#45;&gt;SupportModule</title>
<path fill="none" stroke="black" d="M322.58,-84.91C322.58,-84.91 322.58,-103.79 322.58,-103.79"/>
<polygon fill="black" stroke="black" points="319.08,-103.79 322.58,-113.79 326.08,-103.79 319.08,-103.79"/>
</g>
<!-- CacheModule -->
<g id="node3" class="node">
<title>CacheModule</title>
<polygon fill="#8dd3c7" stroke="black" points="284.03,-84.8 281.03,-88.8 260.03,-88.8 257.03,-84.8 189.97,-84.8 189.97,-48.8 284.03,-48.8 284.03,-84.8"/>
<text text-anchor="middle" x="237" y="-62.6" font-family="Times,serif" font-size="14.00">CacheModule</text>
</g>
<!-- CacheModule&#45;&gt;SupportModule -->
<g id="edge3" class="edge">
<title>CacheModule&#45;&gt;SupportModule</title>
<path fill="none" stroke="black" d="M261.66,-84.91C261.66,-84.91 261.66,-103.79 261.66,-103.79"/>
<polygon fill="black" stroke="black" points="258.16,-103.79 261.66,-113.79 265.16,-103.79 258.16,-103.79"/>
</g>
<!-- SupportService  -->
<g id="node5" class="node">
<title>SupportService </title>
<polygon fill="#fb8072" stroke="black" points="343.81,-214.8 238.19,-214.8 238.19,-178.8 343.81,-178.8 343.81,-214.8"/>
<text text-anchor="middle" x="291" y="-192.6" font-family="Times,serif" font-size="14.00">SupportService </text>
</g>
<!-- SupportModule&#45;&gt;SupportService  -->
<g id="edge4" class="edge">
<title>SupportModule&#45;&gt;SupportService </title>
<path fill="none" stroke="black" stroke-dasharray="5,2" d="M291,-149.91C291,-149.91 291,-168.79 291,-168.79"/>
<polygon fill="black" stroke="black" points="287.5,-168.79 291,-178.79 294.5,-168.79 287.5,-168.79"/>
</g>
<!-- SupportService -->
<g id="node6" class="node">
<title>SupportService</title>
<ellipse fill="#fdb462" stroke="black" cx="95" cy="-66.8" rx="70.65" ry="18"/>
<text text-anchor="middle" x="95" y="-62.6" font-family="Times,serif" font-size="14.00">SupportService</text>
</g>
<!-- SupportService&#45;&gt;SupportModule -->
<g id="edge5" class="edge">
<title>SupportService&#45;&gt;SupportModule</title>
<path fill="none" stroke="black" d="M95,-84.91C95,-104.14 95,-131.8 95,-131.8 95,-131.8 228.99,-131.8 228.99,-131.8"/>
<polygon fill="black" stroke="black" points="228.99,-135.3 238.99,-131.8 228.99,-128.3 228.99,-135.3"/>
</g>
</g>
</svg>
