<?xml version="1.0" encoding="UTF-8" standalone="no"?>
<!DOCTYPE svg PUBLIC "-//W3C//DTD SVG 1.1//EN"
 "http://www.w3.org/Graphics/SVG/1.1/DTD/svg11.dtd">
<!-- Generated by graphviz version 2.47.3 (20210619.1520)
 -->
<!-- Title: dependencies Pages: 1 -->
<svg width="467pt" height="247pt"
 viewBox="0.00 0.00 467.00 246.80" xmlns="http://www.w3.org/2000/svg" xmlns:xlink="http://www.w3.org/1999/xlink">
<g id="graph0" class="graph" transform="scale(1 1) rotate(0) translate(4 242.8)">
<title>dependencies</title>
<polygon fill="white" stroke="transparent" points="-4,4 -4,-242.8 463,-242.8 463,4 -4,4"/>
<text text-anchor="middle" x="229.5" y="-8.2" font-family="sans-serif" font-size="14.00">dependencies</text>
<g id="clust1" class="cluster">
<title>cluster_SupportModule</title>
<polygon fill="none" stroke="black" stroke-dasharray="1,5" points="8,-32.8 8,-230.8 451,-230.8 451,-32.8 8,-32.8"/>
</g>
<g id="clust3" class="cluster">
<title>cluster_SupportModule_imports</title>
<polygon fill="none" stroke="black" points="333,-40.8 333,-92.8 443,-92.8 443,-40.8 333,-40.8"/>
</g>
<g id="clust4" class="cluster">
<title>cluster_SupportModule_exports</title>
<polygon fill="none" stroke="black" points="189,-170.8 189,-222.8 311,-222.8 311,-170.8 189,-170.8"/>
</g>
<g id="clust6" class="cluster">
<title>cluster_SupportModule_providers</title>
<polygon fill="none" stroke="black" points="16,-40.8 16,-92.8 325,-92.8 325,-40.8 16,-40.8"/>
</g>
<!-- CacheModule -->
<g id="node1" class="node">
<title>CacheModule</title>
<polygon fill="#8dd3c7" stroke="black" points="435.03,-84.8 432.03,-88.8 411.03,-88.8 408.03,-84.8 340.97,-84.8 340.97,-48.8 435.03,-48.8 435.03,-84.8"/>
<text text-anchor="middle" x="388" y="-62.6" font-family="Times,serif" font-size="14.00">CacheModule</text>
</g>
<!-- SupportModule -->
<g id="node2" class="node">
<title>SupportModule</title>
<polygon fill="#8dd3c7" stroke="black" points="301.88,-149.8 298.88,-153.8 277.88,-153.8 274.88,-149.8 198.12,-149.8 198.12,-113.8 301.88,-113.8 301.88,-149.8"/>
<text text-anchor="middle" x="250" y="-127.6" font-family="Times,serif" font-size="14.00">SupportModule</text>
</g>
<!-- CacheModule&#45;&gt;SupportModule -->
<g id="edge1" class="edge">
<title>CacheModule&#45;&gt;SupportModule</title>
<path fill="none" stroke="black" d="M388,-84.91C388,-104.14 388,-131.8 388,-131.8 388,-131.8 312.17,-131.8 312.17,-131.8"/>
<polygon fill="black" stroke="black" points="312.17,-128.3 302.17,-131.8 312.17,-135.3 312.17,-128.3"/>
</g>
<!-- SupportService  -->
<g id="node3" class="node">
<title>SupportService </title>
<polygon fill="#fb8072" stroke="black" points="302.81,-214.8 197.19,-214.8 197.19,-178.8 302.81,-178.8 302.81,-214.8"/>
<text text-anchor="middle" x="250" y="-192.6" font-family="Times,serif" font-size="14.00">SupportService </text>
</g>
<!-- SupportModule&#45;&gt;SupportService  -->
<g id="edge2" class="edge">
<title>SupportModule&#45;&gt;SupportService </title>
<path fill="none" stroke="black" stroke-dasharray="5,2" d="M250,-149.91C250,-149.91 250,-168.79 250,-168.79"/>
<polygon fill="black" stroke="black" points="246.5,-168.79 250,-178.79 253.5,-168.79 246.5,-168.79"/>
</g>
<!-- PrismaService -->
<g id="node4" class="node">
<title>PrismaService</title>
<ellipse fill="#fdb462" stroke="black" cx="250" cy="-66.8" rx="66.63" ry="18"/>
<text text-anchor="middle" x="250" y="-62.6" font-family="Times,serif" font-size="14.00">PrismaService</text>
</g>
<!-- PrismaService&#45;&gt;SupportModule -->
<g id="edge3" class="edge">
<title>PrismaService&#45;&gt;SupportModule</title>
<path fill="none" stroke="black" d="M250,-84.91C250,-84.91 250,-103.79 250,-103.79"/>
<polygon fill="black" stroke="black" points="246.5,-103.79 250,-113.79 253.5,-103.79 246.5,-103.79"/>
</g>
<!-- SupportService -->
<g id="node5" class="node">
<title>SupportService</title>
<ellipse fill="#fdb462" stroke="black" cx="95" cy="-66.8" rx="70.65" ry="18"/>
<text text-anchor="middle" x="95" y="-62.6" font-family="Times,serif" font-size="14.00">SupportService</text>
</g>
<!-- SupportService&#45;&gt;SupportModule -->
<g id="edge4" class="edge">
<title>SupportService&#45;&gt;SupportModule</title>
<path fill="none" stroke="black" d="M95,-84.91C95,-104.14 95,-131.8 95,-131.8 95,-131.8 187.96,-131.8 187.96,-131.8"/>
<polygon fill="black" stroke="black" points="187.96,-135.3 197.96,-131.8 187.96,-128.3 187.96,-135.3"/>
</g>
</g>
</svg>
