<?xml version="1.0" encoding="UTF-8" standalone="no"?>
<!DOCTYPE svg PUBLIC "-//W3C//DTD SVG 1.1//EN"
 "http://www.w3.org/Graphics/SVG/1.1/DTD/svg11.dtd">
<!-- Generated by graphviz version 2.47.3 (20210619.1520)
 -->
<!-- Title: dependencies Pages: 1 -->
<svg width="678pt" height="247pt"
 viewBox="0.00 0.00 678.00 246.80" xmlns="http://www.w3.org/2000/svg" xmlns:xlink="http://www.w3.org/1999/xlink">
<g id="graph0" class="graph" transform="scale(1 1) rotate(0) translate(4 242.8)">
<title>dependencies</title>
<polygon fill="white" stroke="transparent" points="-4,4 -4,-242.8 674,-242.8 674,4 -4,4"/>
<text text-anchor="middle" x="335" y="-8.2" font-family="sans-serif" font-size="14.00">dependencies</text>
<g id="clust1" class="cluster">
<title>cluster_AWSModule</title>
<polygon fill="none" stroke="black" stroke-dasharray="1,5" points="8,-32.8 8,-230.8 662,-230.8 662,-32.8 8,-32.8"/>
</g>
<g id="clust3" class="cluster">
<title>cluster_AWSModule_imports</title>
<polygon fill="none" stroke="black" points="333,-40.8 333,-92.8 654,-92.8 654,-40.8 333,-40.8"/>
</g>
<g id="clust4" class="cluster">
<title>cluster_AWSModule_exports</title>
<polygon fill="none" stroke="black" points="254,-170.8 254,-222.8 494,-222.8 494,-170.8 254,-170.8"/>
</g>
<g id="clust6" class="cluster">
<title>cluster_AWSModule_providers</title>
<polygon fill="none" stroke="black" points="16,-40.8 16,-92.8 325,-92.8 325,-40.8 16,-40.8"/>
</g>
<!-- CacheModule -->
<g id="node1" class="node">
<title>CacheModule</title>
<polygon fill="#8dd3c7" stroke="black" points="646.03,-84.8 643.03,-88.8 622.03,-88.8 619.03,-84.8 551.97,-84.8 551.97,-48.8 646.03,-48.8 646.03,-84.8"/>
<text text-anchor="middle" x="599" y="-62.6" font-family="Times,serif" font-size="14.00">CacheModule</text>
</g>
<!-- AWSModule -->
<g id="node4" class="node">
<title>AWSModule</title>
<polygon fill="#8dd3c7" stroke="black" points="424.15,-149.8 421.15,-153.8 400.15,-153.8 397.15,-149.8 333.85,-149.8 333.85,-113.8 424.15,-113.8 424.15,-149.8"/>
<text text-anchor="middle" x="379" y="-127.6" font-family="Times,serif" font-size="14.00">AWSModule</text>
</g>
<!-- CacheModule&#45;&gt;AWSModule -->
<g id="edge1" class="edge">
<title>CacheModule&#45;&gt;AWSModule</title>
<path fill="none" stroke="black" d="M599,-85.08C599,-106.12 599,-137.8 599,-137.8 599,-137.8 434.32,-137.8 434.32,-137.8"/>
<polygon fill="black" stroke="black" points="434.32,-134.3 424.32,-137.8 434.32,-141.3 434.32,-134.3"/>
</g>
<!-- ConfigModule -->
<g id="node2" class="node">
<title>ConfigModule</title>
<polygon fill="#8dd3c7" stroke="black" points="534.44,-84.8 531.44,-88.8 510.44,-88.8 507.44,-84.8 435.56,-84.8 435.56,-48.8 534.44,-48.8 534.44,-84.8"/>
<text text-anchor="middle" x="485" y="-62.6" font-family="Times,serif" font-size="14.00">ConfigModule</text>
</g>
<!-- ConfigModule&#45;&gt;AWSModule -->
<g id="edge2" class="edge">
<title>ConfigModule&#45;&gt;AWSModule</title>
<path fill="none" stroke="black" d="M461.04,-84.82C461.04,-102.17 461.04,-125.8 461.04,-125.8 461.04,-125.8 434.34,-125.8 434.34,-125.8"/>
<polygon fill="black" stroke="black" points="434.34,-122.3 424.34,-125.8 434.34,-129.3 434.34,-122.3"/>
</g>
<!-- DbModule -->
<g id="node3" class="node">
<title>DbModule</title>
<polygon fill="#8dd3c7" stroke="black" points="417.16,-84.8 414.16,-88.8 393.16,-88.8 390.16,-84.8 340.84,-84.8 340.84,-48.8 417.16,-48.8 417.16,-84.8"/>
<text text-anchor="middle" x="379" y="-62.6" font-family="Times,serif" font-size="14.00">DbModule</text>
</g>
<!-- DbModule&#45;&gt;AWSModule -->
<g id="edge3" class="edge">
<title>DbModule&#45;&gt;AWSModule</title>
<path fill="none" stroke="black" d="M379,-84.91C379,-84.91 379,-103.79 379,-103.79"/>
<polygon fill="black" stroke="black" points="375.5,-103.79 379,-113.79 382.5,-103.79 375.5,-103.79"/>
</g>
<!-- AWSService  -->
<g id="node5" class="node">
<title>AWSService </title>
<polygon fill="#fb8072" stroke="black" points="486.08,-214.8 393.92,-214.8 393.92,-178.8 486.08,-178.8 486.08,-214.8"/>
<text text-anchor="middle" x="440" y="-192.6" font-family="Times,serif" font-size="14.00">AWSService </text>
</g>
<!-- AWSModule&#45;&gt;AWSService  -->
<g id="edge4" class="edge">
<title>AWSModule&#45;&gt;AWSService </title>
<path fill="none" stroke="black" stroke-dasharray="5,2" d="M409.02,-149.91C409.02,-149.91 409.02,-168.79 409.02,-168.79"/>
<polygon fill="black" stroke="black" points="405.52,-168.79 409.02,-178.79 412.52,-168.79 405.52,-168.79"/>
</g>
<!-- TemplateService  -->
<g id="node6" class="node">
<title>TemplateService </title>
<polygon fill="#fb8072" stroke="black" points="376.35,-214.8 261.65,-214.8 261.65,-178.8 376.35,-178.8 376.35,-214.8"/>
<text text-anchor="middle" x="319" y="-192.6" font-family="Times,serif" font-size="14.00">TemplateService </text>
</g>
<!-- AWSModule&#45;&gt;TemplateService  -->
<g id="edge5" class="edge">
<title>AWSModule&#45;&gt;TemplateService </title>
<path fill="none" stroke="black" stroke-dasharray="5,2" d="M354.92,-149.91C354.92,-149.91 354.92,-168.79 354.92,-168.79"/>
<polygon fill="black" stroke="black" points="351.42,-168.79 354.92,-178.79 358.42,-168.79 351.42,-168.79"/>
</g>
<!-- AWSService -->
<g id="node7" class="node">
<title>AWSService</title>
<ellipse fill="#fdb462" stroke="black" cx="256" cy="-66.8" rx="61.39" ry="18"/>
<text text-anchor="middle" x="256" y="-62.6" font-family="Times,serif" font-size="14.00">AWSService</text>
</g>
<!-- AWSService&#45;&gt;AWSModule -->
<g id="edge6" class="edge">
<title>AWSService&#45;&gt;AWSModule</title>
<path fill="none" stroke="black" d="M289.64,-81.99C289.64,-99.48 289.64,-125.8 289.64,-125.8 289.64,-125.8 323.79,-125.8 323.79,-125.8"/>
<polygon fill="black" stroke="black" points="323.79,-129.3 333.79,-125.8 323.79,-122.3 323.79,-129.3"/>
</g>
<!-- TemplateService -->
<g id="node8" class="node">
<title>TemplateService</title>
<ellipse fill="#fdb462" stroke="black" cx="100" cy="-66.8" rx="76.42" ry="18"/>
<text text-anchor="middle" x="100" y="-62.6" font-family="Times,serif" font-size="14.00">TemplateService</text>
</g>
<!-- TemplateService&#45;&gt;AWSModule -->
<g id="edge7" class="edge">
<title>TemplateService&#45;&gt;AWSModule</title>
<path fill="none" stroke="black" d="M100,-85.08C100,-106.12 100,-137.8 100,-137.8 100,-137.8 323.55,-137.8 323.55,-137.8"/>
<polygon fill="black" stroke="black" points="323.55,-141.3 333.55,-137.8 323.55,-134.3 323.55,-141.3"/>
</g>
</g>
</svg>
