<?xml version="1.0" encoding="UTF-8" standalone="no"?>
<!DOCTYPE svg PUBLIC "-//W3C//DTD SVG 1.1//EN"
 "http://www.w3.org/Graphics/SVG/1.1/DTD/svg11.dtd">
<!-- Generated by graphviz version 2.47.3 (20210619.1520)
 -->
<!-- Title: dependencies Pages: 1 -->
<svg width="300pt" height="247pt"
 viewBox="0.00 0.00 300.00 246.80" xmlns="http://www.w3.org/2000/svg" xmlns:xlink="http://www.w3.org/1999/xlink">
<g id="graph0" class="graph" transform="scale(1 1) rotate(0) translate(4 242.8)">
<title>dependencies</title>
<polygon fill="white" stroke="transparent" points="-4,4 -4,-242.8 296,-242.8 296,4 -4,4"/>
<text text-anchor="middle" x="146" y="-8.2" font-family="sans-serif" font-size="14.00">dependencies</text>
<g id="clust1" class="cluster">
<title>cluster_AWSModule</title>
<polygon fill="none" stroke="black" stroke-dasharray="1,5" points="8,-32.8 8,-230.8 284,-230.8 284,-32.8 8,-32.8"/>
</g>
<g id="clust4" class="cluster">
<title>cluster_AWSModule_exports</title>
<polygon fill="none" stroke="black" points="98,-170.8 98,-222.8 206,-222.8 206,-170.8 98,-170.8"/>
</g>
<g id="clust3" class="cluster">
<title>cluster_AWSModule_imports</title>
<polygon fill="none" stroke="black" points="162,-40.8 162,-92.8 276,-92.8 276,-40.8 162,-40.8"/>
</g>
<g id="clust6" class="cluster">
<title>cluster_AWSModule_providers</title>
<polygon fill="none" stroke="black" points="16,-40.8 16,-92.8 154,-92.8 154,-40.8 16,-40.8"/>
</g>
<!-- ConfigModule -->
<g id="node1" class="node">
<title>ConfigModule</title>
<polygon fill="#8dd3c7" stroke="black" points="268.44,-84.8 265.44,-88.8 244.44,-88.8 241.44,-84.8 169.56,-84.8 169.56,-48.8 268.44,-48.8 268.44,-84.8"/>
<text text-anchor="middle" x="219" y="-62.6" font-family="Times,serif" font-size="14.00">ConfigModule</text>
</g>
<!-- AWSModule -->
<g id="node2" class="node">
<title>AWSModule</title>
<polygon fill="#8dd3c7" stroke="black" points="197.15,-149.8 194.15,-153.8 173.15,-153.8 170.15,-149.8 106.85,-149.8 106.85,-113.8 197.15,-113.8 197.15,-149.8"/>
<text text-anchor="middle" x="152" y="-127.6" font-family="Times,serif" font-size="14.00">AWSModule</text>
</g>
<!-- ConfigModule&#45;&gt;AWSModule -->
<g id="edge1" class="edge">
<title>ConfigModule&#45;&gt;AWSModule</title>
<path fill="none" stroke="black" d="M183.55,-84.91C183.55,-84.91 183.55,-103.79 183.55,-103.79"/>
<polygon fill="black" stroke="black" points="180.05,-103.79 183.55,-113.79 187.05,-103.79 180.05,-103.79"/>
</g>
<!-- AWSService  -->
<g id="node3" class="node">
<title>AWSService </title>
<polygon fill="#fb8072" stroke="black" points="198.08,-214.8 105.92,-214.8 105.92,-178.8 198.08,-178.8 198.08,-214.8"/>
<text text-anchor="middle" x="152" y="-192.6" font-family="Times,serif" font-size="14.00">AWSService </text>
</g>
<!-- AWSModule&#45;&gt;AWSService  -->
<g id="edge2" class="edge">
<title>AWSModule&#45;&gt;AWSService </title>
<path fill="none" stroke="black" stroke-dasharray="5,2" d="M152,-149.91C152,-149.91 152,-168.79 152,-168.79"/>
<polygon fill="black" stroke="black" points="148.5,-168.79 152,-178.79 155.5,-168.79 148.5,-168.79"/>
</g>
<!-- AWSService -->
<g id="node4" class="node">
<title>AWSService</title>
<ellipse fill="#fdb462" stroke="black" cx="85" cy="-66.8" rx="61.39" ry="18"/>
<text text-anchor="middle" x="85" y="-62.6" font-family="Times,serif" font-size="14.00">AWSService</text>
</g>
<!-- AWSService&#45;&gt;AWSModule -->
<g id="edge3" class="edge">
<title>AWSService&#45;&gt;AWSModule</title>
<path fill="none" stroke="black" d="M126.56,-80.27C126.56,-80.27 126.56,-103.66 126.56,-103.66"/>
<polygon fill="black" stroke="black" points="123.06,-103.66 126.56,-113.66 130.06,-103.66 123.06,-103.66"/>
</g>
</g>
</svg>
