<?xml version="1.0" standalone="no"?>
<!DOCTYPE svg PUBLIC "-//W3C//DTD SVG 20010904//EN"
 "http://www.w3.org/TR/2001/REC-SVG-20010904/DTD/svg10.dtd">
<svg version="1.0" xmlns="http://www.w3.org/2000/svg"
 width="1024.000000pt" height="1024.000000pt" viewBox="0 0 1024.000000 1024.000000"
 preserveAspectRatio="xMidYMid meet">
<metadata>
Created by potrace 1.14, written by Peter Selinger 2001-2017
</metadata>
<g transform="translate(0.000000,1024.000000) scale(0.100000,-0.100000)"
fill="#000000" stroke="none">
<path d="M3319 8696 c-2 -2 -51 -6 -109 -10 -58 -3 -116 -8 -130 -10 -14 -3
-55 -7 -92 -11 -37 -3 -77 -8 -90 -10 -13 -2 -48 -6 -78 -9 -269 -25 -786
-170 -1105 -311 -16 -7 -70 -30 -120 -50 -136 -56 -288 -132 -400 -199 -88
-52 -191 -121 -205 -136 -3 -3 -23 -18 -45 -35 -63 -47 -200 -182 -247 -244
-24 -31 -45 -58 -48 -61 -12 -11 -88 -138 -122 -205 -41 -81 -95 -216 -132
-330 -35 -111 -127 -481 -149 -605 -3 -14 -12 -59 -20 -100 -19 -91 -26 -124
-33 -170 -7 -46 -10 -63 -23 -135 -5 -33 -13 -80 -16 -105 -3 -25 -8 -52 -10
-60 -2 -8 -6 -40 -10 -70 -3 -30 -7 -65 -9 -77 -3 -12 -8 -53 -11 -90 -4 -37
-8 -75 -10 -83 -2 -8 -7 -46 -11 -85 -3 -38 -8 -78 -10 -88 -2 -10 -6 -53 -9
-95 -4 -42 -8 -93 -10 -112 -2 -19 -6 -75 -10 -125 -4 -49 -9 -108 -10 -130
-2 -22 -7 -94 -10 -160 -4 -66 -8 -149 -10 -185 -27 -483 -27 -1527 0 -1945
14 -218 20 -298 30 -395 3 -25 10 -88 15 -140 17 -167 19 -176 45 -350 3 -14
7 -43 11 -65 10 -70 47 -148 76 -165 25 -13 29 -13 44 2 20 19 26 115 14 196
-10 65 -21 150 -25 193 -3 38 -14 126 -20 169 -2 14 -6 66 -10 115 -3 50 -8
106 -10 125 -9 83 -18 241 -32 565 -15 356 -8 1397 12 1705 3 41 7 118 10 170
3 52 7 120 10 150 2 30 7 89 10 130 5 64 23 250 41 425 4 43 13 119 29 232 2
16 6 51 10 78 3 28 8 61 10 75 3 14 7 43 11 65 13 93 36 226 64 365 11 58 23
121 26 140 3 19 7 41 10 49 4 12 38 160 49 213 2 9 13 51 25 94 12 42 24 87
26 99 8 44 85 257 126 347 100 223 200 362 360 504 43 38 190 145 238 173 191
112 357 192 591 284 137 54 387 144 424 151 6 2 42 12 80 24 180 55 517 126
695 147 215 26 285 30 520 30 205 0 413 -10 430 -20 3 -2 28 -6 55 -9 279 -31
651 -151 906 -292 239 -132 457 -328 594 -534 184 -278 254 -557 222 -886 -35
-368 -257 -834 -586 -1234 -47 -57 -269 -282 -331 -335 -299 -257 -593 -463
-934 -655 -232 -129 -775 -398 -1081 -535 -16 -7 -57 -26 -90 -41 -33 -15 -94
-41 -135 -59 -41 -18 -95 -42 -120 -53 -46 -21 -154 -63 -440 -172 -91 -34
-178 -68 -195 -75 -16 -8 -93 -41 -170 -75 -326 -143 -539 -294 -647 -459 -59
-90 -79 -153 -83 -254 -12 -343 411 -745 1076 -1020 222 -92 488 -165 699
-192 14 -2 39 -6 55 -9 17 -3 50 -8 75 -11 25 -3 61 -8 80 -10 68 -10 231 -24
356 -30 85 -5 459 -5 574 0 215 8 497 24 530 30 14 2 48 7 76 10 28 3 61 8 74
10 13 3 42 7 64 11 22 3 43 7 46 9 3 2 24 6 48 10 51 7 289 65 415 101 233 66
586 180 662 214 11 5 54 23 95 39 228 90 528 239 770 384 87 52 311 197 320
208 3 3 28 21 55 39 104 70 382 294 510 410 27 25 128 123 224 218 95 94 175
172 176 172 1 0 2 -6 2 -12 0 -22 23 -101 45 -158 47 -120 151 -250 246 -307
31 -18 42 -31 42 -50 0 -61 52 -87 113 -58 32 15 41 15 113 0 121 -26 381 -28
524 -5 307 50 555 158 799 348 113 89 144 116 271 242 111 110 162 179 164
223 2 65 -28 46 -192 -120 -223 -226 -403 -365 -572 -441 -96 -43 -118 -52
-202 -76 -237 -69 -514 -79 -745 -28 l-31 7 39 65 c22 36 57 101 78 145 36 74
47 99 81 180 52 126 100 357 104 505 9 314 -159 476 -423 409 -100 -25 -173
-70 -257 -156 -127 -130 -209 -331 -213 -523 -1 -53 -3 -55 -190 -245 -197
-200 -348 -337 -541 -491 -184 -147 -404 -301 -575 -403 -33 -20 -67 -40 -77
-46 -33 -20 -255 -140 -318 -172 -554 -280 -1288 -500 -1910 -573 -52 -6 -108
-13 -125 -15 -97 -12 -309 -20 -585 -20 -450 0 -600 12 -995 81 -180 32 -477
124 -645 202 -177 81 -192 89 -353 185 -214 129 -405 317 -481 477 -28 59 -31
74 -31 165 0 98 1 102 40 175 126 235 397 400 1079 655 323 121 434 168 841
355 314 144 842 408 997 499 15 9 68 40 119 70 456 268 953 682 1194 995 17
22 39 51 51 65 71 88 224 342 291 481 135 282 189 467 211 724 49 558 -232
1091 -762 1445 -333 222 -765 367 -1271 427 -55 6 -540 15 -546 10z m5257
-4527 c52 -47 68 -102 70 -239 3 -135 -16 -243 -73 -415 -41 -126 -155 -357
-219 -443 -7 -10 -95 47 -136 87 -95 94 -154 227 -165 373 -4 59 -2 85 10 111
13 27 14 40 5 64 -23 62 41 236 126 344 72 92 194 151 298 146 45 -3 64 -9 84
-28z"/>
</g>
</svg>
