<?xml version="1.0" standalone="no"?>
<!DOCTYPE svg PUBLIC "-//W3C//DTD SVG 20010904//EN"
 "http://www.w3.org/TR/2001/REC-SVG-20010904/DTD/svg10.dtd">
<svg version="1.0" xmlns="http://www.w3.org/2000/svg"
 width="700.000000pt" height="700.000000pt" viewBox="0 0 700.000000 700.000000"
 preserveAspectRatio="xMidYMid meet">
<metadata>
Created by potrace 1.14, written by Peter Selinger 2001-2017
</metadata>
<g transform="translate(0.000000,700.000000) scale(0.100000,-0.100000)"
fill="#000000" stroke="none">
<path d="M0 3500 l0 -3500 3500 0 3500 0 0 3500 0 3500 -3500 0 -3500 0 0
-3500z m6970 3118 c2 -3455 0 -6572 -5 -6577 -4 -3 -1566 -6 -3471 -6 l-3464
0 0 3468 0 3467 3470 0 3470 0 0 -352z"/>
<path d="M1314 5121 c-47 -21 -97 -77 -110 -124 -6 -19 -9 -609 -9 -1483 l1
-1451 25 -49 c74 -143 274 -143 348 -1 l25 49 2 791 c1 436 5 810 8 832 11 66
13 77 31 144 67 259 242 517 458 679 131 97 368 198 510 217 23 3 58 8 77 10
51 7 206 7 270 -1 61 -7 227 -48 238 -59 4 -3 0 -12 -8 -18 -29 -22 -132 -149
-175 -216 -129 -199 -213 -451 -240 -720 -9 -85 -9 -300 0 -381 3 -36 8 -83
11 -105 32 -293 179 -614 379 -827 195 -208 469 -362 783 -443 53 -13 111 -26
127 -29 151 -23 205 -28 300 -29 104 0 202 6 270 18 211 37 376 90 561 181
114 55 354 204 397 245 8 8 46 40 85 72 45 37 79 75 92 102 64 132 -23 280
-166 285 -69 3 -111 -15 -164 -68 -49 -49 -221 -172 -319 -227 -401 -227 -796
-269 -1206 -128 -375 129 -619 386 -715 750 -20 76 -23 98 -38 223 -20 166 -1
400 44 570 47 173 157 355 288 478 l67 62 32 -22 c18 -12 82 -73 143 -136 90
-91 120 -116 156 -127 125 -37 253 55 253 185 0 74 -21 112 -116 213 -73 78
-77 85 -56 91 264 75 473 87 707 40 451 -89 745 -387 869 -881 12 -45 21 -88
21 -96 0 -13 -117 -15 -969 -15 -942 0 -970 -1 -1012 -20 -92 -41 -135 -126
-116 -225 12 -60 71 -126 127 -143 24 -7 397 -10 1140 -9 1057 1 1107 1 1140
19 45 24 79 61 97 105 15 36 16 172 2 241 -4 19 -10 59 -13 89 -15 130 -99
397 -168 534 -151 301 -391 541 -672 672 -94 44 -260 101 -323 111 -19 3 -45
8 -57 10 -151 31 -392 42 -526 23 -121 -17 -145 -21 -150 -24 -3 -2 -25 -6
-50 -10 -69 -10 -258 -70 -359 -114 l-92 -40 -62 32 c-121 62 -248 106 -402
139 -79 16 -138 21 -275 22 -198 1 -270 -7 -422 -45 -167 -42 -336 -117 -477
-211 -102 -68 -151 -107 -249 -203 -45 -44 -84 -81 -85 -82 -2 -1 -3 87 -4
196 0 166 -3 204 -18 234 -46 98 -164 142 -261 98z"/>
</g>
</svg>
