<?xml version="1.0" encoding="UTF-8" standalone="no"?>
<!DOCTYPE svg PUBLIC "-//W3C//DTD SVG 1.1//EN"
 "http://www.w3.org/Graphics/SVG/1.1/DTD/svg11.dtd">
<!-- Generated by graphviz version 2.47.3 (20210619.1520)
 -->
<!-- Title: dependencies Pages: 1 -->
<svg width="466pt" height="247pt"
 viewBox="0.00 0.00 466.00 246.80" xmlns="http://www.w3.org/2000/svg" xmlns:xlink="http://www.w3.org/1999/xlink">
<g id="graph0" class="graph" transform="scale(1 1) rotate(0) translate(4 242.8)">
<title>dependencies</title>
<polygon fill="white" stroke="transparent" points="-4,4 -4,-242.8 462,-242.8 462,4 -4,4"/>
<text text-anchor="middle" x="229" y="-8.2" font-family="sans-serif" font-size="14.00">dependencies</text>
<g id="clust1" class="cluster">
<title>cluster_ProductModule</title>
<polygon fill="none" stroke="black" stroke-dasharray="1,5" points="8,-32.8 8,-230.8 450,-230.8 450,-32.8 8,-32.8"/>
</g>
<g id="clust3" class="cluster">
<title>cluster_ProductModule_imports</title>
<polygon fill="none" stroke="black" points="332,-40.8 332,-92.8 442,-92.8 442,-40.8 332,-40.8"/>
</g>
<g id="clust6" class="cluster">
<title>cluster_ProductModule_providers</title>
<polygon fill="none" stroke="black" points="16,-40.8 16,-92.8 324,-92.8 324,-40.8 16,-40.8"/>
</g>
<g id="clust4" class="cluster">
<title>cluster_ProductModule_exports</title>
<polygon fill="none" stroke="black" points="188,-170.8 188,-222.8 310,-222.8 310,-170.8 188,-170.8"/>
</g>
<!-- CacheModule -->
<g id="node1" class="node">
<title>CacheModule</title>
<polygon fill="#8dd3c7" stroke="black" points="434.03,-84.8 431.03,-88.8 410.03,-88.8 407.03,-84.8 339.97,-84.8 339.97,-48.8 434.03,-48.8 434.03,-84.8"/>
<text text-anchor="middle" x="387" y="-62.6" font-family="Times,serif" font-size="14.00">CacheModule</text>
</g>
<!-- ProductModule -->
<g id="node2" class="node">
<title>ProductModule</title>
<polygon fill="#8dd3c7" stroke="black" points="300.6,-149.8 297.6,-153.8 276.6,-153.8 273.6,-149.8 197.4,-149.8 197.4,-113.8 300.6,-113.8 300.6,-149.8"/>
<text text-anchor="middle" x="249" y="-127.6" font-family="Times,serif" font-size="14.00">ProductModule</text>
</g>
<!-- CacheModule&#45;&gt;ProductModule -->
<g id="edge1" class="edge">
<title>CacheModule&#45;&gt;ProductModule</title>
<path fill="none" stroke="black" d="M387,-84.91C387,-104.14 387,-131.8 387,-131.8 387,-131.8 310.78,-131.8 310.78,-131.8"/>
<polygon fill="black" stroke="black" points="310.78,-128.3 300.78,-131.8 310.78,-135.3 310.78,-128.3"/>
</g>
<!-- ProductService  -->
<g id="node3" class="node">
<title>ProductService </title>
<polygon fill="#fb8072" stroke="black" points="301.53,-214.8 196.47,-214.8 196.47,-178.8 301.53,-178.8 301.53,-214.8"/>
<text text-anchor="middle" x="249" y="-192.6" font-family="Times,serif" font-size="14.00">ProductService </text>
</g>
<!-- ProductModule&#45;&gt;ProductService  -->
<g id="edge2" class="edge">
<title>ProductModule&#45;&gt;ProductService </title>
<path fill="none" stroke="black" stroke-dasharray="5,2" d="M249,-149.91C249,-149.91 249,-168.79 249,-168.79"/>
<polygon fill="black" stroke="black" points="245.5,-168.79 249,-178.79 252.5,-168.79 245.5,-168.79"/>
</g>
<!-- PrismaService -->
<g id="node4" class="node">
<title>PrismaService</title>
<ellipse fill="#fdb462" stroke="black" cx="249" cy="-66.8" rx="66.63" ry="18"/>
<text text-anchor="middle" x="249" y="-62.6" font-family="Times,serif" font-size="14.00">PrismaService</text>
</g>
<!-- PrismaService&#45;&gt;ProductModule -->
<g id="edge3" class="edge">
<title>PrismaService&#45;&gt;ProductModule</title>
<path fill="none" stroke="black" d="M249,-84.91C249,-84.91 249,-103.79 249,-103.79"/>
<polygon fill="black" stroke="black" points="245.5,-103.79 249,-113.79 252.5,-103.79 245.5,-103.79"/>
</g>
<!-- ProductService -->
<g id="node5" class="node">
<title>ProductService</title>
<ellipse fill="#fdb462" stroke="black" cx="94" cy="-66.8" rx="70.06" ry="18"/>
<text text-anchor="middle" x="94" y="-62.6" font-family="Times,serif" font-size="14.00">ProductService</text>
</g>
<!-- ProductService&#45;&gt;ProductModule -->
<g id="edge4" class="edge">
<title>ProductService&#45;&gt;ProductModule</title>
<path fill="none" stroke="black" d="M94,-84.91C94,-104.14 94,-131.8 94,-131.8 94,-131.8 187.39,-131.8 187.39,-131.8"/>
<polygon fill="black" stroke="black" points="187.39,-135.3 197.39,-131.8 187.39,-128.3 187.39,-135.3"/>
</g>
</g>
</svg>
