<?xml version="1.0" encoding="UTF-8" standalone="no"?>
<!DOCTYPE svg PUBLIC "-//W3C//DTD SVG 1.1//EN"
 "http://www.w3.org/Graphics/SVG/1.1/DTD/svg11.dtd">
<!-- Generated by graphviz version 2.47.3 (20210619.1520)
 -->
<!-- Title: dependencies Pages: 1 -->
<svg width="314pt" height="247pt"
 viewBox="0.00 0.00 314.00 246.80" xmlns="http://www.w3.org/2000/svg" xmlns:xlink="http://www.w3.org/1999/xlink">
<g id="graph0" class="graph" transform="scale(1 1) rotate(0) translate(4 242.8)">
<title>dependencies</title>
<polygon fill="white" stroke="transparent" points="-4,4 -4,-242.8 310,-242.8 310,4 -4,4"/>
<text text-anchor="middle" x="153" y="-8.2" font-family="sans-serif" font-size="14.00">dependencies</text>
<g id="clust1" class="cluster">
<title>cluster_ProductModule</title>
<polygon fill="none" stroke="black" stroke-dasharray="1,5" points="8,-32.8 8,-230.8 298,-230.8 298,-32.8 8,-32.8"/>
</g>
<g id="clust4" class="cluster">
<title>cluster_ProductModule_exports</title>
<polygon fill="none" stroke="black" points="100,-170.8 100,-222.8 222,-222.8 222,-170.8 100,-170.8"/>
</g>
<g id="clust3" class="cluster">
<title>cluster_ProductModule_imports</title>
<polygon fill="none" stroke="black" points="180,-40.8 180,-92.8 290,-92.8 290,-40.8 180,-40.8"/>
</g>
<g id="clust6" class="cluster">
<title>cluster_ProductModule_providers</title>
<polygon fill="none" stroke="black" points="16,-40.8 16,-92.8 172,-92.8 172,-40.8 16,-40.8"/>
</g>
<!-- CacheModule -->
<g id="node1" class="node">
<title>CacheModule</title>
<polygon fill="#8dd3c7" stroke="black" points="282.03,-84.8 279.03,-88.8 258.03,-88.8 255.03,-84.8 187.97,-84.8 187.97,-48.8 282.03,-48.8 282.03,-84.8"/>
<text text-anchor="middle" x="235" y="-62.6" font-family="Times,serif" font-size="14.00">CacheModule</text>
</g>
<!-- ProductModule -->
<g id="node2" class="node">
<title>ProductModule</title>
<polygon fill="#8dd3c7" stroke="black" points="212.6,-149.8 209.6,-153.8 188.6,-153.8 185.6,-149.8 109.4,-149.8 109.4,-113.8 212.6,-113.8 212.6,-149.8"/>
<text text-anchor="middle" x="161" y="-127.6" font-family="Times,serif" font-size="14.00">ProductModule</text>
</g>
<!-- CacheModule&#45;&gt;ProductModule -->
<g id="edge1" class="edge">
<title>CacheModule&#45;&gt;ProductModule</title>
<path fill="none" stroke="black" d="M200.14,-84.91C200.14,-84.91 200.14,-103.79 200.14,-103.79"/>
<polygon fill="black" stroke="black" points="196.64,-103.79 200.14,-113.79 203.64,-103.79 196.64,-103.79"/>
</g>
<!-- ProductService  -->
<g id="node3" class="node">
<title>ProductService </title>
<polygon fill="#fb8072" stroke="black" points="213.53,-214.8 108.47,-214.8 108.47,-178.8 213.53,-178.8 213.53,-214.8"/>
<text text-anchor="middle" x="161" y="-192.6" font-family="Times,serif" font-size="14.00">ProductService </text>
</g>
<!-- ProductModule&#45;&gt;ProductService  -->
<g id="edge2" class="edge">
<title>ProductModule&#45;&gt;ProductService </title>
<path fill="none" stroke="black" stroke-dasharray="5,2" d="M161,-149.91C161,-149.91 161,-168.79 161,-168.79"/>
<polygon fill="black" stroke="black" points="157.5,-168.79 161,-178.79 164.5,-168.79 157.5,-168.79"/>
</g>
<!-- ProductService -->
<g id="node4" class="node">
<title>ProductService</title>
<ellipse fill="#fdb462" stroke="black" cx="94" cy="-66.8" rx="70.06" ry="18"/>
<text text-anchor="middle" x="94" y="-62.6" font-family="Times,serif" font-size="14.00">ProductService</text>
</g>
<!-- ProductService&#45;&gt;ProductModule -->
<g id="edge3" class="edge">
<title>ProductService&#45;&gt;ProductModule</title>
<path fill="none" stroke="black" d="M136.74,-81.23C136.74,-81.23 136.74,-103.69 136.74,-103.69"/>
<polygon fill="black" stroke="black" points="133.24,-103.69 136.74,-113.69 140.24,-103.69 133.24,-103.69"/>
</g>
</g>
</svg>
